<svg xmlns="http://www.w3.org/2000/svg" xmlns:xlink="http://www.w3.org/1999/xlink" fill="none" version="1.1" width="485" height="292" viewBox="0 0 485 292"><g style="mix-blend-mode:passthrough"><g><g style="mix-blend-mode:passthrough"><path d="M3.31641,5.9685L3.31641,8.01928L1.875,8.01928L1.875,4.656L8.47266,4.656Q8.00977,3.73608,7.6875,3.21459L9.16992,2.74584Q9.65039,3.70092,10.0254,4.656L16.3184,4.656L16.3184,8.03686L14.877,8.03686L14.877,5.9685L3.31641,5.9685ZM10.5645,11.283Q13.2188,12.1619,17.2207,12.613L16.9512,13.9783Q12.2051,13.3162,9.04688,11.9978Q5.60742,13.4744,1.03125,14.1951L0.667969,12.8064Q4.44727,12.3025,7.45898,11.2419Q6.1875,10.5622,4.9043,9.58959Q3.7207,10.5212,2.5957,11.154L1.875,10.0583Q3.02344,9.48412,4.38867,8.3767Q5.75391,7.26928,6.52148,6.26733L7.72266,6.68334Q7.48828,6.99389,6.95508,7.6267L14.2676,7.6267L14.2676,8.79858Q12.6562,10.1697,10.5645,11.283ZM5.90625,8.83373Q7.2832,9.89428,8.94141,10.6501Q10.7461,9.84155,12.0645,8.83373L5.90625,8.83373ZM4.95703,19.281L3.56836,19.281L3.56836,13.9783L14.625,13.9783L14.625,19.281L13.2246,19.281L13.2246,18.5955L4.95703,18.5955L4.95703,19.281ZM13.2246,17.406L13.2246,15.238L4.95703,15.238L4.95703,17.406L13.2246,17.406ZM34.084,5.406L34.084,12.0622L22.418,12.0622Q22.3477,13.8435,22.1133,15.0798Q21.8789,16.3103,21.4219,17.3533Q20.9648,18.3962,20.1328,19.6208L18.7148,18.8122Q19.6641,17.5173,20.1387,16.4568Q20.6191,15.3904,20.8066,13.9841Q21,12.5779,21,10.2224L21,5.406L26.9766,5.406Q26.1562,3.81811,25.8457,3.33764L27.4102,2.85131Q27.7559,3.40795,28.7461,5.406L34.084,5.406ZM22.4531,10.656L32.625,10.656L32.625,6.75365L22.4531,6.75365L22.4531,9.91186L22.4531,10.656ZM50.9824,3.8474L52.2773,3.8474L52.2773,7.70287L43.2246,7.70287L43.2246,3.8474L44.5312,3.8474L44.5312,6.531L47.0566,6.531L47.0566,2.87475L48.3398,2.87475L48.3398,6.531L50.9824,6.531L50.9824,3.8474ZM42.375,5.95678L42.375,7.26928L36.8848,7.26928L36.8848,5.95678L39.1348,5.95678L38.959,5.1599Q38.8828,4.85522,38.748,4.26928Q38.6133,3.68334,38.543,3.44897L39.7852,3.17944Q39.9141,3.60717,40.3359,5.4353Q40.3711,5.55834,40.4648,5.95678L42.375,5.95678ZM42.4336,15.3728L42.5566,16.7029L39.4043,17.4412L36.9199,18.0388L36.6504,16.7439L39.5859,16.0232Q39.9316,14.4646,40.2891,12.1033Q40.6523,9.73608,40.8281,8.13061L42.0703,8.34155Q41.4961,12.5076,40.8633,15.7712L42.4336,15.3728ZM38.1797,14.9919L37.9805,13.5388Q37.9453,13.2634,37.6934,11.4763Q37.4414,9.6892,37.207,8.5349L38.3438,8.30639Q38.5781,9.39623,38.8359,11.1306Q39.0996,12.865,39.1582,13.2517L39.3691,14.74L38.1797,14.9919ZM53.0859,10.3572L48.2227,10.3572Q47.877,11.4646,47.6543,12.1443L52.5645,12.1443L52.5645,17.6697Q52.5645,18.6072,52.2012,18.9412Q51.8379,19.281,50.9648,19.281Q50.4609,19.281,49.9043,19.2107L49.6641,18.074Q50.2734,18.1443,50.7891,18.1443Q51.0762,18.1443,51.1699,17.9978Q51.2695,17.8455,51.2695,17.3884L51.2695,13.3513L49.5645,13.3513L49.5645,18.0564L48.375,18.0564L48.375,13.3513L46.957,13.3513L46.957,18.3435L45.75,18.3435L45.75,13.3513L44.25,13.3513L44.25,19.2107L43.043,19.2107L43.043,12.1443L46.2715,12.1443Q46.5059,11.488,46.8516,10.3572L42.6621,10.3572L42.6621,9.156L53.0859,9.156L53.0859,10.3572Z" fill="#DDDDDD" fill-opacity="1"/></g><g style="mix-blend-mode:passthrough"><path d="M434.4141,15.947Q435.457,17.0193,437.3496,18.238L436.5059,19.281Q434.6426,18.1267,433.5879,17.0193Q432.5977,18.1091,430.9863,19.281L430.1602,18.238Q431.7891,17.1306,432.7617,15.9997Q432.082,15.0622,431.5547,13.8845Q431.0332,12.7068,430.5996,11.1716L429.91992,11.1716L429.91992,19.281L428.625,19.281L428.625,3.906L436.2012,3.906L436.1074,6.90014Q436.0723,7.70287,435.8789,8.09545Q435.6914,8.48217,435.2168,8.64037Q434.7422,8.79272,433.7578,8.79272Q432.7031,8.79272,431.666,8.68725L431.4258,7.37475Q432.5215,7.53881,433.6055,7.53881Q434.0801,7.53881,434.3145,7.4392Q434.5547,7.33959,434.6367,7.12865Q434.7246,6.91772,434.7422,6.50756Q434.7773,6.24975,434.7949,5.9099Q434.8125,5.57006,434.8125,5.27709L429.91992,5.27709L429.91992,9.8767L436.4355,9.8767L436.4355,11.1892Q436.0898,12.6013,435.5977,13.7673Q435.1113,14.9333,434.4141,15.947ZM422.08008,3.94115L427.27734,3.94115L427.27734,17.4705Q427.27734,18.1794,427.14258,18.5603Q427.00781,18.9412,426.65039,19.1111Q426.29297,19.281,425.57227,19.281Q424.82227,19.281,424.03711,19.1755L423.75,17.8396Q424.75195,17.9861,425.26758,17.9861Q425.71289,17.9861,425.85352,17.7517Q426,17.5115,426,16.949L426,13.7087L423.32227,13.7087Q423.23438,15.2966,422.91797,16.656Q422.60156,18.0095,421.99219,19.3572L420.767578,18.9939Q421.30664,17.8923,421.57617,16.9665Q421.8457,16.0408,421.96289,14.6521Q422.08008,13.2576,422.08008,10.8025L422.08008,3.94115ZM426,8.25365L426,5.27709L423.375,5.27709L423.375,8.25365L426,8.25365ZM426,12.449L426,9.531L423.375,9.531L423.375,11.4001Q423.375,12.115,423.35742,12.449L426,12.449ZM431.9004,11.1716Q432.5391,13.4626,433.5879,14.9275Q434.6484,13.3572,435.1582,11.1716L431.9004,11.1716ZM448.4941,9.05639Q450.9961,10.0056,455.1738,10.697L454.8105,12.0974Q452.291,11.6111,450.3926,11.0662Q448.4941,10.5212,446.9824,9.80639Q443.8301,11.2361,439.2773,12.3318L438.791,10.949Q442.6641,10.1638,445.5059,9.02123Q444.0117,8.13061,442.5352,6.75365Q441.4219,7.79076,440.0684,8.64623L439.2773,7.64428Q440.5898,6.80639,441.9668,5.42944Q443.3438,4.04662,444.1758,2.80444L445.4883,3.3435Q445.1074,3.91772,444.5332,4.63842L452.8887,4.63842L452.8887,5.82787Q450.9082,7.73217,448.4941,9.05639ZM443.4902,5.84545Q444.9316,7.38061,446.9473,8.3767Q449.25,7.2517,450.7617,5.84545L443.4902,5.84545ZM446.5488,11.1072Q446.5312,11.2126,446.4668,11.7634Q446.4082,12.3142,446.3145,12.906L453.1758,12.906Q453.0117,14.9802,452.6367,16.9958Q452.4199,18.156,451.8867,18.7009Q451.3535,19.2458,450.293,19.2634Q448.7109,19.2986,447.1055,19.0994L446.8535,17.7927Q448.2598,18.0212,449.7012,18.0212Q450.3633,18.0212,450.6621,17.7576Q450.9609,17.488,451.1602,16.6853Q451.4648,15.4607,451.5527,14.1833L446.0625,14.1833Q445.7227,15.4138,445.0254,16.3044Q444.334,17.1951,443.1445,17.9275Q441.9609,18.654,440.0156,19.4216L439.1895,18.238Q440.8828,17.6287,441.9316,17.0544Q442.9863,16.4802,443.6074,15.7947Q444.2285,15.1091,444.5332,14.1833L439.7812,14.1833L439.7812,12.906L444.8203,12.906Q445.002,11.7165,445.0371,11.0896L446.5488,11.1072ZM458.0098,3.85912L463.9629,3.85912L463.9629,8.406L458.0098,8.406L458.0098,3.85912ZM465.6738,3.85912L471.668,3.85912L471.668,8.406L465.6738,8.406L465.6738,3.85912ZM459.3047,7.2224L462.6855,7.2224L462.6855,5.031L459.3047,5.031L459.3047,7.2224ZM466.9512,7.2224L470.4082,7.2224L470.4082,5.031L466.9512,5.031L466.9512,7.2224ZM472.7871,14.2888Q472.0488,14.1599,471.5625,14.0544L471.5625,19.281L470.28520000000003,19.281L470.28520000000003,18.531L466.9336,18.531L466.9336,19.281L465.6562,19.281L465.6562,13.656L470.0684,13.656Q467.168,12.7771,465.4043,11.1482L464.1797,11.1482Q463.53520000000003,11.8923,462.4277,12.4841Q461.3203,13.0759,459.4277,13.656L463.9629,13.656L463.9629,19.281L462.6855,19.281L462.6855,18.531L459.4453,18.531L459.4453,19.281L458.1504,19.281L458.1504,14.0369L456.9434,14.3591L456.5508,13.0759Q458.7246,12.6306,460.0723,12.1736Q461.4258,11.7107,462.2168,11.1482L457.125,11.1482L457.125,9.906L463.3711,9.906Q463.6582,9.45483,463.91020000000003,8.74584L465.4219,8.92162Q465.1875,9.48412,464.9707,9.906L468.6797,9.906Q468.4453,9.57201,467.9941,9.00365L468.9492,8.51733Q469.5469,9.22631,470.0508,9.906L472.5703,9.906L472.5703,11.1482L467.3145,11.1482Q468.2695,11.8396,469.6816,12.3025Q471.0938,12.7595,473.1797,13.0408L472.7871,14.2888ZM462.6855,17.3943L462.6855,14.8455L459.4453,14.8455L459.4453,17.3943L462.6855,17.3943ZM466.9336,14.8455L466.9336,17.3943L470.28520000000003,17.3943L470.28520000000003,14.8455L466.9336,14.8455Z" fill="#DDDDDD" fill-opacity="1"/></g><g style="mix-blend-mode:passthrough"><path d="M6.9668,62.7341Q6.21094,62.1072,4.99219,61.158Q4.86914,61.0818,4.65234,60.9001L4.65234,67.281L3.22852,67.281L3.22852,60.0505Q2.2207,61.199,1.06641,62.2654L0.5625,60.824Q1.91602,59.5935,3.05859,58.1404Q4.20117,56.68139,4.93945,55.281L1.125,55.281L1.125,53.83959L3.5918,53.83959Q3.19922,52.47436,2.75977,51.24975L4.11328,50.88647Q4.45898,51.84155,5.02734,53.83959L6.57422,53.83959L6.57422,55.17553Q5.7832,56.73998,4.65234,58.263400000000004L4.65234,59.3357L5.19141,59.74Q6.09375,58.6501,6.97852,57.37865L7.98633,58.1755L7.6582,58.638400000000004Q6.63867,60.033,6.2168,60.531L7.74609,61.6912L6.9668,62.7341ZM16.6406,52.39819Q16.6582,54.99975,16.4883,58.8611Q16.3184,62.7224,16.0605,64.5857Q15.9141,65.6462,15.6094,66.2146Q15.3105,66.7888,14.6719,67.0349Q14.0332,67.281,12.8613,67.281Q12.0176,67.281,11.1387,67.1697L10.8457,65.7107Q11.8418,65.8747,12.5039,65.8747Q13.3652,65.8747,13.7695,65.74Q14.1738,65.5994,14.3613,65.2126Q14.5488,64.8259,14.6367,63.9822Q14.877,62.013400000000004,15,59.2068Q15.1289,56.39428,15.1113,53.87475L11.3145,53.87475Q11.2793,56.171620000000004,11.2266,56.79272Q11.0625,59.5525,10.6758,61.2107Q10.2949,62.863,9.44531,64.2458Q8.5957,65.6228,6.88477,67.4626L5.64258,66.8122Q7.31836,65.0662,8.12109,63.783Q8.92969,62.499700000000004,9.28125,60.9353Q9.63867,59.365,9.80273,56.62865L9.87305,53.87475L7.41797,53.87475L7.41797,52.39819L16.6406,52.39819ZM33.1641,57.70678Q31.6289,57.8767,29.0156,58.199L26.9473,58.4451L25.5879,58.615L25.2832,57.23803Q25.6406,57.0974,25.793,56.98022Q25.9512,56.857169999999996,26.1094,56.63451Q26.8184,55.66772,27.709,53.98608Q28.6055,52.29858,29.2207,50.81615L30.5449,51.30248Q29.9824,52.72045,29.1445,54.34936Q28.3066,55.97826,27.5625,57.03295L32.5547,56.411860000000004Q31.8867,54.97631,31.1602,53.64037L32.3262,53.06615Q32.8301,53.857169999999996,33.6504,55.46264Q34.4766,57.06225,35.0859,58.403999999999996L33.791,59.0662L33.1641,57.70678ZM24.5801,55.656Q24.3516,58.2986,24.0293,59.9978Q23.7129,61.6912,23.1738,63.0212Q24.5449,64.2048,25.4355,65.0251L24.4922,66.2087Q23.9355,65.658,22.5293,64.3279Q21.5742,65.7986,19.793,67.4802L18.8027,66.6951Q19.7578,65.7576,20.4141,64.9724Q21.0703,64.1872,21.5039,63.4138Q20.1211,62.2185,19.2715,61.591499999999996Q19.916,58.99,20.3848,55.656L18.75,55.656L18.75,54.27319L20.5664,54.27319Q20.7422,52.69115,20.8887,50.98022L22.2773,51.06811Q22.1543,52.69115,21.9551,54.27319L24.5801,54.27319L24.5801,55.656ZM20.7832,61.0173Q21.416,61.5037,22.1133,62.113Q22.5234,60.9587,22.752,59.5232Q22.9805,58.0876,23.2148,55.656L21.7559,55.656Q21.3809,58.4744,20.7832,61.0173ZM27.668,67.281L26.25,67.281L26.25,60.156L34.043,60.156L34.043,67.2986L32.625,67.2986L32.625,66.531L27.668,66.531L27.668,67.281ZM32.625,65.1833L32.625,61.4861L27.668,61.4861L27.668,65.1833L32.625,65.1833ZM49.6406,62.8982Q50.8828,64.7146,53.1152,66.4431L52.2188,67.6501Q50.127,65.9568,48.8496,64.1404Q47.6777,65.7927,45.5918,67.574L44.6895,66.3904Q46.8691,64.6267,48.041,62.822Q46.9043,60.6716,46.3125,57.6892Q46.1836,57.94115,46.0664,58.1345Q45.9492,58.322,45.8789,58.4451L44.8887,57.36108Q45.75,55.9724,46.418,54.32006Q47.0859,52.66772,47.4258,51.05053L48.7793,51.27905Q48.5273,52.48022,48.0059,53.9978L52.8281,53.9978L52.8281,55.4392L51.5684,55.4392Q51.334,57.89428,50.8828,59.6755Q50.4316,61.4568,49.6406,62.8982ZM36.6211,59.0837Q37.5586,58.5154,38.4141,57.73608Q39.2695,56.95678,39.9199,56.06615L37.0723,56.06615L37.0723,54.88256L40.6406,54.88256L40.6406,51.156L41.918,51.156L41.918,54.88256L45.0703,54.88256L45.0703,56.06615L41.918,56.06615L41.918,56.318110000000004L44.9414,58.3689L44.2734,59.365Q43.3242,58.574,41.918,57.630610000000004L41.918,59.4705L40.6406,59.4705L40.6406,56.857169999999996Q40.0078,57.78881,39.1523,58.6443Q38.2969,59.499700000000004,37.3242,60.156L36.6211,59.0837ZM38.9121,54.5603Q38.3848,53.67553,37.3066,52.16381L38.209,51.55444L39.8848,53.92748L38.9121,54.5603ZM45.3047,52.19897Q44.4902,53.388419999999996,43.5352,54.64819L42.6035,53.98022Q43.6113,52.65014,44.332,51.57201L45.3047,52.19897ZM47.2324,55.88451Q47.502,57.61889,47.8652,58.9607Q48.2344,60.3025,48.7969,61.4568Q49.3535,60.249700000000004,49.7051,58.7849Q50.0625,57.32006,50.2559,55.4392L47.4258,55.4392L47.2324,55.88451ZM44.1152,66.7302Q43.2891,66.2087,41.8828,65.488Q40.2246,66.6247,37.1074,67.615L36.5156,66.3904Q39.1289,65.6345,40.5527,64.8611Q39.2168,64.2458,38.584,63.9763L37.8633,63.653999999999996Q38.4551,62.699,38.8008,62.031L36.75,62.031L36.75,60.865L39.3984,60.865Q39.7734,59.9275,39.8848,59.605199999999996L41.2148,59.9685Q40.998,60.5779,40.875,60.865L44.6719,60.865L44.6719,61.978300000000004Q43.9688,63.5779,42.9609,64.5915Q43.793,64.9841,44.8008,65.5759L44.1152,66.7302ZM39.7031,63.167699999999996Q40.0254,63.3083,40.9629,63.6892L41.7715,64.029Q42.6738,63.2732,43.2129,62.031L40.3184,62.031Q39.9199,62.7869,39.7031,63.167699999999996ZM60.3398,59.4763L58.6172,60.2029L58.6172,65.3826Q58.6172,66.1619,58.4238,66.5603Q58.2363,66.9587,57.7852,67.1169Q57.3398,67.281,56.4961,67.281Q56.1328,67.281,55.377,67.2048L55.1426,65.8747Q55.7344,65.9802,56.3438,65.9802Q56.8652,65.9802,57.0527,65.7634Q57.2461,65.5408,57.2461,64.9314L57.2461,60.7244L55.0723,61.533L54.7676,60.1853Q55.8457,59.8337,57.2461,59.312200000000004L57.2461,55.76733L55.125,55.76733L55.125,54.46655L57.2461,54.46655L57.2461,51.27905L58.6172,51.27905L58.6172,54.46655L60.2344,54.46655L60.2344,55.76733L58.6172,55.76733L58.6172,58.7556Q59.6895,58.2517,60.0879,58.040800000000004L60.3398,59.4763ZM71.2441,59.781L67.3535,59.781L67.3535,61.5681L70.125,61.5681L70.125,67.281L68.7773,67.281L68.7773,66.5955L64.3477,66.5955L64.3477,67.2986L63,67.2986L63,61.5681L66,61.5681L66,59.781L62.2617,59.781Q62.1738,62.2712,61.7871,63.9294Q61.4062,65.5876,60.5508,67.281L59.2441,66.6482Q60.0117,65.2537,60.4043,64.0232Q60.8027,62.7869,60.9609,61.2341Q61.125,59.6814,61.125,57.24975L61.125,52.16381L70.4355,52.16381L70.4355,56.52319L67.3535,56.52319L67.3535,58.5564L71.2441,58.5564L71.2441,59.781ZM69.0469,55.281L69.0469,53.406L62.4902,53.406L62.4902,55.281L69.0469,55.281ZM62.4902,58.5564L66,58.5564L66,56.52319L62.4902,56.52319L62.4902,57.390370000000004L62.4902,58.5564ZM64.3477,65.406L68.7773,65.406L68.7773,62.792699999999996L64.3477,62.792699999999996L64.3477,65.406ZM88.7871,62.9099Q88.752,63.4724,88.6816,64.1228Q88.6113,64.7673,88.5352,65.2537Q88.4121,66.0681,88.1602,66.4548Q87.9082,66.8415,87.3809,67.0056Q86.8535,67.1697,85.7871,67.24Q83.959,67.3689,81.6094,67.3689Q79.4004,67.3689,77.6602,67.24Q76.6523,67.1638,76.0957,66.9646Q75.5391,66.7654,75.2695,66.2673Q75,65.7693,75,64.8318L75,57.161860000000004Q74.4609,57.78881,73.9746,58.2751L72.8555,57.1267Q74.1738,55.88451,75.2168,54.3142Q76.2598,52.73803,76.834,51.12084L78.375,51.607169999999996Q78.0996,52.29272,77.7305,53.031L87.3105,53.031Q87.3281,53.58178,87.3281,54.73608Q87.3281,56.48803,87.2578,58.281Q87.1875,60.074,87.0762,61.3279Q86.9883,62.2888,86.707,62.8103Q86.4316,63.3318,85.8984,63.5486Q85.3711,63.7595,84.4922,63.7595Q84.2051,63.7595,83.1973,63.6833Q83.0332,63.6833,82.6055,63.6482L82.4238,62.2595Q83.6836,62.3708,84.2344,62.388400000000004Q84.791,62.4236,85.0605,62.2947Q85.3359,62.1599,85.4473,61.8435Q85.5645,61.527100000000004,85.6406,60.853300000000004Q85.8926,58.105199999999996,85.8926,55.56225Q85.8926,54.77123,85.875,54.40209L77.0156,54.40209Q76.3477,55.47436,75.6152,56.406L82.875,56.406L82.875,61.8962L76.3887,61.8962L76.3887,64.4333Q76.3887,65.0251,76.5293,65.3064Q76.6758,65.5818,76.9922,65.6872Q77.3145,65.7927,78.0176,65.8513Q79.6699,65.9802,81.8027,65.9802Q83.959,65.9802,85.5938,65.8455Q86.2559,65.7869,86.5488,65.6697Q86.8477,65.5525,86.9824,65.2771Q87.1172,64.9958,87.1875,64.3865Q87.2402,63.988,87.2812,63.4197Q87.3281,62.8455,87.3281,62.4939L88.7871,62.9099ZM81.4863,60.531L81.4863,57.81225L76.3887,57.81225L76.3887,60.531L81.4863,60.531ZM101.971,59.4939Q101.971,56.950919999999996,102.814,54.80053Q103.664,52.65014,105.141,51.156L106.594,51.156Q105.141,52.919669999999996,104.355,54.96459Q103.57,57.00951,103.57,59.4939Q103.57,61.9958,104.355,64.0466Q105.141,66.0974,106.594,67.8259L105.141,67.8259Q103.664,66.3318,102.814,64.1931Q101.971,62.0486,101.971,59.4939ZM113.033,51.00365Q113.033,52.37475,112.98,54.156L116.73,54.156Q116.73,56.48803,116.619,59.728300000000004Q116.514,62.9685,116.355,64.8025Q116.268,65.8103,116.016,66.3318Q115.77,66.8591,115.248,67.0701Q114.727,67.281,113.748,67.281Q113.115,67.281,112.471,67.1697L112.154,65.6521Q112.98,65.8572,113.525,65.8572Q114.076,65.8572,114.34,65.74Q114.604,65.6169,114.732,65.2595Q114.867,64.8962,114.938,64.1228Q115.277,60.2087,115.277,55.5974L112.945,55.5974Q112.816,58.7439,112.553,60.6775Q112.295,62.605199999999996,111.727,64.2048Q111.164,65.8044,110.062,67.6794L108.75,66.9587Q109.811,65.1599,110.367,63.6716Q110.93,62.1833,111.182,60.3611Q111.434,58.5388,111.539,55.5974L108.967,55.5974L108.967,54.156L111.568,54.156L111.609,51.00365L113.033,51.00365ZM118.5,67.281L118.5,53.16576L124.383,53.16576L124.383,67.281L123,67.281L123,65.781L119.918,65.781L119.918,67.281L118.5,67.281ZM119.918,54.607169999999996L119.918,64.3396L123,64.3396L123,54.607169999999996L119.918,54.607169999999996ZM129.316,53.781L129.316,55.66772L127.875,55.66772L127.875,52.4685L134.379,52.4685Q134.045,51.56615,133.881,51.22631L135.193,50.82787Q135.592,51.81811,135.844,52.4685L142.459,52.4685L142.459,55.65014L141,55.65014L141,53.781L129.316,53.781ZM135.492,56.83959Q134.18,55.5974,133.23,54.82397L133.992,53.88647Q135.088,54.69506,136.336,55.84936L135.492,56.83959ZM133.324,61.7732Q132.48,61.7205,132.088,61.533Q131.701,61.339600000000004,131.561,60.8357Q129.539,61.5974,127.354,62.2244L126.832,60.947Q129.463,60.2673,131.432,59.5232L131.432,55.56225L132.75,55.56225L132.75,59.0017Q134.678,58.152100000000004,136.213,57.14428Q137.748,56.13647,139.096,54.82397L139.986,55.77319Q138.521,57.17358,136.828,58.2693Q135.141,59.3591,133.031,60.2615Q133.248,60.437200000000004,133.898,60.4958Q134.947,60.5662,135.475,60.5662Q135.979,60.5662,137.027,60.4958Q137.59,60.437200000000004,137.865,60.3435Q138.141,60.2439,138.246,59.9919Q138.357,59.74,138.393,59.2185Q138.428,58.714600000000004,138.428,58.152100000000004L139.781,58.480199999999996Q139.729,59.3943,139.652,59.915800000000004Q139.547,60.6716,139.354,61.0349Q139.166,61.3923,138.762,61.5564Q138.357,61.7205,137.508,61.7732Q136.137,61.8435,135.416,61.8435Q134.736,61.8435,133.324,61.7732ZM130.881,56.23022Q130.559,56.98608,129.92,58.0232Q129.281,59.0544,128.707,59.792699999999996L127.623,58.966499999999996Q128.232,58.2458,128.818,57.32006Q129.404,56.388419999999996,129.727,55.5974L130.881,56.23022ZM140.695,56.4353Q141.17,56.9978,141.891,57.9353Q142.617,58.8728,143.127,59.5935L142.078,60.402100000000004Q141.674,59.792699999999996,140.959,58.825900000000004Q140.25,57.859120000000004,139.711,57.19701L140.695,56.4353ZM135.75,65.406L139.857,65.406L139.857,62.5994L141.287,62.5994L141.287,67.281L139.857,67.281L139.857,66.7185L128.959,66.7185L128.959,62.8513L130.33,62.8513L130.33,65.406L134.361,65.406L134.361,62.417699999999996L135.75,62.417699999999996L135.75,65.406ZM158.625,57.36694L153.75,57.36694L153.75,63.3728L152.473,63.3728L152.473,56.031L155.25,56.031L155.25,50.84545L156.545,50.84545L156.545,52.69701L160.676,52.69701L160.676,54.06225L156.545,54.06225L156.545,56.031L159.92,56.031L159.92,63.3728L158.625,63.3728L158.625,57.36694ZM151.242,62.7986Q151.242,63.5369,151.008,63.824Q150.773,64.1111,150.188,64.1111Q149.701,64.1111,149.238,64.0583L148.986,62.728300000000004Q149.285,62.781,149.59,62.781Q149.836,62.781,149.918,62.6462Q150,62.5056,150,62.0779L150,55.52123L148.916,55.52123L148.916,67.281L147.691,67.281L147.691,55.52123L146.631,55.52123L146.631,64.1111L145.365,64.1111L145.365,54.156L147.691,54.156L147.691,50.86303L148.951,50.86303L148.951,54.156L151.242,54.156L151.242,62.7986ZM160.213,67.2986Q159.521,66.6482,158.314,65.6404Q157.113,64.6267,156.152,63.8767Q155.619,64.8904,154.5,65.7224Q153.381,66.5486,151.395,67.3865L150.738,66.2029Q152.777,65.365,153.779,64.615Q154.787,63.8591,155.127,62.9685Q155.467,62.072,155.502,60.5837L155.502,58.24L156.756,58.24L156.756,60.8943Q156.721,61.978300000000004,156.562,62.7107Q157.652,63.4841,158.994,64.5271Q160.342,65.5642,161.109,66.2205L160.213,67.2986ZM168.029,59.4939Q168.029,62.031,167.18,64.1814Q166.336,66.3318,164.859,67.8259L163.406,67.8259Q164.859,66.0622,165.645,64.0232Q166.43,61.978300000000004,166.43,59.4939Q166.43,56.99194,165.645,54.94115Q164.859,52.88451,163.406,51.156L164.859,51.156Q166.336,52.65014,167.18,54.794669999999996Q168.029,56.93334,168.029,59.4939Z" fill="#DDDDDD" fill-opacity="1"/></g><g style="mix-blend-mode:passthrough"><g><g style="mix-blend-mode:passthrough"><path d="M9.375,83.4294Q9.375,86.8396,8.25586,88.5915Q7.14258,90.3435,5.05664,90.3435Q2.98242,90.3435,1.86328,88.5857Q0.75,86.822,0.75,83.4294Q0.75,80.01342,1.86328,78.24389Q2.98242,76.4685,5.05664,76.4685Q7.14258,76.4685,8.25586,78.23217Q9.375,79.99584,9.375,83.4294ZM2.36719,83.4353Q2.36719,86.1833,3.01758,87.531Q3.67383,88.8728,5.05664,88.8728Q6.43359,88.8728,7.0957,87.5369Q7.75781,86.2009,7.75781,83.4353Q7.75781,80.65209,7.0957,79.29858Q6.43359,77.9392,5.05664,77.9392Q3.67383,77.9392,3.01758,79.29858Q2.36719,80.65209,2.36719,83.4353ZM11.25,85.281L11.25,83.8103L17.625,83.8103L17.625,85.281L11.25,85.281ZM30.1875,90.156L28.2539,90.156L24.4805,84.531L24.3164,84.531L21.8672,84.531L21.8672,90.156L20.25,90.156L20.25,76.656L24.2754,76.656Q25.6172,76.656,26.6602,77.14819Q27.709,77.64037,28.2891,78.54272Q28.875,79.4392,28.875,80.60522Q28.875,81.91772,28.1543,82.8787Q27.4336,83.8337,26.1738,84.2497L30.1875,90.156ZM21.8672,78.1267L21.8672,83.0603L24.123,83.0603Q25.6523,83.0603,26.4551,82.3923Q27.2578,81.7185,27.2578,80.61108Q27.2578,79.50951,26.4551,78.81811Q25.6523,78.1267,24.123,78.1267L21.8672,78.1267ZM30.75,76.656L40.5,76.656L40.5,78.1267L36.4922,78.1267L36.4922,90.156L34.875,90.156L34.875,78.1267L30.75,78.1267L30.75,76.656ZM41.25,76.656L51,76.656L51,78.1267L46.9922,78.1267L46.9922,90.156L45.375,90.156L45.375,78.1267L41.25,78.1267L41.25,76.656ZM63.3457,83.4939Q63.3457,80.95092,64.1895,78.80053Q65.0391,76.65014,66.5156,75.156L67.9688,75.156Q66.5156,76.91967,65.7305,78.96459Q64.9453,81.00951,64.9453,83.4939Q64.9453,85.9958,65.7305,88.0466Q66.5156,90.0974,67.9688,91.8259L66.5156,91.8259Q65.0391,90.3318,64.1895,88.1931Q63.3457,86.0486,63.3457,83.4939ZM73.7285,79.18725L75.8203,77.75756L76.4824,78.91772L74.2324,80.04272L76.4824,81.14428L75.8203,82.3044L73.7285,80.89233L73.9102,83.406L72.5801,83.406L72.7617,80.89233L70.6699,82.3044L70.0078,81.14428L72.2578,80.04272L70.0078,78.91772L70.6699,77.75756L72.7617,79.16967L72.5801,76.656L73.9102,76.656L73.7285,79.18725ZM83.2793,83.4939Q83.2793,86.031,82.4297,88.1814Q81.5859,90.3318,80.1094,91.8259L78.6562,91.8259Q80.1094,90.0622,80.8945,88.0232Q81.6797,85.9783,81.6797,83.4939Q81.6797,80.99194,80.8945,78.94115Q80.1094,76.88451,78.6562,75.156L80.1094,75.156Q81.5859,76.65014,82.4297,78.79467Q83.2793,80.93334,83.2793,83.4939Z" fill="#DDDDDD" fill-opacity="1"/></g></g></g><g style="mix-blend-mode:passthrough"><path d="M417,83.75L409,83.75L409,82.25L417,82.25M405,83.75L397,83.75L397,82.25L405,82.25M393,83.75L385,83.75L385,82.25L393,82.25M381,83.75L373,83.75L373,82.25L381,82.25M369,83.75L361,83.75L361,82.25L369,82.25M357,83.75L349,83.75L349,82.25L357,82.25M345,83.75L337,83.75L337,82.25L345,82.25M333,83.75L325,83.75L325,82.25L333,82.25M321,83.75L313,83.75L313,82.25L321,82.25M309,83.75L301,83.75L301,82.25L309,82.25M296.46967,82.46967L301.24264,77.69669999999999Q301.29487,77.64447,301.35629,77.60343Q301.41771,77.56239,301.48596,77.53412Q301.5542,77.50585,301.62665,77.49144Q301.6991,77.47703,301.77297,77.47703Q301.84684,77.47703,301.91929,77.49144Q301.99174,77.50585,302.05998,77.53412Q302.12823,77.56239,302.18965000000003,77.60343Q302.25107,77.64447,302.3033,77.69669999999999Q302.35553,77.74893,302.39657,77.81035Q302.43761,77.87177,302.46588,77.94002Q302.49415,78.00826,302.50856,78.08071Q302.52297,78.15316,302.52297,78.22703Q302.52297,78.3009,302.50856,78.37335Q302.49415,78.4458,302.46588,78.51404Q302.43761,78.58229,302.39657,78.64371Q302.35553,78.70513,302.3033,78.75736L297.53033,83.53033Q297.478097,83.582563,297.416678,83.623602Q297.355258,83.664641,297.287012,83.69291Q297.218767,83.721178,297.146318,83.735589Q297.0738684,83.75,296.999999877795,83.75Q296.9261313,83.75,296.853682,83.735589Q296.781233,83.721178,296.712987,83.692909Q296.644742,83.664641,296.583322,83.623602Q296.521903,83.582563,296.46967,83.53033Q296.417437,83.478097,296.376398,83.416678Q296.335359,83.355258,296.30709,83.287012Q296.278822,83.218767,296.264411,83.146318Q296.25,83.0738684,296.25,82.999999877795Q296.25,82.9261313,296.264411,82.853682Q296.278822,82.781233,296.307091,82.712987Q296.335359,82.644742,296.376398,82.583322Q296.417437,82.521903,296.46967,82.46967ZM297.53033,82.46967L302.3033,87.24264Q302.35553,87.29487,302.39657,87.35629Q302.43761,87.41771,302.46588,87.48596Q302.49415,87.5542,302.50856,87.62665Q302.52297,87.6991,302.52297,87.77297Q302.52297,87.84684,302.50856,87.91929Q302.49415,87.99174,302.46588,88.05998Q302.43761,88.12823,302.39657,88.18965Q302.35553,88.25107,302.3033,88.30330000000001Q302.25107,88.35553,302.18965000000003,88.39657Q302.12823,88.43761,302.05998,88.46588Q301.99174,88.49415,301.91929,88.50856Q301.84684,88.52297,301.77297,88.52297Q301.6991,88.52297,301.62665,88.50856Q301.5542,88.49415,301.48596,88.46588Q301.41771,88.43761,301.35629,88.39657Q301.29487,88.35553,301.24264,88.30330000000001L296.46967,83.53033Q296.417437,83.478097,296.376398,83.416678Q296.335359,83.355258,296.30709,83.287013Q296.278822,83.218767,296.264411,83.146318Q296.25,83.0738687,296.25,83.000000122205Q296.25,82.9261316,296.264411,82.853682Q296.278822,82.781233,296.30709,82.712988Q296.335359,82.644742,296.376398,82.583322Q296.417437,82.521903,296.46967,82.46967Q296.521903,82.417437,296.583322,82.376398Q296.644742,82.335359,296.712987,82.30709Q296.781233,82.278822,296.853682,82.264411Q296.9261313,82.25,296.999999877795,82.25Q297.0738684,82.25,297.146318,82.264411Q297.218767,82.278822,297.287012,82.30709Q297.355258,82.335359,297.416678,82.376398Q297.478097,82.417437,297.53033,82.46967Z" transform="matrix(-1,0,0,-1,594,166)" fill="#DDDDDD" fill-opacity="1"/></g><g style="mix-blend-mode:passthrough"><path d="M311.9668,114.7341Q311.21094,114.1072,309.99219,113.158Q309.86914,113.0818,309.65234,112.9001L309.65234,119.281L308.22852,119.281L308.22852,112.0505Q307.2207,113.199,306.06641,114.2654L305.5625,112.824Q306.91602,111.5935,308.05859,110.1404Q309.20117,108.68139,309.93945,107.281L306.125,107.281L306.125,105.83959L308.5918,105.83959Q308.19922,104.47436,307.75977,103.24975L309.11328,102.88647Q309.45898,103.84155,310.02734,105.83959L311.57422,105.83959L311.57422,107.17553Q310.7832,108.73998,309.65234,110.2634L309.65234,111.3357L310.19141,111.74Q311.09375,110.6501,311.97852,109.37865L312.98633,110.1755L312.6582,110.6384Q311.63867,112.033,311.2168,112.531L312.74609,113.6912L311.9668,114.7341ZM321.6406,104.39819Q321.6582,106.99975,321.4883,110.8611Q321.3184,114.7224,321.0605,116.5857Q320.9141,117.6462,320.6094,118.2146Q320.3105,118.7888,319.6719,119.0349Q319.0332,119.281,317.8613,119.281Q317.0176,119.281,316.1387,119.1697L315.8457,117.7107Q316.8418,117.8747,317.5039,117.8747Q318.3652,117.8747,318.7695,117.74Q319.1738,117.5994,319.3613,117.2126Q319.5488,116.8259,319.6367,115.9822Q319.877,114.0134,320,111.2068Q320.1289,108.39428,320.1113,105.87475L316.3145,105.87475Q316.2793,108.17162,316.2266,108.79272Q316.0625,111.5525,315.6758,113.2107Q315.2949,114.863,314.44531,116.2458Q313.5957,117.6228,311.88477,119.4626L310.64258,118.8122Q312.31836,117.0662,313.12109,115.783Q313.92969,114.4997,314.28125,112.9353Q314.63867,111.365,314.80273,108.62865L314.87305,105.87475L312.41797,105.87475L312.41797,104.39819L321.6406,104.39819ZM338.1641,109.70678Q336.6289,109.8767,334.0156,110.199L331.9473,110.4451L330.5879,110.615L330.2832,109.23803Q330.6406,109.0974,330.793,108.98022Q330.9512,108.85717,331.1094,108.63451Q331.8184,107.66772,332.709,105.98608Q333.6055,104.29858,334.2207,102.81615L335.5449,103.30248Q334.9824,104.72045,334.1445,106.34936Q333.3066,107.97826,332.5625,109.03295L337.5547,108.41186Q336.8867,106.97631,336.1602,105.64037L337.3262,105.06615Q337.8301,105.85717,338.6504,107.46264Q339.4766,109.06225,340.0859,110.404L338.791,111.0662L338.1641,109.70678ZM329.5801,107.656Q329.3516,110.2986,329.0293,111.9978Q328.7129,113.6912,328.1738,115.0212Q329.5449,116.2048,330.4355,117.0251L329.4922,118.2087Q328.9355,117.658,327.5293,116.3279Q326.5742,117.7986,324.793,119.4802L323.8027,118.6951Q324.7578,117.7576,325.4141,116.9724Q326.0703,116.1872,326.5039,115.4138Q325.1211,114.2185,324.2715,113.5915Q324.916,110.99,325.3848,107.656L323.75,107.656L323.75,106.27319L325.5664,106.27319Q325.7422,104.69115,325.8887,102.98022L327.2773,103.06811Q327.1543,104.69115,326.9551,106.27319L329.5801,106.27319L329.5801,107.656ZM325.7832,113.0173Q326.416,113.5037,327.1133,114.113Q327.5234,112.9587,327.752,111.5232Q327.9805,110.0876,328.2148,107.656L326.7559,107.656Q326.3809,110.4744,325.7832,113.0173ZM332.668,119.281L331.25,119.281L331.25,112.156L339.043,112.156L339.043,119.2986L337.625,119.2986L337.625,118.531L332.668,118.531L332.668,119.281ZM337.625,117.1833L337.625,113.4861L332.668,113.4861L332.668,117.1833L337.625,117.1833ZM354.6406,114.8982Q355.8828,116.7146,358.1152,118.4431L357.2188,119.6501Q355.127,117.9568,353.8496,116.1404Q352.6777,117.7927,350.5918,119.574L349.6895,118.3904Q351.8691,116.6267,353.041,114.822Q351.9043,112.6716,351.3125,109.6892Q351.1836,109.94115,351.0664,110.1345Q350.9492,110.322,350.8789,110.4451L349.8887,109.36108Q350.75,107.9724,351.418,106.32006Q352.0859,104.66772,352.4258,103.05053L353.7793,103.27905Q353.52729999999997,104.48022,353.0059,105.9978L357.8281,105.9978L357.8281,107.4392L356.5684,107.4392Q356.334,109.89428,355.8828,111.6755Q355.4316,113.4568,354.6406,114.8982ZM341.6211,111.0837Q342.5586,110.5154,343.4141,109.73608Q344.2695,108.95678,344.9199,108.06615L342.0723,108.06615L342.0723,106.88256L345.6406,106.88256L345.6406,103.156L346.918,103.156L346.918,106.88256L350.0703,106.88256L350.0703,108.06615L346.918,108.06615L346.918,108.31811L349.9414,110.3689L349.2734,111.365Q348.3242,110.574,346.918,109.63061L346.918,111.4705L345.6406,111.4705L345.6406,108.85717Q345.0078,109.78881,344.15229999999997,110.6443Q343.2969,111.4997,342.3242,112.156L341.6211,111.0837ZM343.9121,106.5603Q343.3848,105.67553,342.3066,104.16381L343.209,103.55444L344.8848,105.92748L343.9121,106.5603ZM350.3047,104.19897Q349.4902,105.38842,348.53520000000003,106.64819L347.6035,105.98022Q348.6113,104.65014,349.332,103.57201L350.3047,104.19897ZM352.2324,107.88451Q352.502,109.61889,352.8652,110.9607Q353.2344,112.3025,353.7969,113.4568Q354.3535,112.2497,354.7051,110.7849Q355.0625,109.32006,355.2559,107.4392L352.4258,107.4392L352.2324,107.88451ZM349.1152,118.7302Q348.2891,118.2087,346.8828,117.488Q345.2246,118.6247,342.1074,119.615L341.5156,118.3904Q344.1289,117.6345,345.5527,116.8611Q344.2168,116.2458,343.584,115.9763L342.8633,115.654Q343.4551,114.699,343.8008,114.031L341.75,114.031L341.75,112.865L344.3984,112.865Q344.7734,111.9275,344.8848,111.6052L346.21479999999997,111.9685Q345.998,112.5779,345.875,112.865L349.6719,112.865L349.6719,113.9783Q348.9688,115.5779,347.9609,116.5915Q348.793,116.9841,349.8008,117.5759L349.1152,118.7302ZM344.7031,115.1677Q345.0254,115.3083,345.9629,115.6892L346.7715,116.029Q347.6738,115.2732,348.2129,114.031L345.3184,114.031Q344.9199,114.7869,344.7031,115.1677ZM365.33979999999997,111.4763L363.6172,112.2029L363.6172,117.3826Q363.6172,118.1619,363.4238,118.5603Q363.2363,118.9587,362.78520000000003,119.1169Q362.33979999999997,119.281,361.4961,119.281Q361.1328,119.281,360.377,119.2048L360.1426,117.8747Q360.7344,117.9802,361.3438,117.9802Q361.8652,117.9802,362.0527,117.7634Q362.2461,117.5408,362.2461,116.9314L362.2461,112.7244L360.0723,113.533L359.7676,112.1853Q360.8457,111.8337,362.2461,111.3122L362.2461,107.76733L360.125,107.76733L360.125,106.46655L362.2461,106.46655L362.2461,103.27905L363.6172,103.27905L363.6172,106.46655L365.2344,106.46655L365.2344,107.76733L363.6172,107.76733L363.6172,110.7556Q364.6895,110.2517,365.0879,110.0408L365.33979999999997,111.4763ZM376.2441,111.781L372.3535,111.781L372.3535,113.5681L375.125,113.5681L375.125,119.281L373.77729999999997,119.281L373.77729999999997,118.5955L369.34770000000003,118.5955L369.34770000000003,119.2986L368,119.2986L368,113.5681L371,113.5681L371,111.781L367.2617,111.781Q367.1738,114.2712,366.7871,115.9294Q366.4062,117.5876,365.5508,119.281L364.2441,118.6482Q365.0117,117.2537,365.4043,116.0232Q365.8027,114.7869,365.9609,113.2341Q366.125,111.6814,366.125,109.24975L366.125,104.16381L375.4355,104.16381L375.4355,108.52319L372.3535,108.52319L372.3535,110.5564L376.2441,110.5564L376.2441,111.781ZM374.0469,107.281L374.0469,105.406L367.4902,105.406L367.4902,107.281L374.0469,107.281ZM367.4902,110.5564L371,110.5564L371,108.52319L367.4902,108.52319L367.4902,109.39037L367.4902,110.5564ZM369.34770000000003,117.406L373.77729999999997,117.406L373.77729999999997,114.7927L369.34770000000003,114.7927L369.34770000000003,117.406ZM393.7871,114.9099Q393.752,115.4724,393.6816,116.1228Q393.6113,116.7673,393.53520000000003,117.2537Q393.4121,118.0681,393.16020000000003,118.4548Q392.90819999999997,118.8415,392.3809,119.0056Q391.8535,119.1697,390.7871,119.24Q388.959,119.3689,386.6094,119.3689Q384.4004,119.3689,382.66020000000003,119.24Q381.65229999999997,119.1638,381.09569999999997,118.9646Q380.5391,118.7654,380.2695,118.2673Q380,117.7693,380,116.8318L380,109.16186Q379.4609,109.78881,378.9746,110.2751L377.8555,109.1267Q379.1738,107.88451,380.21680000000003,106.3142Q381.2598,104.73803,381.834,103.12084L383.375,103.60717Q383.0996,104.29272,382.7305,105.031L392.3105,105.031Q392.3281,105.58178,392.3281,106.73608Q392.3281,108.48803,392.2578,110.281Q392.1875,112.074,392.0762,113.3279Q391.9883,114.2888,391.707,114.8103Q391.4316,115.3318,390.8984,115.5486Q390.3711,115.7595,389.4922,115.7595Q389.2051,115.7595,388.1973,115.6833Q388.03319999999997,115.6833,387.6055,115.6482L387.4238,114.2595Q388.6836,114.3708,389.2344,114.3884Q389.791,114.4236,390.0605,114.2947Q390.3359,114.1599,390.4473,113.8435Q390.5645,113.5271,390.6406,112.8533Q390.8926,110.1052,390.8926,107.56225Q390.8926,106.77123,390.875,106.40209L382.0156,106.40209Q381.34770000000003,107.47436,380.6152,108.406L387.875,108.406L387.875,113.8962L381.3887,113.8962L381.3887,116.4333Q381.3887,117.0251,381.52930000000003,117.3064Q381.6758,117.5818,381.9922,117.6872Q382.3145,117.7927,383.0176,117.8513Q384.6699,117.9802,386.8027,117.9802Q388.959,117.9802,390.5938,117.8455Q391.2559,117.7869,391.5488,117.6697Q391.84770000000003,117.5525,391.9824,117.2771Q392.1172,116.9958,392.1875,116.3865Q392.2402,115.988,392.2812,115.4197Q392.3281,114.8455,392.3281,114.4939L393.7871,114.9099ZM386.4863,112.531L386.4863,109.81225L381.3887,109.81225L381.3887,112.531L386.4863,112.531ZM406.971,111.4939Q406.971,108.95092,407.81399999999996,106.80053Q408.664,104.65014,410.141,103.156L411.594,103.156Q410.141,104.91967,409.355,106.96459Q408.57,109.00951,408.57,111.4939Q408.57,113.9958,409.355,116.0466Q410.141,118.0974,411.594,119.8259L410.141,119.8259Q408.664,118.3318,407.81399999999996,116.1931Q406.971,114.0486,406.971,111.4939ZM418.033,103.00365Q418.033,104.37475,417.98,106.156L421.73,106.156Q421.73,108.48803,421.619,111.7283Q421.514,114.9685,421.355,116.8025Q421.26800000000003,117.8103,421.016,118.3318Q420.77,118.8591,420.248,119.0701Q419.727,119.281,418.748,119.281Q418.115,119.281,417.471,119.1697L417.154,117.6521Q417.98,117.8572,418.525,117.8572Q419.076,117.8572,419.34000000000003,117.74Q419.604,117.6169,419.73199999999997,117.2595Q419.867,116.8962,419.938,116.1228Q420.277,112.2087,420.277,107.5974L417.945,107.5974Q417.81600000000003,110.7439,417.553,112.6775Q417.295,114.6052,416.727,116.2048Q416.164,117.8044,415.062,119.6794L413.75,118.9587Q414.81100000000004,117.1599,415.367,115.6716Q415.93,114.1833,416.182,112.3611Q416.43399999999997,110.5388,416.539,107.5974L413.967,107.5974L413.967,106.156L416.568,106.156L416.609,103.00365L418.033,103.00365ZM423.5,119.281L423.5,105.16576L429.383,105.16576L429.383,119.281L428,119.281L428,117.781L424.918,117.781L424.918,119.281L423.5,119.281ZM424.918,106.60717L424.918,116.3396L428,116.3396L428,106.60717L424.918,106.60717ZM434.31600000000003,105.781L434.31600000000003,107.66772L432.875,107.66772L432.875,104.4685L439.379,104.4685Q439.04499999999996,103.56615,438.881,103.22631L440.193,102.82787Q440.592,103.81811,440.844,104.4685L447.459,104.4685L447.459,107.65014L446,107.65014L446,105.781L434.31600000000003,105.781ZM440.49199999999996,108.83959Q439.18,107.5974,438.23,106.82397L438.99199999999996,105.88647Q440.08799999999997,106.69506,441.336,107.84936L440.49199999999996,108.83959ZM438.324,113.7732Q437.48,113.7205,437.08799999999997,113.533Q436.701,113.3396,436.56100000000004,112.8357Q434.539,113.5974,432.354,114.2244L431.832,112.947Q434.46299999999997,112.2673,436.432,111.5232L436.432,107.56225L437.75,107.56225L437.75,111.0017Q439.678,110.1521,441.21299999999997,109.14428Q442.748,108.13647,444.096,106.82397L444.986,107.77319Q443.52099999999996,109.17358,441.828,110.2693Q440.14099999999996,111.3591,438.031,112.2615Q438.248,112.4372,438.898,112.4958Q439.947,112.5662,440.475,112.5662Q440.97900000000004,112.5662,442.027,112.4958Q442.59000000000003,112.4372,442.865,112.3435Q443.14099999999996,112.2439,443.246,111.9919Q443.35699999999997,111.74,443.39300000000003,111.2185Q443.428,110.7146,443.428,110.1521L444.781,110.4802Q444.72900000000004,111.3943,444.652,111.9158Q444.547,112.6716,444.35400000000004,113.0349Q444.166,113.3923,443.762,113.5564Q443.35699999999997,113.7205,442.50800000000004,113.7732Q441.137,113.8435,440.416,113.8435Q439.736,113.8435,438.324,113.7732ZM435.881,108.23022Q435.55899999999997,108.98608,434.91999999999996,110.0232Q434.281,111.0544,433.707,111.7927L432.623,110.9665Q433.23199999999997,110.2458,433.818,109.32006Q434.404,108.38842,434.727,107.5974L435.881,108.23022ZM445.695,108.4353Q446.16999999999996,108.9978,446.89099999999996,109.9353Q447.61699999999996,110.8728,448.127,111.5935L447.078,112.4021Q446.674,111.7927,445.959,110.8259Q445.25,109.85912,444.711,109.19701L445.695,108.4353ZM440.75,117.406L444.85699999999997,117.406L444.85699999999997,114.5994L446.28700000000003,114.5994L446.28700000000003,119.281L444.85699999999997,119.281L444.85699999999997,118.7185L433.959,118.7185L433.959,114.8513L435.33000000000004,114.8513L435.33000000000004,117.406L439.361,117.406L439.361,114.4177L440.75,114.4177L440.75,117.406ZM463.625,109.36694L458.75,109.36694L458.75,115.3728L457.473,115.3728L457.473,108.031L460.25,108.031L460.25,102.84545L461.54499999999996,102.84545L461.54499999999996,104.69701L465.676,104.69701L465.676,106.06225L461.54499999999996,106.06225L461.54499999999996,108.031L464.91999999999996,108.031L464.91999999999996,115.3728L463.625,115.3728L463.625,109.36694ZM456.24199999999996,114.7986Q456.24199999999996,115.5369,456.00800000000004,115.824Q455.773,116.1111,455.188,116.1111Q454.701,116.1111,454.238,116.0583L453.986,114.7283Q454.28499999999997,114.781,454.59000000000003,114.781Q454.836,114.781,454.918,114.6462Q455,114.5056,455,114.0779L455,107.52123L453.916,107.52123L453.916,119.281L452.69100000000003,119.281L452.69100000000003,107.52123L451.631,107.52123L451.631,116.1111L450.365,116.1111L450.365,106.156L452.69100000000003,106.156L452.69100000000003,102.86303L453.951,102.86303L453.951,106.156L456.24199999999996,106.156L456.24199999999996,114.7986ZM465.21299999999997,119.2986Q464.52099999999996,118.6482,463.31399999999996,117.6404Q462.113,116.6267,461.152,115.8767Q460.619,116.8904,459.5,117.7224Q458.381,118.5486,456.395,119.3865L455.738,118.2029Q457.777,117.365,458.779,116.615Q459.78700000000003,115.8591,460.127,114.9685Q460.467,114.072,460.502,112.5837L460.502,110.24L461.756,110.24L461.756,112.8943Q461.721,113.9783,461.562,114.7107Q462.652,115.4841,463.994,116.5271Q465.342,117.5642,466.10900000000004,118.2205L465.21299999999997,119.2986ZM473.029,111.4939Q473.029,114.031,472.18,116.1814Q471.336,118.3318,469.85900000000004,119.8259L468.406,119.8259Q469.85900000000004,118.0622,470.645,116.0232Q471.43,113.9783,471.43,111.4939Q471.43,108.99194,470.645,106.94115Q469.85900000000004,104.88451,468.406,103.156L469.85900000000004,103.156Q471.336,104.65014,472.18,106.79467Q473.029,108.93334,473.029,111.4939Z" fill="#DDDDDD" fill-opacity="1"/></g><g style="mix-blend-mode:passthrough"><path d="M310.61328,135.5466Q310.32617,135.6931,309.00781,136.2205L309.00781,141.5349Q309.00781,142.5193,308.62695,142.9001Q308.25195,143.281,307.19141,143.281Q306.59961,143.281,305.966797,143.1638L305.697266,141.6872Q306.27148,142.0212,307.00977,142.0212Q307.42578,142.0212,307.54883,141.8865Q307.67773,141.7458,307.67773,141.3415L307.67773,136.7068L305.767578,137.3982L305.480469,135.9919L307.67773,135.2302L307.67773,131.88451L305.75,131.88451L305.75,130.48998L307.67773,130.48998L307.67773,127.15014L309.00781,127.15014L309.00781,130.48998L310.63086,130.48998L310.63086,131.88451L309.00781,131.88451L309.00781,134.7439Q309.98047,134.4099,310.61328,134.1462L310.61328,135.5466ZM312.72266,132.031L312.72266,133.91186Q312.72266,136.115,312.59375,137.6326Q312.4707,139.1501,312.08398,140.56810000000002Q311.69727,141.9802,310.94141,143.53300000000002L309.69336,142.6892Q310.43164,141.31810000000002,310.7832,140.0994Q311.14062,138.8806,311.25781,137.4861Q311.375,136.0857,311.375,133.82983L311.375,127.906L321.2129,127.906L321.2129,132.031L312.72266,132.031ZM319.8594,130.88256L319.8594,129.11303L312.72266,129.11303L312.72266,130.88256L319.8594,130.88256ZM317.9375,141.781L321.9512,141.781L321.9512,142.9119L312.70508,142.9119L312.70508,141.781L316.5664,141.781L316.5664,139.9177L313.50781,139.9177L313.50781,138.781L316.5664,138.781L316.5664,137.3572Q315.2363,137.4275,314.60352,137.404Q313.70703,137.4568,313.32617,137.5212L313.14453,136.5662Q313.57227,136.449,313.88867,136.1736Q314.65039,135.4236,315.5059,134.2927L313.27344,134.2927L313.27344,133.156L321.5,133.156L321.5,134.2927L317.0176,134.2927Q316.0566,135.5408,315.1602,136.4724L319.373,136.2205L319.0859,135.7341Q318.7812,135.1892,318.5645,134.8904L319.5898,134.2927Q319.9531,134.7966,320.4277,135.5935Q320.9082,136.3904,321.0312,136.6072L321.5879,137.5212L320.5449,138.0955L319.9648,137.2458L317.9375,137.2986L317.9375,138.781L321.1191,138.781L321.1191,139.9177L317.9375,139.9177L317.9375,141.781ZM340.25,136.906L340.25,138.2712L333.1074,138.2712L333.1074,141.0603Q333.1074,141.9216,332.9316,142.3962Q332.7617,142.8708,332.3457,143.0759Q331.9355,143.281,331.1797,143.281Q329.9551,143.281,328.7129,143.1697L328.4082,141.7341Q329.9199,141.9099,330.6758,141.9099Q331.1797,141.9099,331.3789,141.6052Q331.5781,141.3005,331.5781,140.56810000000002L331.5781,138.2712L324.125,138.2712L324.125,136.906L331.5781,136.906L331.5781,134.1872L325.3848,134.1872L325.3848,132.781L331.5781,132.781L331.5781,129.68139Q328.2441,129.89819,325.2031,130.00365L325.0801,128.63842Q327.7754,128.56811,331.8418,128.26928Q335.9082,127.97045,338.791,127.63061L339.0078,129.03686Q336.8867,129.28881,333.1074,129.57592L333.1074,132.781L338.9902,132.781L338.9902,134.1872L333.1074,134.1872L333.1074,136.906L340.25,136.906ZM354.6406,138.8982Q355.8828,140.7146,358.1152,142.44310000000002L357.2188,143.6501Q355.127,141.9568,353.8496,140.1404Q352.6777,141.7927,350.5918,143.574L349.6895,142.3904Q351.8691,140.6267,353.041,138.822Q351.9043,136.6716,351.3125,133.6892Q351.1836,133.94115,351.0664,134.1345Q350.9492,134.322,350.8789,134.4451L349.8887,133.36108Q350.75,131.9724,351.418,130.32006Q352.0859,128.66772,352.4258,127.05053L353.7793,127.27905Q353.52729999999997,128.48022,353.0059,129.9978L357.8281,129.9978L357.8281,131.4392L356.5684,131.4392Q356.334,133.89428,355.8828,135.6755Q355.4316,137.4568,354.6406,138.8982ZM341.6211,135.0837Q342.5586,134.5154,343.4141,133.73608Q344.2695,132.95678,344.9199,132.06615L342.0723,132.06615L342.0723,130.88256L345.6406,130.88256L345.6406,127.156L346.918,127.156L346.918,130.88256L350.0703,130.88256L350.0703,132.06615L346.918,132.06615L346.918,132.31811L349.9414,134.3689L349.2734,135.365Q348.3242,134.574,346.918,133.63061L346.918,135.4705L345.6406,135.4705L345.6406,132.85717Q345.0078,133.78881,344.15229999999997,134.6443Q343.2969,135.4997,342.3242,136.156L341.6211,135.0837ZM343.9121,130.5603Q343.3848,129.67553,342.3066,128.16381L343.209,127.55444L344.8848,129.92748L343.9121,130.5603ZM350.3047,128.19897Q349.4902,129.38842,348.53520000000003,130.64819L347.6035,129.98022Q348.6113,128.65014,349.332,127.57201L350.3047,128.19897ZM352.2324,131.88451Q352.502,133.61889,352.8652,134.9607Q353.2344,136.3025,353.7969,137.4568Q354.3535,136.2497,354.7051,134.7849Q355.0625,133.32006,355.2559,131.4392L352.4258,131.4392L352.2324,131.88451ZM349.1152,142.7302Q348.2891,142.2087,346.8828,141.488Q345.2246,142.6247,342.1074,143.615L341.5156,142.3904Q344.1289,141.6345,345.5527,140.8611Q344.2168,140.2458,343.584,139.9763L342.8633,139.654Q343.4551,138.699,343.8008,138.031L341.75,138.031L341.75,136.865L344.3984,136.865Q344.7734,135.9275,344.8848,135.6052L346.21479999999997,135.9685Q345.998,136.5779,345.875,136.865L349.6719,136.865L349.6719,137.9783Q348.9688,139.5779,347.9609,140.5915Q348.793,140.9841,349.8008,141.5759L349.1152,142.7302ZM344.7031,139.1677Q345.0254,139.3083,345.9629,139.6892L346.7715,140.029Q347.6738,139.2732,348.2129,138.031L345.3184,138.031Q344.9199,138.7869,344.7031,139.1677ZM365.33979999999997,135.4763L363.6172,136.2029L363.6172,141.3826Q363.6172,142.1619,363.4238,142.5603Q363.2363,142.9587,362.78520000000003,143.1169Q362.33979999999997,143.281,361.4961,143.281Q361.1328,143.281,360.377,143.2048L360.1426,141.8747Q360.7344,141.9802,361.3438,141.9802Q361.8652,141.9802,362.0527,141.7634Q362.2461,141.5408,362.2461,140.9314L362.2461,136.7244L360.0723,137.533L359.7676,136.1853Q360.8457,135.8337,362.2461,135.3122L362.2461,131.76733L360.125,131.76733L360.125,130.46655L362.2461,130.46655L362.2461,127.27905L363.6172,127.27905L363.6172,130.46655L365.2344,130.46655L365.2344,131.76733L363.6172,131.76733L363.6172,134.7556Q364.6895,134.2517,365.0879,134.0408L365.33979999999997,135.4763ZM376.2441,135.781L372.3535,135.781L372.3535,137.5681L375.125,137.5681L375.125,143.281L373.77729999999997,143.281L373.77729999999997,142.59550000000002L369.34770000000003,142.59550000000002L369.34770000000003,143.2986L368,143.2986L368,137.5681L371,137.5681L371,135.781L367.2617,135.781Q367.1738,138.2712,366.7871,139.9294Q366.4062,141.5876,365.5508,143.281L364.2441,142.6482Q365.0117,141.2537,365.4043,140.0232Q365.8027,138.7869,365.9609,137.2341Q366.125,135.6814,366.125,133.24975L366.125,128.16381L375.4355,128.16381L375.4355,132.52319L372.3535,132.52319L372.3535,134.5564L376.2441,134.5564L376.2441,135.781ZM374.0469,131.281L374.0469,129.406L367.4902,129.406L367.4902,131.281L374.0469,131.281ZM367.4902,134.5564L371,134.5564L371,132.52319L367.4902,132.52319L367.4902,133.39037L367.4902,134.5564ZM369.34770000000003,141.406L373.77729999999997,141.406L373.77729999999997,138.7927L369.34770000000003,138.7927L369.34770000000003,141.406ZM393.7871,138.9099Q393.752,139.4724,393.6816,140.1228Q393.6113,140.7673,393.53520000000003,141.2537Q393.4121,142.06810000000002,393.16020000000003,142.4548Q392.90819999999997,142.8415,392.3809,143.00560000000002Q391.8535,143.1697,390.7871,143.24Q388.959,143.3689,386.6094,143.3689Q384.4004,143.3689,382.66020000000003,143.24Q381.65229999999997,143.1638,381.09569999999997,142.9646Q380.5391,142.7654,380.2695,142.2673Q380,141.7693,380,140.8318L380,133.16186Q379.4609,133.78881,378.9746,134.2751L377.8555,133.1267Q379.1738,131.88451,380.21680000000003,130.3142Q381.2598,128.73803,381.834,127.12084L383.375,127.60717Q383.0996,128.29272,382.7305,129.031L392.3105,129.031Q392.3281,129.58178,392.3281,130.73608Q392.3281,132.48803,392.2578,134.281Q392.1875,136.074,392.0762,137.3279Q391.9883,138.2888,391.707,138.8103Q391.4316,139.3318,390.8984,139.5486Q390.3711,139.7595,389.4922,139.7595Q389.2051,139.7595,388.1973,139.6833Q388.03319999999997,139.6833,387.6055,139.6482L387.4238,138.2595Q388.6836,138.3708,389.2344,138.3884Q389.791,138.4236,390.0605,138.2947Q390.3359,138.1599,390.4473,137.8435Q390.5645,137.5271,390.6406,136.8533Q390.8926,134.1052,390.8926,131.56225Q390.8926,130.77123,390.875,130.40209L382.0156,130.40209Q381.34770000000003,131.47436,380.6152,132.406L387.875,132.406L387.875,137.8962L381.3887,137.8962L381.3887,140.4333Q381.3887,141.0251,381.52930000000003,141.3064Q381.6758,141.5818,381.9922,141.6872Q382.3145,141.7927,383.0176,141.8513Q384.6699,141.9802,386.8027,141.9802Q388.959,141.9802,390.5938,141.84550000000002Q391.2559,141.7869,391.5488,141.6697Q391.84770000000003,141.5525,391.9824,141.2771Q392.1172,140.9958,392.1875,140.3865Q392.2402,139.988,392.2812,139.4197Q392.3281,138.8455,392.3281,138.4939L393.7871,138.9099ZM386.4863,136.531L386.4863,133.81225L381.3887,133.81225L381.3887,136.531L386.4863,136.531ZM406.971,135.4939Q406.971,132.95092,407.81399999999996,130.80053Q408.664,128.65014,410.141,127.156L411.594,127.156Q410.141,128.91967,409.355,130.96459Q408.57,133.00951,408.57,135.4939Q408.57,137.9958,409.355,140.0466Q410.141,142.0974,411.594,143.8259L410.141,143.8259Q408.664,142.3318,407.81399999999996,140.19310000000002Q406.971,138.0486,406.971,135.4939ZM418.033,127.00365Q418.033,128.37475,417.98,130.156L421.73,130.156Q421.73,132.48803,421.619,135.7283Q421.514,138.9685,421.355,140.8025Q421.26800000000003,141.8103,421.016,142.3318Q420.77,142.8591,420.248,143.0701Q419.727,143.281,418.748,143.281Q418.115,143.281,417.471,143.1697L417.154,141.6521Q417.98,141.8572,418.525,141.8572Q419.076,141.8572,419.34000000000003,141.74Q419.604,141.6169,419.73199999999997,141.2595Q419.867,140.8962,419.938,140.1228Q420.277,136.2087,420.277,131.5974L417.945,131.5974Q417.81600000000003,134.7439,417.553,136.6775Q417.295,138.6052,416.727,140.2048Q416.164,141.8044,415.062,143.6794L413.75,142.9587Q414.81100000000004,141.1599,415.367,139.6716Q415.93,138.1833,416.182,136.3611Q416.43399999999997,134.5388,416.539,131.5974L413.967,131.5974L413.967,130.156L416.568,130.156L416.609,127.00365L418.033,127.00365ZM423.5,143.281L423.5,129.16576L429.383,129.16576L429.383,143.281L428,143.281L428,141.781L424.918,141.781L424.918,143.281L423.5,143.281ZM424.918,130.60717L424.918,140.3396L428,140.3396L428,130.60717L424.918,130.60717ZM434.31600000000003,129.781L434.31600000000003,131.66772L432.875,131.66772L432.875,128.4685L439.379,128.4685Q439.04499999999996,127.56615,438.881,127.22631L440.193,126.82787Q440.592,127.81811,440.844,128.4685L447.459,128.4685L447.459,131.65014L446,131.65014L446,129.781L434.31600000000003,129.781ZM440.49199999999996,132.83959Q439.18,131.5974,438.23,130.82397L438.99199999999996,129.88647Q440.08799999999997,130.69506,441.336,131.84936L440.49199999999996,132.83959ZM438.324,137.7732Q437.48,137.7205,437.08799999999997,137.533Q436.701,137.3396,436.56100000000004,136.8357Q434.539,137.5974,432.354,138.2244L431.832,136.947Q434.46299999999997,136.2673,436.432,135.5232L436.432,131.56225L437.75,131.56225L437.75,135.0017Q439.678,134.1521,441.21299999999997,133.14428Q442.748,132.13647,444.096,130.82397L444.986,131.77319Q443.52099999999996,133.17358,441.828,134.2693Q440.14099999999996,135.3591,438.031,136.2615Q438.248,136.4372,438.898,136.4958Q439.947,136.5662,440.475,136.5662Q440.97900000000004,136.5662,442.027,136.4958Q442.59000000000003,136.4372,442.865,136.3435Q443.14099999999996,136.2439,443.246,135.9919Q443.35699999999997,135.74,443.39300000000003,135.2185Q443.428,134.7146,443.428,134.1521L444.781,134.4802Q444.72900000000004,135.3943,444.652,135.9158Q444.547,136.6716,444.35400000000004,137.0349Q444.166,137.3923,443.762,137.5564Q443.35699999999997,137.7205,442.50800000000004,137.7732Q441.137,137.8435,440.416,137.8435Q439.736,137.8435,438.324,137.7732ZM435.881,132.23022Q435.55899999999997,132.98608,434.91999999999996,134.0232Q434.281,135.0544,433.707,135.7927L432.623,134.9665Q433.23199999999997,134.2458,433.818,133.32006Q434.404,132.38842,434.727,131.5974L435.881,132.23022ZM445.695,132.4353Q446.16999999999996,132.9978,446.89099999999996,133.9353Q447.61699999999996,134.8728,448.127,135.5935L447.078,136.4021Q446.674,135.7927,445.959,134.8259Q445.25,133.85912,444.711,133.19701L445.695,132.4353ZM440.75,141.406L444.85699999999997,141.406L444.85699999999997,138.5994L446.28700000000003,138.5994L446.28700000000003,143.281L444.85699999999997,143.281L444.85699999999997,142.7185L433.959,142.7185L433.959,138.8513L435.33000000000004,138.8513L435.33000000000004,141.406L439.361,141.406L439.361,138.4177L440.75,138.4177L440.75,141.406ZM463.625,133.36694L458.75,133.36694L458.75,139.3728L457.473,139.3728L457.473,132.031L460.25,132.031L460.25,126.84545L461.54499999999996,126.84545L461.54499999999996,128.69701L465.676,128.69701L465.676,130.06225L461.54499999999996,130.06225L461.54499999999996,132.031L464.91999999999996,132.031L464.91999999999996,139.3728L463.625,139.3728L463.625,133.36694ZM456.24199999999996,138.7986Q456.24199999999996,139.5369,456.00800000000004,139.824Q455.773,140.1111,455.188,140.1111Q454.701,140.1111,454.238,140.0583L453.986,138.7283Q454.28499999999997,138.781,454.59000000000003,138.781Q454.836,138.781,454.918,138.6462Q455,138.5056,455,138.0779L455,131.52123L453.916,131.52123L453.916,143.281L452.69100000000003,143.281L452.69100000000003,131.52123L451.631,131.52123L451.631,140.1111L450.365,140.1111L450.365,130.156L452.69100000000003,130.156L452.69100000000003,126.86303L453.951,126.86303L453.951,130.156L456.24199999999996,130.156L456.24199999999996,138.7986ZM465.21299999999997,143.2986Q464.52099999999996,142.6482,463.31399999999996,141.6404Q462.113,140.6267,461.152,139.8767Q460.619,140.8904,459.5,141.7224Q458.381,142.5486,456.395,143.3865L455.738,142.2029Q457.777,141.365,458.779,140.615Q459.78700000000003,139.8591,460.127,138.9685Q460.467,138.072,460.502,136.5837L460.502,134.24L461.756,134.24L461.756,136.8943Q461.721,137.9783,461.562,138.7107Q462.652,139.4841,463.994,140.5271Q465.342,141.5642,466.10900000000004,142.22050000000002L465.21299999999997,143.2986ZM473.029,135.4939Q473.029,138.031,472.18,140.1814Q471.336,142.3318,469.85900000000004,143.8259L468.406,143.8259Q469.85900000000004,142.0622,470.645,140.0232Q471.43,137.9783,471.43,135.4939Q471.43,132.99194,470.645,130.94115Q469.85900000000004,128.88451,468.406,127.156L469.85900000000004,127.156Q471.336,128.65014,472.18,130.79467Q473.029,132.93334,473.029,135.4939Z" fill="#DDDDDD" fill-opacity="1"/></g><g style="mix-blend-mode:passthrough"><path d="M391.625,156.63451L391.625,154.94115L395.3926,152.656L396.6172,152.656L396.6172,166.156L395,166.156L395,154.62475L391.625,156.63451ZM401,161.281L401,159.8103L407.375,159.8103L407.375,161.281L401,161.281ZM419.938,166.156L418.004,166.156L414.23,160.531L414.06600000000003,160.531L411.617,160.531L411.617,166.156L410,166.156L410,152.656L414.025,152.656Q415.367,152.656,416.40999999999997,153.14819Q417.459,153.64037,418.039,154.54272Q418.625,155.4392,418.625,156.60522Q418.625,157.91772,417.904,158.8787Q417.18399999999997,159.8337,415.924,160.2497L419.938,166.156ZM411.617,154.1267L411.617,159.0603L413.873,159.0603Q415.402,159.0603,416.205,158.3923Q417.008,157.7185,417.008,156.61108Q417.008,155.50951,416.205,154.81811Q415.402,154.1267,413.873,154.1267L411.617,154.1267ZM420.5,152.656L430.25,152.656L430.25,154.1267L426.242,154.1267L426.242,166.156L424.625,166.156L424.625,154.1267L420.5,154.1267L420.5,152.656ZM431,152.656L440.75,152.656L440.75,154.1267L436.74199999999996,154.1267L436.74199999999996,166.156L435.125,166.156L435.125,154.1267L431,154.1267L431,152.656ZM453.096,159.4939Q453.096,156.95092,453.93899999999996,154.80053Q454.789,152.65014,456.26599999999996,151.156L457.719,151.156Q456.26599999999996,152.91967,455.48,154.96459Q454.695,157.00951,454.695,159.4939Q454.695,161.9958,455.48,164.0466Q456.26599999999996,166.0974,457.719,167.8259L456.26599999999996,167.8259Q454.789,166.3318,453.93899999999996,164.19310000000002Q453.096,162.0486,453.096,159.4939ZM463.47900000000004,155.18725L465.57,153.75756L466.23199999999997,154.91772L463.98199999999997,156.04272L466.23199999999997,157.14428L465.57,158.3044L463.47900000000004,156.89233L463.65999999999997,159.406L462.33000000000004,159.406L462.512,156.89233L460.41999999999996,158.3044L459.75800000000004,157.14428L462.00800000000004,156.04272L459.75800000000004,154.91772L460.41999999999996,153.75756L462.512,155.16967L462.33000000000004,152.656L463.65999999999997,152.656L463.47900000000004,155.18725ZM473.029,159.4939Q473.029,162.031,472.18,164.1814Q471.336,166.3318,469.85900000000004,167.8259L468.406,167.8259Q469.85900000000004,166.0622,470.645,164.0232Q471.43,161.9783,471.43,159.4939Q471.43,156.99194,470.645,154.94115Q469.85900000000004,152.88451,468.406,151.156L469.85900000000004,151.156Q471.336,152.65014,472.18,154.79467Q473.029,156.93334,473.029,159.4939Z" fill="#DDDDDD" fill-opacity="1"/></g><g style="mix-blend-mode:passthrough"><path d="M309.5,228.63451L309.5,226.94115L313.26758,224.656L314.49219,224.656L314.49219,238.156L312.875,238.156L312.875,226.62475L309.5,228.63451ZM318.875,233.281L318.875,231.8103L325.25,231.8103L325.25,233.281L318.875,233.281ZM337.8125,238.156L335.8789,238.156L332.1055,232.531L331.9414,232.531L329.4922,232.531L329.4922,238.156L327.875,238.156L327.875,224.656L331.9004,224.656Q333.2422,224.656,334.2852,225.14819Q335.334,225.64037,335.9141,226.54272Q336.5,227.4392,336.5,228.60522Q336.5,229.91772,335.7793,230.8787Q335.0586,231.8337,333.7988,232.2497L337.8125,238.156ZM329.4922,226.1267L329.4922,231.0603L331.748,231.0603Q333.2773,231.0603,334.0801,230.3923Q334.8828,229.7185,334.8828,228.61108Q334.8828,227.50951,334.0801,226.81811Q333.2773,226.1267,331.748,226.1267L329.4922,226.1267ZM338.375,224.656L348.125,224.656L348.125,226.1267L344.1172,226.1267L344.1172,238.156L342.5,238.156L342.5,226.1267L338.375,226.1267L338.375,224.656ZM348.875,224.656L358.625,224.656L358.625,226.1267L354.6172,226.1267L354.6172,238.156L353,238.156L353,226.1267L348.875,226.1267L348.875,224.656ZM370.97069999999997,231.4939Q370.97069999999997,228.95092,371.8145,226.80053Q372.6641,224.65014,374.1406,223.156L375.5938,223.156Q374.1406,224.91967,373.3555,226.96459Q372.5703,229.00951,372.5703,231.4939Q372.5703,233.9958,373.3555,236.0466Q374.1406,238.0974,375.5938,239.8259L374.1406,239.8259Q372.6641,238.3318,371.8145,236.19310000000002Q370.97069999999997,234.0486,370.97069999999997,231.4939ZM382.6133,231.5466Q382.3262,231.6931,381.0078,232.2205L381.0078,237.5349Q381.0078,238.5193,380.627,238.9001Q380.252,239.281,379.1914,239.281Q378.5996,239.281,377.96680000000003,239.1638L377.6973,237.6872Q378.2715,238.0212,379.0098,238.0212Q379.4258,238.0212,379.5488,237.8865Q379.6777,237.7458,379.6777,237.3415L379.6777,232.7068L377.7676,233.3982L377.4805,231.9919L379.6777,231.2302L379.6777,227.88451L377.75,227.88451L377.75,226.48998L379.6777,226.48998L379.6777,223.15014L381.0078,223.15014L381.0078,226.48998L382.6309,226.48998L382.6309,227.88451L381.0078,227.88451L381.0078,230.7439Q381.9805,230.4099,382.6133,230.1462L382.6133,231.5466ZM384.72270000000003,228.031L384.72270000000003,229.91186Q384.72270000000003,232.115,384.5938,233.6326Q384.47069999999997,235.1501,384.084,236.56810000000002Q383.6973,237.9802,382.9414,239.53300000000002L381.6934,238.6892Q382.4316,237.31810000000002,382.78319999999997,236.0994Q383.1406,234.8806,383.2578,233.4861Q383.375,232.0857,383.375,229.82983L383.375,223.906L393.2129,223.906L393.2129,228.031L384.72270000000003,228.031ZM391.8594,226.88256L391.8594,225.11303L384.72270000000003,225.11303L384.72270000000003,226.88256L391.8594,226.88256ZM389.9375,237.781L393.9512,237.781L393.9512,238.9119L384.7051,238.9119L384.7051,237.781L388.5664,237.781L388.5664,235.9177L385.5078,235.9177L385.5078,234.781L388.5664,234.781L388.5664,233.3572Q387.2363,233.4275,386.6035,233.404Q385.707,233.4568,385.3262,233.5212L385.1445,232.5662Q385.5723,232.449,385.8887,232.1736Q386.6504,231.4236,387.5059,230.2927L385.2734,230.2927L385.2734,229.156L393.5,229.156L393.5,230.2927L389.0176,230.2927Q388.0566,231.5408,387.16020000000003,232.4724L391.373,232.2205L391.0859,231.7341Q390.7812,231.1892,390.5645,230.8904L391.58979999999997,230.2927Q391.9531,230.7966,392.4277,231.5935Q392.90819999999997,232.3904,393.0312,232.6072L393.5879,233.5212L392.5449,234.0955L391.96479999999997,233.2458L389.9375,233.2986L389.9375,234.781L393.1191,234.781L393.1191,235.9177L389.9375,235.9177L389.9375,237.781ZM412.25,232.906L412.25,234.2712L405.10699999999997,234.2712L405.10699999999997,237.0603Q405.10699999999997,237.9216,404.9316,238.3962Q404.7617,238.8708,404.34569999999997,239.0759Q403.9355,239.281,403.1797,239.281Q401.9551,239.281,400.7129,239.1697L400.40819999999997,237.7341Q401.9199,237.9099,402.6758,237.9099Q403.1797,237.9099,403.3789,237.6052Q403.5781,237.3005,403.5781,236.56810000000002L403.5781,234.2712L396.125,234.2712L396.125,232.906L403.5781,232.906L403.5781,230.1872L397.3848,230.1872L397.3848,228.781L403.5781,228.781L403.5781,225.68139Q400.2441,225.89819,397.2031,226.00365L397.0801,224.63842Q399.7754,224.56811,403.84180000000003,224.26928Q407.908,223.97045,410.791,223.63061L411.008,225.03686Q408.887,225.28881,405.10699999999997,225.57592L405.10699999999997,228.781L410.99,228.781L410.99,230.1872L405.10699999999997,230.1872L405.10699999999997,232.906L412.25,232.906ZM415.871,226.38451L415.871,228.79272L414.46500000000003,228.79272L414.46500000000003,225.031L421.127,225.031L420.693,224.25756L420.137,223.26733L421.596,222.83959L422.82,225.031L429.207,225.031L429.207,228.77514L427.807,228.77514L427.807,226.38451L415.871,226.38451ZM427.174,228.5935L427.174,229.906L416.504,229.906L416.504,228.5935L427.174,228.5935ZM429.605,233.4861L424.496,233.4861L424.496,236.5974Q424.496,237.324,424.719,237.5818Q424.94100000000003,237.8396,425.539,237.8923Q426.043,237.9275,426.295,237.9275Q426.529,237.9275,427.033,237.8923Q427.678,237.822,427.895,237.5759Q428.111,237.324,428.146,236.615Q428.24,235.5427,428.24,234.7986L429.605,235.0681Q429.553,236.5037,429.5,237.1482Q429.424,238.25560000000002,428.908,238.7009Q428.398,239.1521,427.156,239.24Q426.81600000000003,239.281,426.148,239.281Q425.46299999999997,239.281,425.123,239.24Q424.027,239.1521,423.523,238.6247Q423.02,238.1033,423.02,236.90800000000002L423.02,233.4861L420.031,233.4861L420.014,233.8435Q419.938,235.3787,419.422,236.4509Q418.91200000000003,237.5173,417.78700000000003,238.3083Q416.66200000000003,239.1052,414.717,239.7439L414.02,238.4138Q415.801,237.863,416.727,237.2478Q417.652,236.6326,418.021,235.8357Q418.391,235.033,418.479,233.7322L418.496,233.4861L414.125,233.4861L414.125,232.156L429.605,232.156L429.605,233.4861ZM448.23199999999997,234.6111Q447.98,236.00560000000002,447.746,236.99Q447.459,238.2732,446.938,238.7771Q446.416,239.281,445.678,239.281Q445.01,239.281,444.471,238.8005Q443.932,238.3201,443.193,237.1247Q442.836,236.4861,442.56600000000003,235.8767Q440.97900000000004,237.69310000000002,438.77,239.3747L437.81399999999996,238.2732Q440.34000000000003,236.4216,442.027,234.4822Q441.15999999999997,231.7634,440.69100000000003,227.281L434.75,227.281L434.75,229.906L439.361,229.906Q439.344,231.1599,439.262,232.2146Q439.18,233.2634,439.033,234.7693Q438.90999999999997,236.00560000000002,438.389,236.5212Q437.86699999999996,237.031,436.59000000000003,237.031Q436.156,237.031,435.33000000000004,236.9607L435.02,235.5193Q435.834,235.6072,436.443,235.6072Q437.094,235.6072,437.31600000000003,235.3435Q437.539,235.0798,437.65,234.3474Q437.773,233.3572,437.82,232.7419Q437.86699999999996,232.1267,437.86699999999996,231.3064L434.75,231.3064Q434.71500000000003,234.113,434.281,235.8884Q433.85400000000004,237.6638,432.752,239.53300000000002L431.352,238.865Q432.15999999999997,237.5876,432.57,236.4978Q432.986,235.408,433.168,234.0486Q433.35,232.6892,433.35,230.5798L433.35,225.86303L440.568,225.86303L440.352,222.9978L441.77,222.9978Q441.881,224.67358,441.99199999999996,225.86303L445.19100000000003,225.86303Q444.131,224.70873,443.08799999999997,223.75365L444.043,222.82201Q444.96299999999997,223.66576,446.252,224.99584L445.297,225.86303L447.746,225.86303L447.746,227.281L442.115,227.281Q442.473,230.9783,443.08799999999997,233.2165Q444.635,231.1189,445.531,228.45287L446.80899999999997,229.00951Q445.672,232.1794,443.592,234.7341Q443.98400000000004,235.8591,444.506,236.7029Q444.887,237.28300000000002,445.16200000000003,237.4997Q445.443,237.7165,445.695,237.699Q445.98199999999997,237.7165,446.199,237.4353Q446.416,237.1482,446.58000000000004,236.3337Q446.738,235.613,446.973,234.1716L448.23199999999997,234.6111ZM463.625,229.36694L458.75,229.36694L458.75,235.3728L457.473,235.3728L457.473,228.031L460.25,228.031L460.25,222.84545L461.54499999999996,222.84545L461.54499999999996,224.69701L465.676,224.69701L465.676,226.06225L461.54499999999996,226.06225L461.54499999999996,228.031L464.91999999999996,228.031L464.91999999999996,235.3728L463.625,235.3728L463.625,229.36694ZM456.24199999999996,234.7986Q456.24199999999996,235.5369,456.00800000000004,235.824Q455.773,236.1111,455.188,236.1111Q454.701,236.1111,454.238,236.0583L453.986,234.7283Q454.28499999999997,234.781,454.59000000000003,234.781Q454.836,234.781,454.918,234.6462Q455,234.5056,455,234.0779L455,227.52123L453.916,227.52123L453.916,239.281L452.69100000000003,239.281L452.69100000000003,227.52123L451.631,227.52123L451.631,236.1111L450.365,236.1111L450.365,226.156L452.69100000000003,226.156L452.69100000000003,222.86303L453.951,222.86303L453.951,226.156L456.24199999999996,226.156L456.24199999999996,234.7986ZM465.21299999999997,239.2986Q464.52099999999996,238.6482,463.31399999999996,237.6404Q462.113,236.6267,461.152,235.8767Q460.619,236.8904,459.5,237.7224Q458.381,238.5486,456.395,239.3865L455.738,238.2029Q457.777,237.365,458.779,236.615Q459.78700000000003,235.8591,460.127,234.9685Q460.467,234.072,460.502,232.5837L460.502,230.24L461.756,230.24L461.756,232.8943Q461.721,233.9783,461.562,234.7107Q462.652,235.4841,463.994,236.5271Q465.342,237.5642,466.10900000000004,238.22050000000002L465.21299999999997,239.2986ZM473.029,231.4939Q473.029,234.031,472.18,236.1814Q471.336,238.3318,469.85900000000004,239.8259L468.406,239.8259Q469.85900000000004,238.0622,470.645,236.0232Q471.43,233.9783,471.43,231.4939Q471.43,228.99194,470.645,226.94115Q469.85900000000004,224.88451,468.406,223.156L469.85900000000004,223.156Q471.336,224.65014,472.18,226.79467Q473.029,228.93334,473.029,231.4939Z" fill="#DDDDDD" fill-opacity="1"/></g><g style="mix-blend-mode:passthrough"><path d="M297,159.75L289,159.75L289,158.25L297,158.25M285,159.75L277,159.75L277,158.25L285,158.25M273,159.75L265,159.75L265,158.25L273,158.25M261,159.75L253,159.75L253,158.25L261,158.25M249,159.75L241,159.75L241,158.25L249,158.25M237,159.75L229,159.75L229,158.25L237,158.25M225,159.75L217,159.75L217,158.25L225,158.25M213,159.75L205,159.75L205,158.25L213,158.25M201,159.75L193,159.75L193,158.25L201,158.25M189,159.75L181,159.75L181,158.25L189,158.25M176.46967,158.46967L181.24264,153.6967Q181.29487,153.64447,181.35629,153.60343Q181.41771,153.56239,181.48596,153.53412Q181.5542,153.50585,181.62665,153.49144Q181.6991,153.47703,181.77297,153.47703Q181.84684,153.47703,181.91929,153.49144Q181.99174,153.50585,182.05998,153.53412Q182.12823,153.56239,182.18965,153.60343Q182.25107,153.64447,182.3033,153.6967Q182.35553,153.74893,182.39657,153.81035Q182.43761,153.87177,182.46588,153.94002Q182.49415,154.00826,182.50856,154.08071Q182.52297,154.15316,182.52297,154.22703Q182.52297,154.3009,182.50856,154.37335Q182.49415,154.4458,182.46588,154.51404Q182.43761,154.58229,182.39657,154.64371Q182.35553,154.70513,182.3033,154.75736L177.53033,159.53033Q177.478097,159.582563,177.416678,159.623602Q177.355258,159.664641,177.287012,159.69291Q177.218767,159.721178,177.146318,159.735589Q177.0738684,159.75,176.999999877795,159.75Q176.9261313,159.75,176.853682,159.735589Q176.781233,159.721178,176.712987,159.692909Q176.644742,159.664641,176.583322,159.623602Q176.521903,159.582563,176.46967,159.53033Q176.417437,159.478097,176.376398,159.416678Q176.335359,159.355258,176.30709,159.287012Q176.278822,159.218767,176.264411,159.146318Q176.25,159.0738684,176.25,158.999999877795Q176.25,158.9261313,176.264411,158.853682Q176.278822,158.781233,176.307091,158.712987Q176.335359,158.644742,176.376398,158.583322Q176.417437,158.521903,176.46967,158.46967ZM177.53033,158.46967L182.3033,163.24264Q182.35553,163.29487,182.39657,163.35629Q182.43761,163.41771,182.46588,163.48596Q182.49415,163.5542,182.50856,163.62665Q182.52297,163.6991,182.52297,163.77297Q182.52297,163.84684,182.50856,163.91929Q182.49415,163.99174,182.46588,164.05998Q182.43761,164.12823,182.39657,164.18965Q182.35553,164.25107,182.3033,164.3033Q182.25107,164.35553,182.18965,164.39657Q182.12823,164.43761,182.05998,164.46588Q181.99174,164.49415,181.91929,164.50856Q181.84684,164.52297,181.77297,164.52297Q181.6991,164.52297,181.62665,164.50856Q181.5542,164.49415,181.48596,164.46588Q181.41771,164.43761,181.35629,164.39657Q181.29487,164.35553,181.24264,164.3033L176.46967,159.53033Q176.417437,159.478097,176.376398,159.416678Q176.335359,159.355258,176.30709,159.287013Q176.278822,159.218767,176.264411,159.146318Q176.25,159.0738687,176.25,159.000000122205Q176.25,158.9261316,176.264411,158.853682Q176.278822,158.781233,176.30709,158.712988Q176.335359,158.644742,176.376398,158.583322Q176.417437,158.521903,176.46967,158.46967Q176.521903,158.417437,176.583322,158.376398Q176.644742,158.335359,176.712987,158.30709Q176.781233,158.278822,176.853682,158.264411Q176.9261313,158.25,176.999999877795,158.25Q177.0738684,158.25,177.146318,158.264411Q177.218767,158.278822,177.287012,158.30709Q177.355258,158.335359,177.416678,158.376398Q177.478097,158.417437,177.53033,158.46967Z" fill="#DDDDDD" fill-opacity="1"/></g><g style="mix-blend-mode:passthrough"><path d="M297,231.75L289,231.75L289,230.25L297,230.25M285,231.75L277,231.75L277,230.25L285,230.25M273,231.75L265,231.75L265,230.25L273,230.25M261,231.75L253,231.75L253,230.25L261,230.25M249,231.75L241,231.75L241,230.25L249,230.25M237,231.75L229,231.75L229,230.25L237,230.25M225,231.75L217,231.75L217,230.25L225,230.25M213,231.75L205,231.75L205,230.25L213,230.25M201,231.75L193,231.75L193,230.25L201,230.25M189,231.75L181,231.75L181,230.25L189,230.25M176.46967,230.46967L181.24264,225.6967Q181.29487,225.64447,181.35629,225.60343Q181.41771,225.56239,181.48596,225.53412Q181.5542,225.50585,181.62665,225.49144Q181.6991,225.47703,181.77297,225.47703Q181.84684,225.47703,181.91929,225.49144Q181.99174,225.50585,182.05998,225.53412Q182.12823,225.56239,182.18965,225.60343Q182.25107,225.64447,182.3033,225.6967Q182.35553,225.74893,182.39657,225.81035Q182.43761,225.87177,182.46588,225.94002Q182.49415,226.00826,182.50856,226.08071Q182.52297,226.15316,182.52297,226.22703Q182.52297,226.3009,182.50856,226.37335Q182.49415,226.4458,182.46588,226.51404Q182.43761,226.58229,182.39657,226.64371Q182.35553,226.70513,182.3033,226.75736L177.53033,231.53033Q177.478097,231.582563,177.416678,231.623602Q177.355258,231.664641,177.287012,231.69291Q177.218767,231.721178,177.146318,231.735589Q177.0738684,231.75,176.999999877795,231.75Q176.9261313,231.75,176.853682,231.735589Q176.781233,231.721178,176.712987,231.692909Q176.644742,231.664641,176.583322,231.623602Q176.521903,231.582563,176.46967,231.53033Q176.417437,231.478097,176.376398,231.416678Q176.335359,231.355258,176.30709,231.287012Q176.278822,231.218767,176.264411,231.146318Q176.25,231.0738684,176.25,230.999999877795Q176.25,230.9261313,176.264411,230.853682Q176.278822,230.781233,176.307091,230.712987Q176.335359,230.644742,176.376398,230.583322Q176.417437,230.521903,176.46967,230.46967ZM177.53033,230.46967L182.3033,235.24264Q182.35553,235.29487,182.39657,235.35629Q182.43761,235.41771,182.46588,235.48596Q182.49415,235.5542,182.50856,235.62665Q182.52297,235.6991,182.52297,235.77297Q182.52297,235.84684,182.50856,235.91929Q182.49415,235.99174,182.46588,236.05998Q182.43761,236.12823,182.39657,236.18965Q182.35553,236.25107,182.3033,236.3033Q182.25107,236.35553,182.18965,236.39657Q182.12823,236.43761,182.05998,236.46588Q181.99174,236.49415,181.91929,236.50856Q181.84684,236.52297,181.77297,236.52297Q181.6991,236.52297,181.62665,236.50856Q181.5542,236.49415,181.48596,236.46588Q181.41771,236.43761,181.35629,236.39657Q181.29487,236.35553,181.24264,236.3033L176.46967,231.53033Q176.417437,231.478097,176.376398,231.416678Q176.335359,231.355258,176.30709,231.287013Q176.278822,231.218767,176.264411,231.146318Q176.25,231.0738687,176.25,231.000000122205Q176.25,230.9261316,176.264411,230.853682Q176.278822,230.781233,176.30709,230.712988Q176.335359,230.644742,176.376398,230.583322Q176.417437,230.521903,176.46967,230.46967Q176.521903,230.417437,176.583322,230.376398Q176.644742,230.335359,176.712987,230.30709Q176.781233,230.278822,176.853682,230.264411Q176.9261313,230.25,176.999999877795,230.25Q177.0738684,230.25,177.146318,230.264411Q177.218767,230.278822,177.287012,230.30709Q177.355258,230.335359,177.416678,230.376398Q177.478097,230.417437,177.53033,230.46967Z" fill="#DDDDDD" fill-opacity="1"/></g><g style="mix-blend-mode:passthrough"><path d="M1.875,204.63451L1.875,202.94115L5.64258,200.656L6.86719,200.656L6.86719,214.156L5.25,214.156L5.25,202.62475L1.875,204.63451ZM11.25,209.281L11.25,207.8103L17.625,207.8103L17.625,209.281L11.25,209.281ZM30.1875,214.156L28.2539,214.156L24.4805,208.531L24.3164,208.531L21.8672,208.531L21.8672,214.156L20.25,214.156L20.25,200.656L24.2754,200.656Q25.6172,200.656,26.6602,201.14819Q27.709,201.64037,28.2891,202.54272Q28.875,203.4392,28.875,204.60522Q28.875,205.91772,28.1543,206.8787Q27.4336,207.8337,26.1738,208.2497L30.1875,214.156ZM21.8672,202.1267L21.8672,207.0603L24.123,207.0603Q25.6523,207.0603,26.4551,206.3923Q27.2578,205.7185,27.2578,204.61108Q27.2578,203.50951,26.4551,202.81811Q25.6523,202.1267,24.123,202.1267L21.8672,202.1267ZM30.75,200.656L40.5,200.656L40.5,202.1267L36.4922,202.1267L36.4922,214.156L34.875,214.156L34.875,202.1267L30.75,202.1267L30.75,200.656ZM41.25,200.656L51,200.656L51,202.1267L46.9922,202.1267L46.9922,214.156L45.375,214.156L45.375,202.1267L41.25,202.1267L41.25,200.656ZM63.3457,207.4939Q63.3457,204.95092,64.1895,202.80053Q65.0391,200.65014,66.5156,199.156L67.9688,199.156Q66.5156,200.91967,65.7305,202.96459Q64.9453,205.00951,64.9453,207.4939Q64.9453,209.9958,65.7305,212.0466Q66.5156,214.0974,67.9688,215.8259L66.5156,215.8259Q65.0391,214.3318,64.1895,212.19310000000002Q63.3457,210.0486,63.3457,207.4939ZM73.7285,203.18725L75.8203,201.75756L76.4824,202.91772L74.2324,204.04272L76.4824,205.14428L75.8203,206.3044L73.7285,204.89233L73.9102,207.406L72.5801,207.406L72.7617,204.89233L70.6699,206.3044L70.0078,205.14428L72.2578,204.04272L70.0078,202.91772L70.6699,201.75756L72.7617,203.16967L72.5801,200.656L73.9102,200.656L73.7285,203.18725ZM83.2793,207.4939Q83.2793,210.031,82.4297,212.1814Q81.5859,214.3318,80.1094,215.8259L78.6562,215.8259Q80.1094,214.0622,80.8945,212.0232Q81.6797,209.9783,81.6797,207.4939Q81.6797,204.99194,80.8945,202.94115Q80.1094,200.88451,78.6562,199.156L80.1094,199.156Q81.5859,200.65014,82.4297,202.79467Q83.2793,204.93334,83.2793,207.4939Z" fill="#DDDDDD" fill-opacity="1"/></g><g style="mix-blend-mode:passthrough"><path d="M5.61328,183.5466Q5.32617,183.6931,4.00781,184.2205L4.00781,189.5349Q4.00781,190.5193,3.62695,190.9001Q3.25195,191.281,2.19141,191.281Q1.59961,191.281,0.966797,191.1638L0.697266,189.6872Q1.27148,190.0212,2.00977,190.0212Q2.42578,190.0212,2.54883,189.8865Q2.67773,189.7458,2.67773,189.3415L2.67773,184.7068L0.767578,185.3982L0.480469,183.9919L2.67773,183.2302L2.67773,179.88451L0.75,179.88451L0.75,178.48998L2.67773,178.48998L2.67773,175.15014L4.00781,175.15014L4.00781,178.48998L5.63086,178.48998L5.63086,179.88451L4.00781,179.88451L4.00781,182.7439Q4.98047,182.4099,5.61328,182.1462L5.61328,183.5466ZM7.72266,180.031L7.72266,181.91186Q7.72266,184.115,7.59375,185.6326Q7.4707,187.1501,7.08398,188.56810000000002Q6.69727,189.9802,5.94141,191.53300000000002L4.69336,190.6892Q5.43164,189.31810000000002,5.7832,188.0994Q6.14062,186.8806,6.25781,185.4861Q6.375,184.0857,6.375,181.82983L6.375,175.906L16.2129,175.906L16.2129,180.031L7.72266,180.031ZM14.8594,178.88256L14.8594,177.11303L7.72266,177.11303L7.72266,178.88256L14.8594,178.88256ZM12.9375,189.781L16.9512,189.781L16.9512,190.9119L7.70508,190.9119L7.70508,189.781L11.5664,189.781L11.5664,187.9177L8.50781,187.9177L8.50781,186.781L11.5664,186.781L11.5664,185.3572Q10.2363,185.4275,9.60352,185.404Q8.70703,185.4568,8.32617,185.5212L8.14453,184.5662Q8.57227,184.449,8.88867,184.1736Q9.65039,183.4236,10.5059,182.2927L8.27344,182.2927L8.27344,181.156L16.5,181.156L16.5,182.2927L12.0176,182.2927Q11.0566,183.5408,10.1602,184.4724L14.373,184.2205L14.0859,183.7341Q13.7812,183.1892,13.5645,182.8904L14.5898,182.2927Q14.9531,182.7966,15.4277,183.5935Q15.9082,184.3904,16.0312,184.6072L16.5879,185.5212L15.5449,186.0955L14.9648,185.2458L12.9375,185.2986L12.9375,186.781L16.1191,186.781L16.1191,187.9177L12.9375,187.9177L12.9375,189.781ZM35.25,184.906L35.25,186.2712L28.1074,186.2712L28.1074,189.0603Q28.1074,189.9216,27.9316,190.3962Q27.7617,190.8708,27.3457,191.0759Q26.9355,191.281,26.1797,191.281Q24.9551,191.281,23.7129,191.1697L23.4082,189.7341Q24.9199,189.9099,25.6758,189.9099Q26.1797,189.9099,26.3789,189.6052Q26.5781,189.3005,26.5781,188.56810000000002L26.5781,186.2712L19.125,186.2712L19.125,184.906L26.5781,184.906L26.5781,182.1872L20.3848,182.1872L20.3848,180.781L26.5781,180.781L26.5781,177.68139Q23.2441,177.89819,20.2031,178.00365L20.0801,176.63842Q22.7754,176.56811,26.8418,176.26928Q30.9082,175.97045,33.791,175.63061L34.0078,177.03686Q31.8867,177.28881,28.1074,177.57592L28.1074,180.781L33.9902,180.781L33.9902,182.1872L28.1074,182.1872L28.1074,184.906L35.25,184.906ZM49.6406,186.8982Q50.8828,188.7146,53.1152,190.44310000000002L52.2188,191.6501Q50.127,189.9568,48.8496,188.1404Q47.6777,189.7927,45.5918,191.574L44.6895,190.3904Q46.8691,188.6267,48.041,186.822Q46.9043,184.6716,46.3125,181.6892Q46.1836,181.94115,46.0664,182.1345Q45.9492,182.322,45.8789,182.4451L44.8887,181.36108Q45.75,179.9724,46.418,178.32006Q47.0859,176.66772,47.4258,175.05053L48.7793,175.27905Q48.5273,176.48022,48.0059,177.9978L52.8281,177.9978L52.8281,179.4392L51.5684,179.4392Q51.334,181.89428,50.8828,183.6755Q50.4316,185.4568,49.6406,186.8982ZM36.6211,183.0837Q37.5586,182.5154,38.4141,181.73608Q39.2695,180.95678,39.9199,180.06615L37.0723,180.06615L37.0723,178.88256L40.6406,178.88256L40.6406,175.156L41.918,175.156L41.918,178.88256L45.0703,178.88256L45.0703,180.06615L41.918,180.06615L41.918,180.31811L44.9414,182.3689L44.2734,183.365Q43.3242,182.574,41.918,181.63061L41.918,183.4705L40.6406,183.4705L40.6406,180.85717Q40.0078,181.78881,39.1523,182.6443Q38.2969,183.4997,37.3242,184.156L36.6211,183.0837ZM38.9121,178.5603Q38.3848,177.67553,37.3066,176.16381L38.209,175.55444L39.8848,177.92748L38.9121,178.5603ZM45.3047,176.19897Q44.4902,177.38842,43.5352,178.64819L42.6035,177.98022Q43.6113,176.65014,44.332,175.57201L45.3047,176.19897ZM47.2324,179.88451Q47.502,181.61889,47.8652,182.9607Q48.2344,184.3025,48.7969,185.4568Q49.3535,184.2497,49.7051,182.7849Q50.0625,181.32006,50.2559,179.4392L47.4258,179.4392L47.2324,179.88451ZM44.1152,190.7302Q43.2891,190.2087,41.8828,189.488Q40.2246,190.6247,37.1074,191.615L36.5156,190.3904Q39.1289,189.6345,40.5527,188.8611Q39.2168,188.2458,38.584,187.9763L37.8633,187.654Q38.4551,186.699,38.8008,186.031L36.75,186.031L36.75,184.865L39.3984,184.865Q39.7734,183.9275,39.8848,183.6052L41.2148,183.9685Q40.998,184.5779,40.875,184.865L44.6719,184.865L44.6719,185.9783Q43.9688,187.5779,42.9609,188.5915Q43.793,188.9841,44.8008,189.5759L44.1152,190.7302ZM39.7031,187.1677Q40.0254,187.3083,40.9629,187.6892L41.7715,188.029Q42.6738,187.2732,43.2129,186.031L40.3184,186.031Q39.9199,186.7869,39.7031,187.1677ZM60.3398,183.4763L58.6172,184.2029L58.6172,189.3826Q58.6172,190.1619,58.4238,190.5603Q58.2363,190.9587,57.7852,191.1169Q57.3398,191.281,56.4961,191.281Q56.1328,191.281,55.377,191.2048L55.1426,189.8747Q55.7344,189.9802,56.3438,189.9802Q56.8652,189.9802,57.0527,189.7634Q57.2461,189.5408,57.2461,188.9314L57.2461,184.7244L55.0723,185.533L54.7676,184.1853Q55.8457,183.8337,57.2461,183.3122L57.2461,179.76733L55.125,179.76733L55.125,178.46655L57.2461,178.46655L57.2461,175.27905L58.6172,175.27905L58.6172,178.46655L60.2344,178.46655L60.2344,179.76733L58.6172,179.76733L58.6172,182.7556Q59.6895,182.2517,60.0879,182.0408L60.3398,183.4763ZM71.2441,183.781L67.3535,183.781L67.3535,185.5681L70.125,185.5681L70.125,191.281L68.7773,191.281L68.7773,190.59550000000002L64.3477,190.59550000000002L64.3477,191.2986L63,191.2986L63,185.5681L66,185.5681L66,183.781L62.2617,183.781Q62.1738,186.2712,61.7871,187.9294Q61.4062,189.5876,60.5508,191.281L59.2441,190.6482Q60.0117,189.2537,60.4043,188.0232Q60.8027,186.7869,60.9609,185.2341Q61.125,183.6814,61.125,181.24975L61.125,176.16381L70.4355,176.16381L70.4355,180.52319L67.3535,180.52319L67.3535,182.5564L71.2441,182.5564L71.2441,183.781ZM69.0469,179.281L69.0469,177.406L62.4902,177.406L62.4902,179.281L69.0469,179.281ZM62.4902,182.5564L66,182.5564L66,180.52319L62.4902,180.52319L62.4902,181.39037L62.4902,182.5564ZM64.3477,189.406L68.7773,189.406L68.7773,186.7927L64.3477,186.7927L64.3477,189.406ZM88.7871,186.9099Q88.752,187.4724,88.6816,188.1228Q88.6113,188.7673,88.5352,189.2537Q88.4121,190.06810000000002,88.1602,190.4548Q87.9082,190.8415,87.3809,191.00560000000002Q86.8535,191.1697,85.7871,191.24Q83.959,191.3689,81.6094,191.3689Q79.4004,191.3689,77.6602,191.24Q76.6523,191.1638,76.0957,190.9646Q75.5391,190.7654,75.2695,190.2673Q75,189.7693,75,188.8318L75,181.16186Q74.4609,181.78881,73.9746,182.2751L72.8555,181.1267Q74.1738,179.88451,75.2168,178.3142Q76.2598,176.73803,76.834,175.12084L78.375,175.60717Q78.0996,176.29272,77.7305,177.031L87.3105,177.031Q87.3281,177.58178,87.3281,178.73608Q87.3281,180.48803,87.2578,182.281Q87.1875,184.074,87.0762,185.3279Q86.9883,186.2888,86.707,186.8103Q86.4316,187.3318,85.8984,187.5486Q85.3711,187.7595,84.4922,187.7595Q84.2051,187.7595,83.1973,187.6833Q83.0332,187.6833,82.6055,187.6482L82.4238,186.2595Q83.6836,186.3708,84.2344,186.3884Q84.791,186.4236,85.0605,186.2947Q85.3359,186.1599,85.4473,185.8435Q85.5645,185.5271,85.6406,184.8533Q85.8926,182.1052,85.8926,179.56225Q85.8926,178.77123,85.875,178.40209L77.0156,178.40209Q76.3477,179.47436,75.6152,180.406L82.875,180.406L82.875,185.8962L76.3887,185.8962L76.3887,188.4333Q76.3887,189.0251,76.5293,189.3064Q76.6758,189.5818,76.9922,189.6872Q77.3145,189.7927,78.0176,189.8513Q79.6699,189.9802,81.8027,189.9802Q83.959,189.9802,85.5938,189.84550000000002Q86.2559,189.7869,86.5488,189.6697Q86.8477,189.5525,86.9824,189.2771Q87.1172,188.9958,87.1875,188.3865Q87.2402,187.988,87.2812,187.4197Q87.3281,186.8455,87.3281,186.4939L88.7871,186.9099ZM81.4863,184.531L81.4863,181.81225L76.3887,181.81225L76.3887,184.531L81.4863,184.531ZM101.971,183.4939Q101.971,180.95092,102.814,178.80053Q103.664,176.65014,105.141,175.156L106.594,175.156Q105.141,176.91967,104.355,178.96459Q103.57,181.00951,103.57,183.4939Q103.57,185.9958,104.355,188.0466Q105.141,190.0974,106.594,191.8259L105.141,191.8259Q103.664,190.3318,102.814,188.19310000000002Q101.971,186.0486,101.971,183.4939ZM113.033,175.00365Q113.033,176.37475,112.98,178.156L116.73,178.156Q116.73,180.48803,116.619,183.7283Q116.514,186.9685,116.355,188.8025Q116.268,189.8103,116.016,190.3318Q115.77,190.8591,115.248,191.0701Q114.727,191.281,113.748,191.281Q113.115,191.281,112.471,191.1697L112.154,189.6521Q112.98,189.8572,113.525,189.8572Q114.076,189.8572,114.34,189.74Q114.604,189.6169,114.732,189.2595Q114.867,188.8962,114.938,188.1228Q115.277,184.2087,115.277,179.5974L112.945,179.5974Q112.816,182.7439,112.553,184.6775Q112.295,186.6052,111.727,188.2048Q111.164,189.8044,110.062,191.6794L108.75,190.9587Q109.811,189.1599,110.367,187.6716Q110.93,186.1833,111.182,184.3611Q111.434,182.5388,111.539,179.5974L108.967,179.5974L108.967,178.156L111.568,178.156L111.609,175.00365L113.033,175.00365ZM118.5,191.281L118.5,177.16576L124.383,177.16576L124.383,191.281L123,191.281L123,189.781L119.918,189.781L119.918,191.281L118.5,191.281ZM119.918,178.60717L119.918,188.3396L123,188.3396L123,178.60717L119.918,178.60717ZM129.316,177.781L129.316,179.66772L127.875,179.66772L127.875,176.4685L134.379,176.4685Q134.045,175.56615,133.881,175.22631L135.193,174.82787Q135.592,175.81811,135.844,176.4685L142.459,176.4685L142.459,179.65014L141,179.65014L141,177.781L129.316,177.781ZM135.492,180.83959Q134.18,179.5974,133.23,178.82397L133.992,177.88647Q135.088,178.69506,136.336,179.84936L135.492,180.83959ZM133.324,185.7732Q132.48,185.7205,132.088,185.533Q131.701,185.3396,131.561,184.8357Q129.539,185.5974,127.354,186.2244L126.832,184.947Q129.463,184.2673,131.432,183.5232L131.432,179.56225L132.75,179.56225L132.75,183.0017Q134.678,182.1521,136.213,181.14428Q137.748,180.13647,139.096,178.82397L139.986,179.77319Q138.521,181.17358,136.828,182.2693Q135.141,183.3591,133.031,184.2615Q133.248,184.4372,133.898,184.4958Q134.947,184.5662,135.475,184.5662Q135.979,184.5662,137.027,184.4958Q137.59,184.4372,137.865,184.3435Q138.141,184.2439,138.246,183.9919Q138.357,183.74,138.393,183.2185Q138.428,182.7146,138.428,182.1521L139.781,182.4802Q139.729,183.3943,139.652,183.9158Q139.547,184.6716,139.354,185.0349Q139.166,185.3923,138.762,185.5564Q138.357,185.7205,137.508,185.7732Q136.137,185.8435,135.416,185.8435Q134.736,185.8435,133.324,185.7732ZM130.881,180.23022Q130.559,180.98608,129.92,182.0232Q129.281,183.0544,128.707,183.7927L127.623,182.9665Q128.232,182.2458,128.818,181.32006Q129.404,180.38842,129.727,179.5974L130.881,180.23022ZM140.695,180.4353Q141.17,180.9978,141.891,181.9353Q142.617,182.8728,143.127,183.5935L142.078,184.4021Q141.674,183.7927,140.959,182.8259Q140.25,181.85912,139.711,181.19701L140.695,180.4353ZM135.75,189.406L139.857,189.406L139.857,186.5994L141.287,186.5994L141.287,191.281L139.857,191.281L139.857,190.7185L128.959,190.7185L128.959,186.8513L130.33,186.8513L130.33,189.406L134.361,189.406L134.361,186.4177L135.75,186.4177L135.75,189.406ZM158.625,181.36694L153.75,181.36694L153.75,187.3728L152.473,187.3728L152.473,180.031L155.25,180.031L155.25,174.84545L156.545,174.84545L156.545,176.69701L160.676,176.69701L160.676,178.06225L156.545,178.06225L156.545,180.031L159.92,180.031L159.92,187.3728L158.625,187.3728L158.625,181.36694ZM151.242,186.7986Q151.242,187.5369,151.008,187.824Q150.773,188.1111,150.188,188.1111Q149.701,188.1111,149.238,188.0583L148.986,186.7283Q149.285,186.781,149.59,186.781Q149.836,186.781,149.918,186.6462Q150,186.5056,150,186.0779L150,179.52123L148.916,179.52123L148.916,191.281L147.691,191.281L147.691,179.52123L146.631,179.52123L146.631,188.1111L145.365,188.1111L145.365,178.156L147.691,178.156L147.691,174.86303L148.951,174.86303L148.951,178.156L151.242,178.156L151.242,186.7986ZM160.213,191.2986Q159.521,190.6482,158.314,189.6404Q157.113,188.6267,156.152,187.8767Q155.619,188.8904,154.5,189.7224Q153.381,190.5486,151.395,191.3865L150.738,190.2029Q152.777,189.365,153.779,188.615Q154.787,187.8591,155.127,186.9685Q155.467,186.072,155.502,184.5837L155.502,182.24L156.756,182.24L156.756,184.8943Q156.721,185.9783,156.562,186.7107Q157.652,187.4841,158.994,188.5271Q160.342,189.5642,161.109,190.22050000000002L160.213,191.2986ZM168.029,183.4939Q168.029,186.031,167.18,188.1814Q166.336,190.3318,164.859,191.8259L163.406,191.8259Q164.859,190.0622,165.645,188.0232Q166.43,185.9783,166.43,183.4939Q166.43,180.99194,165.645,178.94115Q164.859,176.88451,163.406,175.156L164.859,175.156Q166.336,176.65014,167.18,178.79467Q168.029,180.93334,168.029,183.4939Z" fill="#DDDDDD" fill-opacity="1"/></g><g style="mix-blend-mode:passthrough"><path d="M417,207.75L409,207.75L409,206.25L417,206.25M405,207.75L397,207.75L397,206.25L405,206.25M393,207.75L385,207.75L385,206.25L393,206.25M381,207.75L373,207.75L373,206.25L381,206.25M369,207.75L361,207.75L361,206.25L369,206.25M357,207.75L349,207.75L349,206.25L357,206.25M345,207.75L337,207.75L337,206.25L345,206.25M333,207.75L325,207.75L325,206.25L333,206.25M321,207.75L313,207.75L313,206.25L321,206.25M309,207.75L301,207.75L301,206.25L309,206.25M296.46967,206.46967L301.24264,201.6967Q301.29487,201.64447,301.35629,201.60343Q301.41771,201.56239,301.48596,201.53412Q301.5542,201.50585,301.62665,201.49144Q301.6991,201.47703,301.77297,201.47703Q301.84684,201.47703,301.91929,201.49144Q301.99174,201.50585,302.05998,201.53412Q302.12823,201.56239,302.18965000000003,201.60343Q302.25107,201.64447,302.3033,201.6967Q302.35553,201.74893,302.39657,201.81035Q302.43761,201.87177,302.46588,201.94002Q302.49415,202.00826,302.50856,202.08071Q302.52297,202.15316,302.52297,202.22703Q302.52297,202.3009,302.50856,202.37335Q302.49415,202.4458,302.46588,202.51404Q302.43761,202.58229,302.39657,202.64371Q302.35553,202.70513,302.3033,202.75736L297.53033,207.53033Q297.478097,207.582563,297.416678,207.623602Q297.355258,207.664641,297.287012,207.69291Q297.218767,207.721178,297.146318,207.735589Q297.0738684,207.75,296.999999877795,207.75Q296.9261313,207.75,296.853682,207.735589Q296.781233,207.721178,296.712987,207.692909Q296.644742,207.664641,296.583322,207.623602Q296.521903,207.582563,296.46967,207.53033Q296.417437,207.478097,296.376398,207.416678Q296.335359,207.355258,296.30709,207.287012Q296.278822,207.218767,296.264411,207.146318Q296.25,207.0738684,296.25,206.999999877795Q296.25,206.9261313,296.264411,206.853682Q296.278822,206.781233,296.307091,206.712987Q296.335359,206.644742,296.376398,206.583322Q296.417437,206.521903,296.46967,206.46967ZM297.53033,206.46967L302.3033,211.24264Q302.35553,211.29487,302.39657,211.35629Q302.43761,211.41771,302.46588,211.48596Q302.49415,211.5542,302.50856,211.62665Q302.52297,211.6991,302.52297,211.77297Q302.52297,211.84684,302.50856,211.91929Q302.49415,211.99174,302.46588,212.05998Q302.43761,212.12823,302.39657,212.18965Q302.35553,212.25107,302.3033,212.3033Q302.25107,212.35553,302.18965000000003,212.39657Q302.12823,212.43761,302.05998,212.46588Q301.99174,212.49415,301.91929,212.50856Q301.84684,212.52297,301.77297,212.52297Q301.6991,212.52297,301.62665,212.50856Q301.5542,212.49415,301.48596,212.46588Q301.41771,212.43761,301.35629,212.39657Q301.29487,212.35553,301.24264,212.3033L296.46967,207.53033Q296.417437,207.478097,296.376398,207.416678Q296.335359,207.355258,296.30709,207.287013Q296.278822,207.218767,296.264411,207.146318Q296.25,207.0738687,296.25,207.000000122205Q296.25,206.9261316,296.264411,206.853682Q296.278822,206.781233,296.30709,206.712988Q296.335359,206.644742,296.376398,206.583322Q296.417437,206.521903,296.46967,206.46967Q296.521903,206.417437,296.583322,206.376398Q296.644742,206.335359,296.712987,206.30709Q296.781233,206.278822,296.853682,206.264411Q296.9261313,206.25,296.999999877795,206.25Q297.0738684,206.25,297.146318,206.264411Q297.218767,206.278822,297.287012,206.30709Q297.355258,206.335359,297.416678,206.376398Q297.478097,206.417437,297.53033,206.46967Z" transform="matrix(-1,0,0,-1,594,414)" fill="#DDDDDD" fill-opacity="1"/></g><g style="mix-blend-mode:passthrough"><path d="M1.875,276.63451L1.875,274.94115L5.64258,272.656L6.86719,272.656L6.86719,286.156L5.25,286.156L5.25,274.62475L1.875,276.63451ZM11.25,281.281L11.25,279.8103L17.625,279.8103L17.625,281.281L11.25,281.281ZM30.1875,286.156L28.2539,286.156L24.4805,280.531L24.3164,280.531L21.8672,280.531L21.8672,286.156L20.25,286.156L20.25,272.656L24.2754,272.656Q25.6172,272.656,26.6602,273.14819Q27.709,273.64037,28.2891,274.54272Q28.875,275.4392,28.875,276.60522Q28.875,277.91772,28.1543,278.8787Q27.4336,279.8337,26.1738,280.2497L30.1875,286.156ZM21.8672,274.1267L21.8672,279.0603L24.123,279.0603Q25.6523,279.0603,26.4551,278.3923Q27.2578,277.7185,27.2578,276.61108Q27.2578,275.50951,26.4551,274.81811Q25.6523,274.1267,24.123,274.1267L21.8672,274.1267ZM30.75,272.656L40.5,272.656L40.5,274.1267L36.4922,274.1267L36.4922,286.156L34.875,286.156L34.875,274.1267L30.75,274.1267L30.75,272.656ZM41.25,272.656L51,272.656L51,274.1267L46.9922,274.1267L46.9922,286.156L45.375,286.156L45.375,274.1267L41.25,274.1267L41.25,272.656Z" fill="#DDDDDD" fill-opacity="1"/></g><g style="mix-blend-mode:passthrough"><path d="M424.5,276.63451L424.5,274.94115L428.26758,272.656L429.49219,272.656L429.49219,286.156L427.875,286.156L427.875,274.62475L424.5,276.63451ZM433.875,281.281L433.875,279.8103L440.25,279.8103L440.25,281.281L433.875,281.281ZM452.8125,286.156L450.8789,286.156L447.1055,280.531L446.9414,280.531L444.4922,280.531L444.4922,286.156L442.875,286.156L442.875,272.656L446.9004,272.656Q448.2422,272.656,449.2852,273.14819Q450.334,273.64037,450.9141,274.54272Q451.5,275.4392,451.5,276.60522Q451.5,277.91772,450.7793,278.8787Q450.0586,279.8337,448.7988,280.2497L452.8125,286.156ZM444.4922,274.1267L444.4922,279.0603L446.748,279.0603Q448.2773,279.0603,449.0801,278.3923Q449.8828,277.7185,449.8828,276.61108Q449.8828,275.50951,449.0801,274.81811Q448.2773,274.1267,446.748,274.1267L444.4922,274.1267ZM453.375,272.656L463.125,272.656L463.125,274.1267L459.1172,274.1267L459.1172,286.156L457.5,286.156L457.5,274.1267L453.375,274.1267L453.375,272.656ZM463.875,272.656L473.625,272.656L473.625,274.1267L469.6172,274.1267L469.6172,286.156L468,286.156L468,274.1267L463.875,274.1267L463.875,272.656Z" fill="#DDDDDD" fill-opacity="1"/></g><g style="mix-blend-mode:passthrough"><path d="M297,279.75L177,279.75L177,278.25L297,278.25L297,279.75ZM297.53,279.53033L292.757,284.3033Q292.705,284.35553,292.644,284.39657Q292.582,284.43761,292.514,284.46588Q292.446,284.49415,292.373,284.50856Q292.301,284.52297,292.227,284.52297Q292.153,284.52297,292.081,284.50856Q292.008,284.49415,291.94,284.46588Q291.872,284.43761,291.81,284.39657Q291.749,284.35553,291.697,284.3033Q291.644,284.25107,291.603,284.18965000000003Q291.562,284.12823,291.534,284.05998Q291.506,283.99174,291.491,283.91929Q291.477,283.84684,291.477,283.77297Q291.477,283.6991,291.491,283.62665Q291.506,283.5542,291.534,283.48596Q291.562,283.41771,291.603,283.35629Q291.644,283.29487,291.697,283.24264L296.47,278.46967Q296.522,278.417437,296.58299999999997,278.376398Q296.645,278.335359,296.71299999999997,278.30709Q296.781,278.278822,296.854,278.264411Q296.926,278.25,297,278.25Q297.074,278.25,297.146,278.264411Q297.219,278.278822,297.28700000000003,278.307091Q297.355,278.335359,297.41700000000003,278.376398Q297.478,278.417437,297.53,278.46967Q297.58299999999997,278.521903,297.624,278.583323Q297.665,278.644742,297.693,278.712988Q297.721,278.781233,297.736,278.853682Q297.75,278.9261316,297.75,279.000000174578Q297.75,279.0738687,297.736,279.146318Q297.721,279.218767,297.693,279.287013Q297.665,279.355258,297.624,279.416678Q297.58299999999997,279.478097,297.53,279.53033ZM296.47,279.53033L291.697,274.75736Q291.644,274.70513,291.603,274.64371Q291.562,274.58229,291.534,274.51404Q291.506,274.4458,291.491,274.37335Q291.477,274.3009,291.477,274.22703Q291.477,274.15316,291.491,274.08071Q291.506,274.00826,291.534,273.94002Q291.562,273.87177,291.603,273.81034999999997Q291.644,273.74893,291.697,273.6967Q291.749,273.64447,291.81,273.60343Q291.872,273.56239,291.94,273.53412Q292.008,273.50585,292.081,273.49144Q292.153,273.47703,292.227,273.47703Q292.301,273.47703,292.373,273.49144Q292.446,273.50585,292.514,273.53412Q292.582,273.56239,292.644,273.60343Q292.705,273.64447,292.757,273.6967L297.53,278.46967Q297.58299999999997,278.521903,297.624,278.583322Q297.665,278.644742,297.693,278.712987Q297.721,278.781233,297.736,278.853682Q297.75,278.9261313,297.75,278.999999825422Q297.75,279.0738684,297.736,279.146318Q297.721,279.218767,297.693,279.287012Q297.665,279.355258,297.624,279.416677Q297.58299999999997,279.478097,297.53,279.53033Q297.478,279.582563,297.41700000000003,279.623602Q297.355,279.664641,297.28700000000003,279.692909Q297.219,279.721178,297.146,279.735589Q297.074,279.75,297,279.75Q296.926,279.75,296.854,279.735589Q296.781,279.721178,296.71299999999997,279.69291Q296.645,279.664641,296.58299999999997,279.623602Q296.522,279.582563,296.47,279.53033ZM176.46967,278.46967L181.24264,273.6967Q181.29487,273.64447,181.35629,273.60343Q181.41771,273.56239,181.48596,273.53412Q181.5542,273.50585,181.62665,273.49144Q181.6991,273.47703,181.77297,273.47703Q181.84684,273.47703,181.91929,273.49144Q181.99174,273.50585,182.05998,273.53412Q182.12823,273.56239,182.18965,273.60343Q182.25107,273.64447,182.3033,273.6967Q182.35553,273.74893,182.39657,273.81034999999997Q182.43761,273.87177,182.46588,273.94002Q182.49415,274.00826,182.50856,274.08071Q182.52297,274.15316,182.52297,274.22703Q182.52297,274.3009,182.50856,274.37335Q182.49415,274.4458,182.46588,274.51404Q182.43761,274.58229,182.39657,274.64371Q182.35553,274.70513,182.3033,274.75736L177.53033,279.53033Q177.478097,279.582563,177.416678,279.623602Q177.355258,279.664641,177.287012,279.69291Q177.218767,279.721178,177.146318,279.735589Q177.0738684,279.75,176.999999877795,279.75Q176.9261313,279.75,176.853682,279.735589Q176.781233,279.721178,176.712987,279.692909Q176.644742,279.664641,176.583322,279.623602Q176.521903,279.582563,176.46967,279.53033Q176.417437,279.478097,176.376398,279.416678Q176.335359,279.355258,176.30709,279.287012Q176.278822,279.218767,176.264411,279.146318Q176.25,279.0738684,176.25,278.999999877795Q176.25,278.9261313,176.264411,278.853682Q176.278822,278.781233,176.307091,278.712987Q176.335359,278.644742,176.376398,278.583322Q176.417437,278.521903,176.46967,278.46967ZM177.53033,278.46967L182.3033,283.24264Q182.35553,283.29487,182.39657,283.35629Q182.43761,283.41771,182.46588,283.48596Q182.49415,283.5542,182.50856,283.62665Q182.52297,283.6991,182.52297,283.77297Q182.52297,283.84684,182.50856,283.91929Q182.49415,283.99174,182.46588,284.05998Q182.43761,284.12823,182.39657,284.18965000000003Q182.35553,284.25107,182.3033,284.3033Q182.25107,284.35553,182.18965,284.39657Q182.12823,284.43761,182.05998,284.46588Q181.99174,284.49415,181.91929,284.50856Q181.84684,284.52297,181.77297,284.52297Q181.6991,284.52297,181.62665,284.50856Q181.5542,284.49415,181.48596,284.46588Q181.41771,284.43761,181.35629,284.39657Q181.29487,284.35553,181.24264,284.3033L176.46967,279.53033Q176.417437,279.478097,176.376398,279.416678Q176.335359,279.355258,176.30709,279.287013Q176.278822,279.218767,176.264411,279.146318Q176.25,279.0738687,176.25,279.000000122205Q176.25,278.9261316,176.264411,278.853682Q176.278822,278.781233,176.30709,278.712988Q176.335359,278.644742,176.376398,278.583322Q176.417437,278.521903,176.46967,278.46967Q176.521903,278.417437,176.583322,278.376398Q176.644742,278.335359,176.712987,278.30709Q176.781233,278.278822,176.853682,278.264411Q176.9261313,278.25,176.999999877795,278.25Q177.0738684,278.25,177.146318,278.264411Q177.218767,278.278822,177.287012,278.30709Q177.355258,278.335359,177.416678,278.376398Q177.478097,278.417437,177.53033,278.46967Z" fill="#DDDDDD" fill-opacity="1"/></g></g></g></svg>