<svg xmlns="http://www.w3.org/2000/svg" xmlns:xlink="http://www.w3.org/1999/xlink" fill="none" version="1.1" width="646" height="168" viewBox="0 0 646 168"><g style="mix-blend-mode:passthrough"><g><g style="mix-blend-mode:passthrough"><path d="M3.31641,5.9685L3.31641,8.01928L1.875,8.01928L1.875,4.656L8.47266,4.656Q8.00977,3.73608,7.6875,3.21459L9.16992,2.74584Q9.65039,3.70092,10.0254,4.656L16.3184,4.656L16.3184,8.03686L14.877,8.03686L14.877,5.9685L3.31641,5.9685ZM10.5645,11.283Q13.2188,12.1619,17.2207,12.613L16.9512,13.9783Q12.2051,13.3162,9.04688,11.9978Q5.60742,13.4744,1.03125,14.1951L0.667969,12.8064Q4.44727,12.3025,7.45898,11.2419Q6.1875,10.5622,4.9043,9.58959Q3.7207,10.5212,2.5957,11.154L1.875,10.0583Q3.02344,9.48412,4.38867,8.3767Q5.75391,7.26928,6.52148,6.26733L7.72266,6.68334Q7.48828,6.99389,6.95508,7.6267L14.2676,7.6267L14.2676,8.79858Q12.6562,10.1697,10.5645,11.283ZM5.90625,8.83373Q7.2832,9.89428,8.94141,10.6501Q10.7461,9.84155,12.0645,8.83373L5.90625,8.83373ZM4.95703,19.281L3.56836,19.281L3.56836,13.9783L14.625,13.9783L14.625,19.281L13.2246,19.281L13.2246,18.5955L4.95703,18.5955L4.95703,19.281ZM13.2246,17.406L13.2246,15.238L4.95703,15.238L4.95703,17.406L13.2246,17.406ZM34.084,5.406L34.084,12.0622L22.418,12.0622Q22.3477,13.8435,22.1133,15.0798Q21.8789,16.3103,21.4219,17.3533Q20.9648,18.3962,20.1328,19.6208L18.7148,18.8122Q19.6641,17.5173,20.1387,16.4568Q20.6191,15.3904,20.8066,13.9841Q21,12.5779,21,10.2224L21,5.406L26.9766,5.406Q26.1562,3.81811,25.8457,3.33764L27.4102,2.85131Q27.7559,3.40795,28.7461,5.406L34.084,5.406ZM22.4531,10.656L32.625,10.656L32.625,6.75365L22.4531,6.75365L22.4531,9.91186L22.4531,10.656ZM50.9824,3.8474L52.2773,3.8474L52.2773,7.70287L43.2246,7.70287L43.2246,3.8474L44.5312,3.8474L44.5312,6.531L47.0566,6.531L47.0566,2.87475L48.3398,2.87475L48.3398,6.531L50.9824,6.531L50.9824,3.8474ZM42.375,5.95678L42.375,7.26928L36.8848,7.26928L36.8848,5.95678L39.1348,5.95678L38.959,5.1599Q38.8828,4.85522,38.748,4.26928Q38.6133,3.68334,38.543,3.44897L39.7852,3.17944Q39.9141,3.60717,40.3359,5.4353Q40.3711,5.55834,40.4648,5.95678L42.375,5.95678ZM42.4336,15.3728L42.5566,16.7029L39.4043,17.4412L36.9199,18.0388L36.6504,16.7439L39.5859,16.0232Q39.9316,14.4646,40.2891,12.1033Q40.6523,9.73608,40.8281,8.13061L42.0703,8.34155Q41.4961,12.5076,40.8633,15.7712L42.4336,15.3728ZM38.1797,14.9919L37.9805,13.5388Q37.9453,13.2634,37.6934,11.4763Q37.4414,9.6892,37.207,8.5349L38.3438,8.30639Q38.5781,9.39623,38.8359,11.1306Q39.0996,12.865,39.1582,13.2517L39.3691,14.74L38.1797,14.9919ZM53.0859,10.3572L48.2227,10.3572Q47.877,11.4646,47.6543,12.1443L52.5645,12.1443L52.5645,17.6697Q52.5645,18.6072,52.2012,18.9412Q51.8379,19.281,50.9648,19.281Q50.4609,19.281,49.9043,19.2107L49.6641,18.074Q50.2734,18.1443,50.7891,18.1443Q51.0762,18.1443,51.1699,17.9978Q51.2695,17.8455,51.2695,17.3884L51.2695,13.3513L49.5645,13.3513L49.5645,18.0564L48.375,18.0564L48.375,13.3513L46.957,13.3513L46.957,18.3435L45.75,18.3435L45.75,13.3513L44.25,13.3513L44.25,19.2107L43.043,19.2107L43.043,12.1443L46.2715,12.1443Q46.5059,11.488,46.8516,10.3572L42.6621,10.3572L42.6621,9.156L53.0859,9.156L53.0859,10.3572Z" fill="#DDDDDD" fill-opacity="1"/></g><g style="mix-blend-mode:passthrough"><path d="M606.4141,15.947Q607.457,17.0193,609.3496,18.238L608.5059,19.281Q606.6426,18.1267,605.5879,17.0193Q604.5977,18.1091,602.9863,19.281L602.1602,18.238Q603.7891,17.1306,604.7617,15.9997Q604.082,15.0622,603.5547,13.8845Q603.0332,12.7068,602.5996,11.1716L601.91992,11.1716L601.91992,19.281L600.625,19.281L600.625,3.906L608.2012,3.906L608.1074,6.90014Q608.0723,7.70287,607.8789,8.09545Q607.6914,8.48217,607.2168,8.64037Q606.7422,8.79272,605.7578,8.79272Q604.7031,8.79272,603.666,8.68725L603.4258,7.37475Q604.5215,7.53881,605.6055,7.53881Q606.0801,7.53881,606.3145,7.4392Q606.5547,7.33959,606.6367,7.12865Q606.7246,6.91772,606.7422,6.50756Q606.7773,6.24975,606.7949,5.9099Q606.8125,5.57006,606.8125,5.27709L601.91992,5.27709L601.91992,9.8767L608.4355,9.8767L608.4355,11.1892Q608.0898,12.6013,607.5977,13.7673Q607.1113,14.9333,606.4141,15.947ZM594.08008,3.94115L599.27734,3.94115L599.27734,17.4705Q599.27734,18.1794,599.14258,18.5603Q599.00781,18.9412,598.65039,19.1111Q598.29297,19.281,597.57227,19.281Q596.82227,19.281,596.03711,19.1755L595.75,17.8396Q596.75195,17.9861,597.26758,17.9861Q597.71289,17.9861,597.85352,17.7517Q598,17.5115,598,16.949L598,13.7087L595.32227,13.7087Q595.23438,15.2966,594.91797,16.656Q594.60156,18.0095,593.99219,19.3572L592.767578,18.9939Q593.30664,17.8923,593.57617,16.9665Q593.8457,16.0408,593.96289,14.6521Q594.08008,13.2576,594.08008,10.8025L594.08008,3.94115ZM598,8.25365L598,5.27709L595.375,5.27709L595.375,8.25365L598,8.25365ZM598,12.449L598,9.531L595.375,9.531L595.375,11.4001Q595.375,12.115,595.35742,12.449L598,12.449ZM603.9004,11.1716Q604.5391,13.4626,605.5879,14.9275Q606.6484,13.3572,607.1582,11.1716L603.9004,11.1716ZM620.4941,9.05639Q622.9961,10.0056,627.1738,10.697L626.8105,12.0974Q624.2909999999999,11.6111,622.3926,11.0662Q620.4941,10.5212,618.9824,9.80639Q615.8301,11.2361,611.2773,12.3318L610.791,10.949Q614.6641,10.1638,617.5059,9.02123Q616.0117,8.13061,614.5352,6.75365Q613.4219,7.79076,612.0684,8.64623L611.2773,7.64428Q612.5898,6.80639,613.9668,5.42944Q615.3438,4.04662,616.1758,2.80444L617.4883,3.3435Q617.1074,3.91772,616.5332,4.63842L624.8887,4.63842L624.8887,5.82787Q622.9082,7.73217,620.4941,9.05639ZM615.4902,5.84545Q616.9316,7.38061,618.9473,8.3767Q621.25,7.2517,622.7617,5.84545L615.4902,5.84545ZM618.5488,11.1072Q618.5312,11.2126,618.4668,11.7634Q618.4082,12.3142,618.3145,12.906L625.1758,12.906Q625.0117,14.9802,624.6367,16.9958Q624.4199,18.156,623.8867,18.7009Q623.3535,19.2458,622.293,19.2634Q620.7109,19.2986,619.1055,19.0994L618.8535,17.7927Q620.2598,18.0212,621.7012,18.0212Q622.3633,18.0212,622.6621,17.7576Q622.9609,17.488,623.1602,16.6853Q623.4648,15.4607,623.5527,14.1833L618.0625,14.1833Q617.7227,15.4138,617.0254,16.3044Q616.334,17.1951,615.1445,17.9275Q613.9609,18.654,612.0156,19.4216L611.1895,18.238Q612.8828,17.6287,613.9316,17.0544Q614.9863,16.4802,615.6074,15.7947Q616.2285,15.1091,616.5332,14.1833L611.7812,14.1833L611.7812,12.906L616.8203,12.906Q617.002,11.7165,617.0371,11.0896L618.5488,11.1072ZM630.0098,3.85912L635.9629,3.85912L635.9629,8.406L630.0098,8.406L630.0098,3.85912ZM637.6738,3.85912L643.668,3.85912L643.668,8.406L637.6738,8.406L637.6738,3.85912ZM631.3047,7.2224L634.6855,7.2224L634.6855,5.031L631.3047,5.031L631.3047,7.2224ZM638.9512,7.2224L642.4082,7.2224L642.4082,5.031L638.9512,5.031L638.9512,7.2224ZM644.7871,14.2888Q644.0488,14.1599,643.5625,14.0544L643.5625,19.281L642.2852,19.281L642.2852,18.531L638.9336,18.531L638.9336,19.281L637.6562,19.281L637.6562,13.656L642.0684,13.656Q639.168,12.7771,637.4043,11.1482L636.1797,11.1482Q635.5352,11.8923,634.4277,12.4841Q633.3203,13.0759,631.4277,13.656L635.9629,13.656L635.9629,19.281L634.6855,19.281L634.6855,18.531L631.4453,18.531L631.4453,19.281L630.1504,19.281L630.1504,14.0369L628.9434,14.3591L628.5508,13.0759Q630.7246,12.6306,632.0723,12.1736Q633.4258,11.7107,634.2168,11.1482L629.125,11.1482L629.125,9.906L635.3711,9.906Q635.6582,9.45483,635.9102,8.74584L637.4219,8.92162Q637.1875,9.48412,636.9707,9.906L640.6797,9.906Q640.4453,9.57201,639.9941,9.00365L640.9492,8.51733Q641.5469,9.22631,642.0508,9.906L644.5703,9.906L644.5703,11.1482L639.3145,11.1482Q640.2695,11.8396,641.6816,12.3025Q643.0938,12.7595,645.1797,13.0408L644.7871,14.2888ZM634.6855,17.3943L634.6855,14.8455L631.4453,14.8455L631.4453,17.3943L634.6855,17.3943ZM638.9336,14.8455L638.9336,17.3943L642.2852,17.3943L642.2852,14.8455L638.9336,14.8455Z" fill="#DDDDDD" fill-opacity="1"/></g><g style="mix-blend-mode:passthrough"><path d="M6.9668,62.7341Q6.21094,62.1072,4.99219,61.158Q4.86914,61.0818,4.65234,60.9001L4.65234,67.281L3.22852,67.281L3.22852,60.0505Q2.2207,61.199,1.06641,62.2654L0.5625,60.824Q1.91602,59.5935,3.05859,58.1404Q4.20117,56.68139,4.93945,55.281L1.125,55.281L1.125,53.83959L3.5918,53.83959Q3.19922,52.47436,2.75977,51.24975L4.11328,50.88647Q4.45898,51.84155,5.02734,53.83959L6.57422,53.83959L6.57422,55.17553Q5.7832,56.73998,4.65234,58.263400000000004L4.65234,59.3357L5.19141,59.74Q6.09375,58.6501,6.97852,57.37865L7.98633,58.1755L7.6582,58.638400000000004Q6.63867,60.033,6.2168,60.531L7.74609,61.6912L6.9668,62.7341ZM16.6406,52.39819Q16.6582,54.99975,16.4883,58.8611Q16.3184,62.7224,16.0605,64.5857Q15.9141,65.6462,15.6094,66.2146Q15.3105,66.7888,14.6719,67.0349Q14.0332,67.281,12.8613,67.281Q12.0176,67.281,11.1387,67.1697L10.8457,65.7107Q11.8418,65.8747,12.5039,65.8747Q13.3652,65.8747,13.7695,65.74Q14.1738,65.5994,14.3613,65.2126Q14.5488,64.8259,14.6367,63.9822Q14.877,62.013400000000004,15,59.2068Q15.1289,56.39428,15.1113,53.87475L11.3145,53.87475Q11.2793,56.171620000000004,11.2266,56.79272Q11.0625,59.5525,10.6758,61.2107Q10.2949,62.863,9.44531,64.2458Q8.5957,65.6228,6.88477,67.4626L5.64258,66.8122Q7.31836,65.0662,8.12109,63.783Q8.92969,62.499700000000004,9.28125,60.9353Q9.63867,59.365,9.80273,56.62865L9.87305,53.87475L7.41797,53.87475L7.41797,52.39819L16.6406,52.39819ZM33.1641,57.70678Q31.6289,57.8767,29.0156,58.199L26.9473,58.4451L25.5879,58.615L25.2832,57.23803Q25.6406,57.0974,25.793,56.98022Q25.9512,56.857169999999996,26.1094,56.63451Q26.8184,55.66772,27.709,53.98608Q28.6055,52.29858,29.2207,50.81615L30.5449,51.30248Q29.9824,52.72045,29.1445,54.34936Q28.3066,55.97826,27.5625,57.03295L32.5547,56.411860000000004Q31.8867,54.97631,31.1602,53.64037L32.3262,53.06615Q32.8301,53.857169999999996,33.6504,55.46264Q34.4766,57.06225,35.0859,58.403999999999996L33.791,59.0662L33.1641,57.70678ZM24.5801,55.656Q24.3516,58.2986,24.0293,59.9978Q23.7129,61.6912,23.1738,63.0212Q24.5449,64.2048,25.4355,65.0251L24.4922,66.2087Q23.9355,65.658,22.5293,64.3279Q21.5742,65.7986,19.793,67.4802L18.8027,66.6951Q19.7578,65.7576,20.4141,64.9724Q21.0703,64.1872,21.5039,63.4138Q20.1211,62.2185,19.2715,61.591499999999996Q19.916,58.99,20.3848,55.656L18.75,55.656L18.75,54.27319L20.5664,54.27319Q20.7422,52.69115,20.8887,50.98022L22.2773,51.06811Q22.1543,52.69115,21.9551,54.27319L24.5801,54.27319L24.5801,55.656ZM20.7832,61.0173Q21.416,61.5037,22.1133,62.113Q22.5234,60.9587,22.752,59.5232Q22.9805,58.0876,23.2148,55.656L21.7559,55.656Q21.3809,58.4744,20.7832,61.0173ZM27.668,67.281L26.25,67.281L26.25,60.156L34.043,60.156L34.043,67.2986L32.625,67.2986L32.625,66.531L27.668,66.531L27.668,67.281ZM32.625,65.1833L32.625,61.4861L27.668,61.4861L27.668,65.1833L32.625,65.1833ZM49.6406,62.8982Q50.8828,64.7146,53.1152,66.4431L52.2188,67.6501Q50.127,65.9568,48.8496,64.1404Q47.6777,65.7927,45.5918,67.574L44.6895,66.3904Q46.8691,64.6267,48.041,62.822Q46.9043,60.6716,46.3125,57.6892Q46.1836,57.94115,46.0664,58.1345Q45.9492,58.322,45.8789,58.4451L44.8887,57.36108Q45.75,55.9724,46.418,54.32006Q47.0859,52.66772,47.4258,51.05053L48.7793,51.27905Q48.5273,52.48022,48.0059,53.9978L52.8281,53.9978L52.8281,55.4392L51.5684,55.4392Q51.334,57.89428,50.8828,59.6755Q50.4316,61.4568,49.6406,62.8982ZM36.6211,59.0837Q37.5586,58.5154,38.4141,57.73608Q39.2695,56.95678,39.9199,56.06615L37.0723,56.06615L37.0723,54.88256L40.6406,54.88256L40.6406,51.156L41.918,51.156L41.918,54.88256L45.0703,54.88256L45.0703,56.06615L41.918,56.06615L41.918,56.318110000000004L44.9414,58.3689L44.2734,59.365Q43.3242,58.574,41.918,57.630610000000004L41.918,59.4705L40.6406,59.4705L40.6406,56.857169999999996Q40.0078,57.78881,39.1523,58.6443Q38.2969,59.499700000000004,37.3242,60.156L36.6211,59.0837ZM38.9121,54.5603Q38.3848,53.67553,37.3066,52.16381L38.209,51.55444L39.8848,53.92748L38.9121,54.5603ZM45.3047,52.19897Q44.4902,53.388419999999996,43.5352,54.64819L42.6035,53.98022Q43.6113,52.65014,44.332,51.57201L45.3047,52.19897ZM47.2324,55.88451Q47.502,57.61889,47.8652,58.9607Q48.2344,60.3025,48.7969,61.4568Q49.3535,60.249700000000004,49.7051,58.7849Q50.0625,57.32006,50.2559,55.4392L47.4258,55.4392L47.2324,55.88451ZM44.1152,66.7302Q43.2891,66.2087,41.8828,65.488Q40.2246,66.6247,37.1074,67.615L36.5156,66.3904Q39.1289,65.6345,40.5527,64.8611Q39.2168,64.2458,38.584,63.9763L37.8633,63.653999999999996Q38.4551,62.699,38.8008,62.031L36.75,62.031L36.75,60.865L39.3984,60.865Q39.7734,59.9275,39.8848,59.605199999999996L41.2148,59.9685Q40.998,60.5779,40.875,60.865L44.6719,60.865L44.6719,61.978300000000004Q43.9688,63.5779,42.9609,64.5915Q43.793,64.9841,44.8008,65.5759L44.1152,66.7302ZM39.7031,63.167699999999996Q40.0254,63.3083,40.9629,63.6892L41.7715,64.029Q42.6738,63.2732,43.2129,62.031L40.3184,62.031Q39.9199,62.7869,39.7031,63.167699999999996ZM60.3398,59.4763L58.6172,60.2029L58.6172,65.3826Q58.6172,66.1619,58.4238,66.5603Q58.2363,66.9587,57.7852,67.1169Q57.3398,67.281,56.4961,67.281Q56.1328,67.281,55.377,67.2048L55.1426,65.8747Q55.7344,65.9802,56.3438,65.9802Q56.8652,65.9802,57.0527,65.7634Q57.2461,65.5408,57.2461,64.9314L57.2461,60.7244L55.0723,61.533L54.7676,60.1853Q55.8457,59.8337,57.2461,59.312200000000004L57.2461,55.76733L55.125,55.76733L55.125,54.46655L57.2461,54.46655L57.2461,51.27905L58.6172,51.27905L58.6172,54.46655L60.2344,54.46655L60.2344,55.76733L58.6172,55.76733L58.6172,58.7556Q59.6895,58.2517,60.0879,58.040800000000004L60.3398,59.4763ZM71.2441,59.781L67.3535,59.781L67.3535,61.5681L70.125,61.5681L70.125,67.281L68.7773,67.281L68.7773,66.5955L64.3477,66.5955L64.3477,67.2986L63,67.2986L63,61.5681L66,61.5681L66,59.781L62.2617,59.781Q62.1738,62.2712,61.7871,63.9294Q61.4062,65.5876,60.5508,67.281L59.2441,66.6482Q60.0117,65.2537,60.4043,64.0232Q60.8027,62.7869,60.9609,61.2341Q61.125,59.6814,61.125,57.24975L61.125,52.16381L70.4355,52.16381L70.4355,56.52319L67.3535,56.52319L67.3535,58.5564L71.2441,58.5564L71.2441,59.781ZM69.0469,55.281L69.0469,53.406L62.4902,53.406L62.4902,55.281L69.0469,55.281ZM62.4902,58.5564L66,58.5564L66,56.52319L62.4902,56.52319L62.4902,57.390370000000004L62.4902,58.5564ZM64.3477,65.406L68.7773,65.406L68.7773,62.792699999999996L64.3477,62.792699999999996L64.3477,65.406ZM88.7871,62.9099Q88.752,63.4724,88.6816,64.1228Q88.6113,64.7673,88.5352,65.2537Q88.4121,66.0681,88.1602,66.4548Q87.9082,66.8415,87.3809,67.0056Q86.8535,67.1697,85.7871,67.24Q83.959,67.3689,81.6094,67.3689Q79.4004,67.3689,77.6602,67.24Q76.6523,67.1638,76.0957,66.9646Q75.5391,66.7654,75.2695,66.2673Q75,65.7693,75,64.8318L75,57.161860000000004Q74.4609,57.78881,73.9746,58.2751L72.8555,57.1267Q74.1738,55.88451,75.2168,54.3142Q76.2598,52.73803,76.834,51.12084L78.375,51.607169999999996Q78.0996,52.29272,77.7305,53.031L87.3105,53.031Q87.3281,53.58178,87.3281,54.73608Q87.3281,56.48803,87.2578,58.281Q87.1875,60.074,87.0762,61.3279Q86.9883,62.2888,86.707,62.8103Q86.4316,63.3318,85.8984,63.5486Q85.3711,63.7595,84.4922,63.7595Q84.2051,63.7595,83.1973,63.6833Q83.0332,63.6833,82.6055,63.6482L82.4238,62.2595Q83.6836,62.3708,84.2344,62.388400000000004Q84.791,62.4236,85.0605,62.2947Q85.3359,62.1599,85.4473,61.8435Q85.5645,61.527100000000004,85.6406,60.853300000000004Q85.8926,58.105199999999996,85.8926,55.56225Q85.8926,54.77123,85.875,54.40209L77.0156,54.40209Q76.3477,55.47436,75.6152,56.406L82.875,56.406L82.875,61.8962L76.3887,61.8962L76.3887,64.4333Q76.3887,65.0251,76.5293,65.3064Q76.6758,65.5818,76.9922,65.6872Q77.3145,65.7927,78.0176,65.8513Q79.6699,65.9802,81.8027,65.9802Q83.959,65.9802,85.5938,65.8455Q86.2559,65.7869,86.5488,65.6697Q86.8477,65.5525,86.9824,65.2771Q87.1172,64.9958,87.1875,64.3865Q87.2402,63.988,87.2812,63.4197Q87.3281,62.8455,87.3281,62.4939L88.7871,62.9099ZM81.4863,60.531L81.4863,57.81225L76.3887,57.81225L76.3887,60.531L81.4863,60.531ZM93.6328,58.656Q93.2168,58.656,92.918,58.3513Q92.625,58.0466,92.625,57.61303Q92.625,57.17944,92.918,56.87475Q93.2168,56.57006,93.6328,56.57006Q94.0605,56.57006,94.3594,56.87475Q94.6582,57.17944,94.6582,57.61303Q94.6582,58.0466,94.3594,58.3513Q94.0605,58.656,93.6328,58.656ZM93.6328,66.3728Q93.2168,66.3728,92.918,66.0681Q92.625,65.7576,92.625,65.3298Q92.625,64.8962,92.918,64.5915Q93.2168,64.281,93.6328,64.281Q94.0605,64.281,94.3594,64.5915Q94.6582,64.8962,94.6582,65.3298Q94.6582,65.7576,94.3594,66.0681Q94.0605,66.3728,93.6328,66.3728ZM113.057,52.656Q114.955,52.656,116.479,53.44701Q118.002,54.23803,118.869,55.76147Q119.742,57.27905,119.742,59.388400000000004Q119.742,61.5095,118.881,63.033Q118.02,64.5505,116.496,65.3533Q114.973,66.156,113.057,66.156L109.5,66.156L109.5,52.656L113.057,52.656ZM112.881,64.6853Q115.342,64.6853,116.73,63.3083Q118.125,61.9314,118.125,59.4001Q118.125,56.90405,116.725,55.51537Q115.324,54.1267,112.881,54.1267L111.117,54.1267L111.117,64.6853L112.881,64.6853ZM127.383,64.8728Q129.545,64.8728,130.553,62.822L131.848,63.5955Q131.297,64.8904,130.131,65.6169Q128.971,66.3435,127.453,66.3435Q125.789,66.3435,124.43,65.4646Q123.07,64.5857,122.285,63.0037Q121.5,61.4216,121.5,59.4001Q121.5,57.37865,122.285,55.79662Q123.07,54.21459,124.43,53.34155Q125.789,52.4685,127.453,52.4685Q128.971,52.4685,130.131,53.200919999999996Q131.297,53.92748,131.848,55.21655L130.553,55.98998Q129.545,53.9392,127.383,53.9392Q126.123,53.9392,125.15,54.62475Q124.184,55.3103,123.65,56.55248Q123.117,57.78881,123.117,59.4001Q123.117,61.0056,123.65,62.2595Q124.184,63.5076,125.15,64.1931Q126.123,64.8728,127.383,64.8728ZM135.492,66.156L133.875,66.156L133.875,52.656L135.492,52.656L135.492,66.156ZM141.932,52.656Q143.83,52.656,145.354,53.44701Q146.877,54.23803,147.744,55.76147Q148.617,57.27905,148.617,59.388400000000004Q148.617,61.5095,147.756,63.033Q146.895,64.5505,145.371,65.3533Q143.848,66.156,141.932,66.156L138.375,66.156L138.375,52.656L141.932,52.656ZM141.756,64.6853Q144.217,64.6853,145.605,63.3083Q147,61.9314,147,59.4001Q147,56.90405,145.6,55.51537Q144.199,54.1267,141.756,54.1267L139.992,54.1267L139.992,64.6853L141.756,64.6853ZM158.625,58.2517L150.375,58.2517L150.375,56.781L158.625,56.781L158.625,58.2517ZM158.625,62.031L150.375,62.031L150.375,60.5603L158.625,60.5603L158.625,62.031ZM169.125,62.406Q169.125,63.5662,168.604,64.4626Q168.082,65.3533,167.068,65.8513Q166.061,66.3435,164.678,66.3435Q162.744,66.3435,161.373,65.4353Q160.002,64.5212,159.568,63.0095L160.828,62.230199999999996Q161.326,63.5076,162.299,64.1931Q163.271,64.8728,164.719,64.8728Q166.037,64.8728,166.77,64.2869Q167.508,63.6951,167.508,62.6462Q167.508,61.7966,167.051,61.2693Q166.594,60.7419,165.926,60.449Q165.264,60.156,164.098,59.8103Q162.803,59.417699999999996,162.012,59.072Q161.221,58.7205,160.67,58.0173Q160.125,57.3142,160.125,56.171620000000004Q160.125,55.01733,160.705,54.17944Q161.285,53.33569,162.299,52.90209Q163.318,52.4685,164.584,52.4685Q166.354,52.4685,167.443,53.25951Q168.539,54.044669999999996,168.92,55.2517L167.678,56.02514Q167.256,55.04662,166.506,54.49584Q165.756,53.9392,164.52,53.9392Q163.26,53.9392,162.498,54.5017Q161.742,55.05834,161.742,56.0017Q161.742,56.69897,162.152,57.14428Q162.562,57.58373,163.178,57.84155Q163.799,58.0994,164.883,58.415800000000004Q166.248,58.8201,167.086,59.2068Q167.924,59.5876,168.521,60.3669Q169.125,61.1404,169.125,62.406ZM171.375,56.63451L171.375,54.94115L175.143,52.656L176.367,52.656L176.367,66.156L174.75,66.156L174.75,54.62475L171.375,56.63451ZM182.18,63.653999999999996Q183.17,64.2458,184.09,65.0662Q185.01,65.8865,185.725,66.824L184.699,67.7556Q183.299,65.7986,181.477,64.4451L182.18,63.653999999999996ZM207.375,62.406Q207.375,63.5662,206.854,64.4626Q206.332,65.3533,205.318,65.8513Q204.311,66.3435,202.928,66.3435Q200.994,66.3435,199.623,65.4353Q198.252,64.5212,197.818,63.0095L199.078,62.230199999999996Q199.576,63.5076,200.549,64.1931Q201.521,64.8728,202.969,64.8728Q204.287,64.8728,205.02,64.2869Q205.758,63.6951,205.758,62.6462Q205.758,61.7966,205.301,61.2693Q204.844,60.7419,204.176,60.449Q203.514,60.156,202.348,59.8103Q201.053,59.417699999999996,200.262,59.072Q199.471,58.7205,198.92,58.0173Q198.375,57.3142,198.375,56.171620000000004Q198.375,55.01733,198.955,54.17944Q199.535,53.33569,200.549,52.90209Q201.568,52.4685,202.834,52.4685Q204.604,52.4685,205.693,53.25951Q206.789,54.044669999999996,207.17,55.2517L205.928,56.02514Q205.506,55.04662,204.756,54.49584Q204.006,53.9392,202.77,53.9392Q201.51,53.9392,200.748,54.5017Q199.992,55.05834,199.992,56.0017Q199.992,56.69897,200.402,57.14428Q200.812,57.58373,201.428,57.84155Q202.049,58.0994,203.133,58.415800000000004Q204.498,58.8201,205.336,59.2068Q206.174,59.5876,206.771,60.3669Q207.375,61.1404,207.375,62.406ZM214.383,64.8728Q216.545,64.8728,217.553,62.822L218.848,63.5955Q218.297,64.8904,217.131,65.6169Q215.971,66.3435,214.453,66.3435Q212.789,66.3435,211.43,65.4646Q210.07,64.5857,209.285,63.0037Q208.5,61.4216,208.5,59.4001Q208.5,57.37865,209.285,55.79662Q210.07,54.21459,211.43,53.34155Q212.789,52.4685,214.453,52.4685Q215.971,52.4685,217.131,53.200919999999996Q218.297,53.92748,218.848,55.21655L217.553,55.98998Q216.545,53.9392,214.383,53.9392Q213.123,53.9392,212.15,54.62475Q211.184,55.3103,210.65,56.55248Q210.117,57.78881,210.117,59.4001Q210.117,61.0056,210.65,62.2595Q211.184,63.5076,212.15,64.1931Q213.123,64.8728,214.383,64.8728ZM222.492,66.156L220.875,66.156L220.875,52.656L222.492,52.656L222.492,66.156ZM228.932,52.656Q230.83,52.656,232.354,53.44701Q233.877,54.23803,234.744,55.76147Q235.617,57.27905,235.617,59.388400000000004Q235.617,61.5095,234.756,63.033Q233.895,64.5505,232.371,65.3533Q230.848,66.156,228.932,66.156L225.375,66.156L225.375,52.656L228.932,52.656ZM228.756,64.6853Q231.217,64.6853,232.605,63.3083Q234,61.9314,234,59.4001Q234,56.90405,232.6,55.51537Q231.199,54.1267,228.756,54.1267L226.992,54.1267L226.992,64.6853L228.756,64.6853ZM245.625,58.2517L237.375,58.2517L237.375,56.781L245.625,56.781L245.625,58.2517ZM245.625,62.031L237.375,62.031L237.375,60.5603L245.625,60.5603L245.625,62.031ZM253.008,64.8728Q255.17,64.8728,256.178,62.822L257.473,63.5955Q256.922,64.8904,255.756,65.6169Q254.596,66.3435,253.078,66.3435Q251.414,66.3435,250.055,65.4646Q248.695,64.5857,247.91,63.0037Q247.125,61.4216,247.125,59.4001Q247.125,57.37865,247.91,55.79662Q248.695,54.21459,250.055,53.34155Q251.414,52.4685,253.078,52.4685Q254.596,52.4685,255.756,53.200919999999996Q256.922,53.92748,257.473,55.21655L256.178,55.98998Q255.17,53.9392,253.008,53.9392Q251.748,53.9392,250.775,54.62475Q249.809,55.3103,249.275,56.55248Q248.742,57.78881,248.742,59.4001Q248.742,61.0056,249.275,62.2595Q249.809,63.5076,250.775,64.1931Q251.748,64.8728,253.008,64.8728ZM259.875,56.63451L259.875,54.94115L263.643,52.656L264.867,52.656L264.867,66.156L263.25,66.156L263.25,54.62475L259.875,56.63451Z" fill="#DDDDDD" fill-opacity="1"/></g><g style="mix-blend-mode:passthrough"><path d="M1.875,128.63451L1.875,126.94115L5.64258,124.656L6.86719,124.656L6.86719,138.156L5.25,138.156L5.25,126.62475L1.875,128.63451ZM11.25,133.281L11.25,131.8103L17.625,131.8103L17.625,133.281L11.25,133.281ZM30.1875,138.156L28.2539,138.156L24.4805,132.531L24.3164,132.531L21.8672,132.531L21.8672,138.156L20.25,138.156L20.25,124.656L24.2754,124.656Q25.6172,124.656,26.6602,125.14819Q27.709,125.64037,28.2891,126.54272Q28.875,127.4392,28.875,128.60522Q28.875,129.91772,28.1543,130.8787Q27.4336,131.8337,26.1738,132.2497L30.1875,138.156ZM21.8672,126.1267L21.8672,131.0603L24.123,131.0603Q25.6523,131.0603,26.4551,130.3923Q27.2578,129.7185,27.2578,128.61108Q27.2578,127.50951,26.4551,126.81811Q25.6523,126.1267,24.123,126.1267L21.8672,126.1267ZM30.75,124.656L40.5,124.656L40.5,126.1267L36.4922,126.1267L36.4922,138.156L34.875,138.156L34.875,126.1267L30.75,126.1267L30.75,124.656ZM41.25,124.656L51,124.656L51,126.1267L46.9922,126.1267L46.9922,138.156L45.375,138.156L45.375,126.1267L41.25,126.1267L41.25,124.656ZM65.0156,134.8982Q66.2578,136.7146,68.4902,138.44310000000002L67.5938,139.6501Q65.502,137.9568,64.2246,136.1404Q63.0527,137.7927,60.9668,139.574L60.0645,138.3904Q62.2441,136.6267,63.416,134.822Q62.2793,132.6716,61.6875,129.6892Q61.5586,129.94115,61.4414,130.1345Q61.3242,130.322,61.2539,130.4451L60.2637,129.36108Q61.125,127.9724,61.793,126.32006Q62.4609,124.66772,62.8008,123.05053L64.1543,123.27905Q63.9023,124.48022,63.3809,125.9978L68.2031,125.9978L68.2031,127.4392L66.9434,127.4392Q66.709,129.89428,66.2578,131.6755Q65.8066,133.4568,65.0156,134.8982ZM51.9961,131.0837Q52.9336,130.5154,53.7891,129.73608Q54.6445,128.95678,55.2949,128.06615L52.4473,128.06615L52.4473,126.88256L56.0156,126.88256L56.0156,123.156L57.293,123.156L57.293,126.88256L60.4453,126.88256L60.4453,128.06615L57.293,128.06615L57.293,128.31811L60.3164,130.3689L59.6484,131.365Q58.6992,130.574,57.293,129.63061L57.293,131.4705L56.0156,131.4705L56.0156,128.85717Q55.3828,129.78881,54.5273,130.6443Q53.6719,131.4997,52.6992,132.156L51.9961,131.0837ZM54.2871,126.5603Q53.7598,125.67553,52.6816,124.16381L53.584,123.55444L55.2598,125.92748L54.2871,126.5603ZM60.6797,124.19897Q59.8652,125.38842,58.9102,126.64819L57.9785,125.98022Q58.9863,124.65014,59.707,123.57201L60.6797,124.19897ZM62.6074,127.88451Q62.877,129.61889,63.2402,130.9607Q63.6094,132.3025,64.1719,133.4568Q64.7285,132.2497,65.0801,130.7849Q65.4375,129.32006,65.6309,127.4392L62.8008,127.4392L62.6074,127.88451ZM59.4902,138.7302Q58.6641,138.2087,57.2578,137.488Q55.5996,138.6247,52.4824,139.615L51.8906,138.3904Q54.5039,137.6345,55.9277,136.8611Q54.5918,136.2458,53.959,135.9763L53.2383,135.654Q53.8301,134.699,54.1758,134.031L52.125,134.031L52.125,132.865L54.7734,132.865Q55.1484,131.9275,55.2598,131.6052L56.5898,131.9685Q56.373,132.5779,56.25,132.865L60.0469,132.865L60.0469,133.9783Q59.3438,135.5779,58.3359,136.5915Q59.168,136.9841,60.1758,137.5759L59.4902,138.7302ZM55.0781,135.1677Q55.4004,135.3083,56.3379,135.6892L57.1465,136.029Q58.0488,135.2732,58.5879,134.031L55.6934,134.031Q55.2949,134.7869,55.0781,135.1677ZM75.7148,131.4763L73.9922,132.2029L73.9922,137.3826Q73.9922,138.1619,73.7988,138.5603Q73.6113,138.9587,73.1602,139.1169Q72.7148,139.281,71.8711,139.281Q71.5078,139.281,70.752,139.2048L70.5176,137.8747Q71.1094,137.9802,71.7188,137.9802Q72.2402,137.9802,72.4277,137.7634Q72.6211,137.5408,72.6211,136.9314L72.6211,132.7244L70.4473,133.533L70.1426,132.1853Q71.2207,131.8337,72.6211,131.3122L72.6211,127.76733L70.5,127.76733L70.5,126.46655L72.6211,126.46655L72.6211,123.27905L73.9922,123.27905L73.9922,126.46655L75.6094,126.46655L75.6094,127.76733L73.9922,127.76733L73.9922,130.7556Q75.0645,130.2517,75.4629,130.0408L75.7148,131.4763ZM86.6191,131.781L82.7285,131.781L82.7285,133.5681L85.5,133.5681L85.5,139.281L84.1523,139.281L84.1523,138.59550000000002L79.7227,138.59550000000002L79.7227,139.2986L78.375,139.2986L78.375,133.5681L81.375,133.5681L81.375,131.781L77.6367,131.781Q77.5488,134.2712,77.1621,135.9294Q76.7812,137.5876,75.9258,139.281L74.6191,138.6482Q75.3867,137.2537,75.7793,136.0232Q76.1777,134.7869,76.3359,133.2341Q76.5,131.6814,76.5,129.24975L76.5,124.16381L85.8105,124.16381L85.8105,128.52319L82.7285,128.52319L82.7285,130.5564L86.6191,130.5564L86.6191,131.781ZM84.4219,127.281L84.4219,125.406L77.8652,125.406L77.8652,127.281L84.4219,127.281ZM77.8652,130.5564L81.375,130.5564L81.375,128.52319L77.8652,128.52319L77.8652,129.39037L77.8652,130.5564ZM79.7227,137.406L84.1523,137.406L84.1523,134.7927L79.7227,134.7927L79.7227,137.406ZM104.162,134.9099Q104.127,135.4724,104.057,136.1228Q103.986,136.7673,103.91,137.2537Q103.787,138.06810000000002,103.535,138.4548Q103.283,138.8415,102.756,139.00560000000002Q102.229,139.1697,101.162,139.24Q99.334,139.3689,96.9844,139.3689Q94.7754,139.3689,93.0352,139.24Q92.0273,139.1638,91.4707,138.9646Q90.9141,138.7654,90.6445,138.2673Q90.375,137.7693,90.375,136.8318L90.375,129.16186Q89.8359,129.78881,89.3496,130.2751L88.2305,129.1267Q89.5488,127.88451,90.5918,126.3142Q91.6348,124.73803,92.209,123.12084L93.75,123.60717Q93.4746,124.29272,93.1055,125.031L102.686,125.031Q102.703,125.58178,102.703,126.73608Q102.703,128.48803,102.633,130.281Q102.562,132.074,102.451,133.3279Q102.363,134.2888,102.082,134.8103Q101.807,135.3318,101.273,135.5486Q100.746,135.7595,99.8672,135.7595Q99.5801,135.7595,98.5723,135.6833Q98.4082,135.6833,97.9805,135.6482L97.7988,134.2595Q99.0586,134.3708,99.6094,134.3884Q100.166,134.4236,100.436,134.2947Q100.711,134.1599,100.822,133.8435Q100.939,133.5271,101.016,132.8533Q101.268,130.1052,101.268,127.56225Q101.268,126.77123,101.25,126.40209L92.3906,126.40209Q91.7227,127.47436,90.9902,128.406L98.25,128.406L98.25,133.8962L91.7637,133.8962L91.7637,136.4333Q91.7637,137.0251,91.9043,137.3064Q92.0508,137.5818,92.3672,137.6872Q92.6895,137.7927,93.3926,137.8513Q95.0449,137.9802,97.1777,137.9802Q99.334,137.9802,100.969,137.84550000000002Q101.631,137.7869,101.924,137.6697Q102.223,137.5525,102.357,137.2771Q102.492,136.9958,102.562,136.3865Q102.615,135.988,102.656,135.4197Q102.703,134.8455,102.703,134.4939L104.162,134.9099ZM96.8613,132.531L96.8613,129.81225L91.7637,129.81225L91.7637,132.531L96.8613,132.531ZM109.008,130.656Q108.592,130.656,108.293,130.3513Q108,130.0466,108,129.61303Q108,129.17944,108.293,128.87475Q108.592,128.57006,109.008,128.57006Q109.436,128.57006,109.734,128.87475Q110.033,129.17944,110.033,129.61303Q110.033,130.0466,109.734,130.3513Q109.436,130.656,109.008,130.656ZM109.008,138.3728Q108.592,138.3728,108.293,138.06810000000002Q108,137.7576,108,137.3298Q108,136.8962,108.293,136.5915Q108.592,136.281,109.008,136.281Q109.436,136.281,109.734,136.5915Q110.033,136.8962,110.033,137.3298Q110.033,137.7576,109.734,138.06810000000002Q109.436,138.3728,109.008,138.3728ZM128.432,124.656Q130.33,124.656,131.854,125.44701Q133.377,126.23803,134.244,127.76147Q135.117,129.27905,135.117,131.3884Q135.117,133.5095,134.256,135.033Q133.395,136.5505,131.871,137.3533Q130.348,138.156,128.432,138.156L124.875,138.156L124.875,124.656L128.432,124.656ZM128.256,136.6853Q130.717,136.6853,132.105,135.3083Q133.5,133.9314,133.5,131.4001Q133.5,128.90405,132.1,127.51537Q130.699,126.1267,128.256,126.1267L126.492,126.1267L126.492,136.6853L128.256,136.6853ZM142.758,136.8728Q144.92,136.8728,145.928,134.822L147.223,135.5955Q146.672,136.8904,145.506,137.6169Q144.346,138.3435,142.828,138.3435Q141.164,138.3435,139.805,137.4646Q138.445,136.5857,137.66,135.0037Q136.875,133.4216,136.875,131.4001Q136.875,129.37865,137.66,127.79662Q138.445,126.21459,139.805,125.34155Q141.164,124.4685,142.828,124.4685Q144.346,124.4685,145.506,125.20092Q146.672,125.92748,147.223,127.21655L145.928,127.98998Q144.92,125.9392,142.758,125.9392Q141.498,125.9392,140.525,126.62475Q139.559,127.3103,139.025,128.55248Q138.492,129.78881,138.492,131.4001Q138.492,133.0056,139.025,134.2595Q139.559,135.5076,140.525,136.19310000000002Q141.498,136.8728,142.758,136.8728ZM150.867,138.156L149.25,138.156L149.25,124.656L150.867,124.656L150.867,138.156ZM157.307,124.656Q159.205,124.656,160.729,125.44701Q162.252,126.23803,163.119,127.76147Q163.992,129.27905,163.992,131.3884Q163.992,133.5095,163.131,135.033Q162.27,136.5505,160.746,137.3533Q159.223,138.156,157.307,138.156L153.75,138.156L153.75,124.656L157.307,124.656ZM157.131,136.6853Q159.592,136.6853,160.98,135.3083Q162.375,133.9314,162.375,131.4001Q162.375,128.90405,160.975,127.51537Q159.574,126.1267,157.131,126.1267L155.367,126.1267L155.367,136.6853L157.131,136.6853ZM174,130.2517L165.75,130.2517L165.75,128.781L174,128.781L174,130.2517ZM174,134.031L165.75,134.031L165.75,132.5603L174,132.5603L174,134.031ZM184.5,134.406Q184.5,135.5662,183.979,136.4626Q183.457,137.3533,182.443,137.8513Q181.436,138.3435,180.053,138.3435Q178.119,138.3435,176.748,137.4353Q175.377,136.5212,174.943,135.0095L176.203,134.2302Q176.701,135.5076,177.674,136.19310000000002Q178.646,136.8728,180.094,136.8728Q181.412,136.8728,182.145,136.2869Q182.883,135.6951,182.883,134.6462Q182.883,133.7966,182.426,133.2693Q181.969,132.7419,181.301,132.449Q180.639,132.156,179.473,131.8103Q178.178,131.4177,177.387,131.072Q176.596,130.7205,176.045,130.0173Q175.5,129.3142,175.5,128.17162Q175.5,127.01733,176.08,126.17944Q176.66,125.33569,177.674,124.90209Q178.693,124.4685,179.959,124.4685Q181.729,124.4685,182.818,125.25951Q183.914,126.04467,184.295,127.2517L183.053,128.02514Q182.631,127.04662,181.881,126.49584Q181.131,125.9392,179.895,125.9392Q178.635,125.9392,177.873,126.5017Q177.117,127.05834,177.117,128.0017Q177.117,128.69897,177.527,129.14428Q177.938,129.58373,178.553,129.84155Q179.174,130.0994,180.258,130.4158Q181.623,130.8201,182.461,131.2068Q183.299,131.5876,183.896,132.3669Q184.5,133.1404,184.5,134.406ZM191.836,130.8787Q193.055,131.2654,193.652,132.1384Q194.25,133.0115,194.25,134.2947Q194.25,135.5544,193.67,136.4802Q193.096,137.4001,192.129,137.8747Q191.168,138.3435,190.025,138.3435Q188.578,138.3435,187.354,137.5876Q186.129,136.8259,185.707,135.3728L187.002,134.6052Q187.359,135.7244,188.221,136.2986Q189.082,136.8728,190.078,136.8728Q191.174,136.8728,191.9,136.19310000000002Q192.633,135.5076,192.633,134.2888Q192.633,131.781,189.205,131.781L188.625,131.781L188.625,130.3103L189.264,130.3103Q190.605,130.3103,191.303,129.6599Q192,129.00951,192,127.98998Q192,127.02905,191.408,126.48412Q190.816,125.9392,189.873,125.9392Q188.9,125.9392,188.221,126.51928Q187.547,127.09936,187.184,128.1892L185.889,127.44506Q186.316,125.97436,187.389,125.22436Q188.467,124.4685,189.914,124.4685Q191.59,124.4685,192.604,125.42944Q193.617,126.39037,193.617,127.95483Q193.617,128.95092,193.178,129.7185Q192.744,130.4802,191.836,130.8787Z" fill="#DDDDDD" fill-opacity="1"/></g><g style="mix-blend-mode:passthrough"><path d="M384.8418,86.7341Q384.08594,86.1072,382.86719,85.158Q382.74414,85.0818,382.52734,84.9001L382.52734,91.281L381.10352,91.281L381.10352,84.0505Q380.0957,85.199,378.94141,86.2654L378.4375,84.824Q379.79102,83.5935,380.93359,82.1404Q382.07617,80.68139,382.81445,79.281L379,79.281L379,77.83959L381.4668,77.83959Q381.07422,76.47436,380.63477,75.24975L381.98828,74.88647Q382.33398,75.84155,382.90234,77.83959L384.44922,77.83959L384.44922,79.17553Q383.6582,80.73998,382.52734,82.2634L382.52734,83.3357L383.06641,83.74Q383.96875,82.6501,384.85352,81.37865L385.86133,82.1755L385.5332,82.6384Q384.51367,84.033,384.0918,84.531L385.62109,85.6912L384.8418,86.7341ZM394.5156,76.39819Q394.5332,78.99975,394.3633,82.8611Q394.1934,86.7224,393.9355,88.5857Q393.7891,89.6462,393.4844,90.2146Q393.1855,90.7888,392.5469,91.0349Q391.9082,91.281,390.7363,91.281Q389.8926,91.281,389.0137,91.1697L388.7207,89.7107Q389.7168,89.8747,390.3789,89.8747Q391.2402,89.8747,391.6445,89.74Q392.0488,89.5994,392.2363,89.2126Q392.4238,88.8259,392.5117,87.9822Q392.752,86.0134,392.875,83.2068Q393.0039,80.39428,392.9863,77.87475L389.1895,77.87475Q389.1543,80.17162,389.1016,80.79272Q388.9375,83.5525,388.5508,85.2107Q388.1699,86.863,387.3203,88.2458Q386.4707,89.6228,384.75977,91.4626L383.51758,90.8122Q385.19336,89.0662,385.99609,87.783Q386.80469,86.4997,387.1562,84.9353Q387.5137,83.365,387.6777,80.62865L387.748,77.87475L385.29297,77.87475L385.29297,76.39819L394.5156,76.39819ZM411.0391,81.70678Q409.5039,81.8767,406.8906,82.199L404.8223,82.4451L403.4629,82.615L403.1582,81.23803Q403.5156,81.0974,403.668,80.98022Q403.8262,80.85717,403.9844,80.63451Q404.6934,79.66772,405.584,77.98608Q406.4805,76.29858,407.0957,74.81615L408.4199,75.30248Q407.8574,76.72045,407.0195,78.34936Q406.1816,79.97826,405.4375,81.03295L410.4297,80.41186Q409.7617,78.97631,409.03520000000003,77.64037L410.2012,77.06615Q410.7051,77.85717,411.5254,79.46264Q412.3516,81.06225,412.9609,82.404L411.666,83.0662L411.0391,81.70678ZM402.4551,79.656Q402.2266,82.2986,401.9043,83.9978Q401.5879,85.6912,401.0488,87.0212Q402.4199,88.2048,403.3105,89.0251L402.3672,90.2087Q401.8105,89.658,400.4043,88.3279Q399.4492,89.7986,397.668,91.4802L396.6777,90.6951Q397.6328,89.7576,398.2891,88.9724Q398.9453,88.1872,399.3789,87.4138Q397.9961,86.2185,397.1465,85.5915Q397.791,82.99,398.2598,79.656L396.625,79.656L396.625,78.27319L398.4414,78.27319Q398.6172,76.69115,398.7637,74.98022L400.1523,75.06811Q400.0293,76.69115,399.8301,78.27319L402.4551,78.27319L402.4551,79.656ZM398.6582,85.0173Q399.291,85.5037,399.9883,86.113Q400.3984,84.9587,400.627,83.5232Q400.8555,82.0876,401.0898,79.656L399.6309,79.656Q399.2559,82.4744,398.6582,85.0173ZM405.543,91.281L404.125,91.281L404.125,84.156L411.918,84.156L411.918,91.2986L410.5,91.2986L410.5,90.531L405.543,90.531L405.543,91.281ZM410.5,89.1833L410.5,85.4861L405.543,85.4861L405.543,89.1833L410.5,89.1833ZM427.5156,86.8982Q428.7578,88.7146,430.9902,90.4431L430.0938,91.6501Q428.002,89.9568,426.7246,88.1404Q425.5527,89.7927,423.4668,91.574L422.5645,90.3904Q424.7441,88.6267,425.916,86.822Q424.7793,84.6716,424.1875,81.6892Q424.0586,81.94115,423.9414,82.1345Q423.8242,82.322,423.7539,82.4451L422.7637,81.36108Q423.625,79.9724,424.293,78.32006Q424.9609,76.66772,425.3008,75.05053L426.6543,75.27905Q426.40229999999997,76.48022,425.8809,77.9978L430.7031,77.9978L430.7031,79.4392L429.4434,79.4392Q429.209,81.89428,428.7578,83.6755Q428.3066,85.4568,427.5156,86.8982ZM414.4961,83.0837Q415.4336,82.5154,416.2891,81.73608Q417.1445,80.95678,417.7949,80.06615L414.9473,80.06615L414.9473,78.88256L418.5156,78.88256L418.5156,75.156L419.793,75.156L419.793,78.88256L422.9453,78.88256L422.9453,80.06615L419.793,80.06615L419.793,80.31811L422.8164,82.3689L422.1484,83.365Q421.1992,82.574,419.793,81.63061L419.793,83.4705L418.5156,83.4705L418.5156,80.85717Q417.8828,81.78881,417.02729999999997,82.6443Q416.1719,83.4997,415.1992,84.156L414.4961,83.0837ZM416.7871,78.5603Q416.2598,77.67553,415.1816,76.16381L416.084,75.55444L417.7598,77.92748L416.7871,78.5603ZM423.1797,76.19897Q422.3652,77.38842,421.41020000000003,78.64819L420.4785,77.98022Q421.4863,76.65014,422.207,75.57201L423.1797,76.19897ZM425.1074,79.88451Q425.377,81.61889,425.7402,82.9607Q426.1094,84.3025,426.6719,85.4568Q427.2285,84.2497,427.5801,82.7849Q427.9375,81.32006,428.1309,79.4392L425.3008,79.4392L425.1074,79.88451ZM421.9902,90.7302Q421.1641,90.2087,419.7578,89.488Q418.0996,90.6247,414.9824,91.615L414.3906,90.3904Q417.0039,89.6345,418.4277,88.8611Q417.0918,88.2458,416.459,87.9763L415.7383,87.654Q416.3301,86.699,416.6758,86.031L414.625,86.031L414.625,84.865L417.2734,84.865Q417.6484,83.9275,417.7598,83.6052L419.08979999999997,83.9685Q418.873,84.5779,418.75,84.865L422.5469,84.865L422.5469,85.9783Q421.8438,87.5779,420.8359,88.5915Q421.668,88.9841,422.6758,89.5759L421.9902,90.7302ZM417.5781,87.1677Q417.9004,87.3083,418.8379,87.6892L419.6465,88.029Q420.5488,87.2732,421.0879,86.031L418.1934,86.031Q417.7949,86.7869,417.5781,87.1677ZM438.21479999999997,83.4763L436.4922,84.2029L436.4922,89.3826Q436.4922,90.1619,436.2988,90.5603Q436.1113,90.9587,435.66020000000003,91.1169Q435.21479999999997,91.281,434.3711,91.281Q434.0078,91.281,433.252,91.2048L433.0176,89.8747Q433.6094,89.9802,434.2188,89.9802Q434.7402,89.9802,434.9277,89.7634Q435.1211,89.5408,435.1211,88.9314L435.1211,84.7244L432.9473,85.533L432.6426,84.1853Q433.7207,83.8337,435.1211,83.3122L435.1211,79.76733L433,79.76733L433,78.46655L435.1211,78.46655L435.1211,75.27905L436.4922,75.27905L436.4922,78.46655L438.1094,78.46655L438.1094,79.76733L436.4922,79.76733L436.4922,82.7556Q437.5645,82.2517,437.9629,82.0408L438.21479999999997,83.4763ZM449.1191,83.781L445.2285,83.781L445.2285,85.5681L448,85.5681L448,91.281L446.65229999999997,91.281L446.65229999999997,90.5955L442.22270000000003,90.5955L442.22270000000003,91.2986L440.875,91.2986L440.875,85.5681L443.875,85.5681L443.875,83.781L440.1367,83.781Q440.0488,86.2712,439.6621,87.9294Q439.2812,89.5876,438.4258,91.281L437.1191,90.6482Q437.8867,89.2537,438.2793,88.0232Q438.6777,86.7869,438.8359,85.2341Q439,83.6814,439,81.24975L439,76.16381L448.3105,76.16381L448.3105,80.52319L445.2285,80.52319L445.2285,82.5564L449.1191,82.5564L449.1191,83.781ZM446.9219,79.281L446.9219,77.406L440.3652,77.406L440.3652,79.281L446.9219,79.281ZM440.3652,82.5564L443.875,82.5564L443.875,80.52319L440.3652,80.52319L440.3652,81.39037L440.3652,82.5564ZM442.22270000000003,89.406L446.65229999999997,89.406L446.65229999999997,86.7927L442.22270000000003,86.7927L442.22270000000003,89.406ZM466.6621,86.9099Q466.627,87.4724,466.5566,88.1228Q466.4863,88.7673,466.41020000000003,89.2537Q466.2871,90.0681,466.03520000000003,90.4548Q465.78319999999997,90.8415,465.2559,91.0056Q464.7285,91.1697,463.6621,91.24Q461.834,91.3689,459.4844,91.3689Q457.2754,91.3689,455.53520000000003,91.24Q454.52729999999997,91.1638,453.97069999999997,90.9646Q453.4141,90.7654,453.1445,90.2673Q452.875,89.7693,452.875,88.8318L452.875,81.16186Q452.3359,81.78881,451.8496,82.2751L450.7305,81.1267Q452.0488,79.88451,453.09180000000003,78.3142Q454.1348,76.73803,454.709,75.12084L456.25,75.60717Q455.9746,76.29272,455.6055,77.031L465.1855,77.031Q465.2031,77.58178,465.2031,78.73608Q465.2031,80.48803,465.1328,82.281Q465.0625,84.074,464.9512,85.3279Q464.8633,86.2888,464.582,86.8103Q464.3066,87.3318,463.7734,87.5486Q463.2461,87.7595,462.3672,87.7595Q462.0801,87.7595,461.0723,87.6833Q460.90819999999997,87.6833,460.4805,87.6482L460.2988,86.2595Q461.5586,86.3708,462.1094,86.3884Q462.666,86.4236,462.9355,86.2947Q463.2109,86.1599,463.3223,85.8435Q463.4395,85.5271,463.5156,84.8533Q463.7676,82.1052,463.7676,79.56225Q463.7676,78.77123,463.75,78.40209L454.8906,78.40209Q454.22270000000003,79.47436,453.4902,80.406L460.75,80.406L460.75,85.8962L454.2637,85.8962L454.2637,88.4333Q454.2637,89.0251,454.40430000000003,89.3064Q454.5508,89.5818,454.8672,89.6872Q455.1895,89.7927,455.8926,89.8513Q457.5449,89.9802,459.6777,89.9802Q461.834,89.9802,463.4688,89.8455Q464.1309,89.7869,464.4238,89.6697Q464.72270000000003,89.5525,464.8574,89.2771Q464.9922,88.9958,465.0625,88.3865Q465.1152,87.988,465.1562,87.4197Q465.2031,86.8455,465.2031,86.4939L466.6621,86.9099ZM459.3613,84.531L459.3613,81.81225L454.2637,81.81225L454.2637,84.531L459.3613,84.531ZM471.5078,82.656Q471.09180000000003,82.656,470.793,82.3513Q470.5,82.0466,470.5,81.61303Q470.5,81.17944,470.793,80.87475Q471.09180000000003,80.57006,471.5078,80.57006Q471.9355,80.57006,472.2344,80.87475Q472.53319999999997,81.17944,472.53319999999997,81.61303Q472.53319999999997,82.0466,472.2344,82.3513Q471.9355,82.656,471.5078,82.656ZM471.5078,90.3728Q471.09180000000003,90.3728,470.793,90.0681Q470.5,89.7576,470.5,89.3298Q470.5,88.8962,470.793,88.5915Q471.09180000000003,88.281,471.5078,88.281Q471.9355,88.281,472.2344,88.5915Q472.53319999999997,88.8962,472.53319999999997,89.3298Q472.53319999999997,89.7576,472.2344,90.0681Q471.9355,90.3728,471.5078,90.3728ZM490.932,76.656Q492.83,76.656,494.354,77.44701Q495.877,78.23803,496.744,79.76147Q497.617,81.27905,497.617,83.3884Q497.617,85.5095,496.756,87.033Q495.895,88.5505,494.371,89.3533Q492.848,90.156,490.932,90.156L487.375,90.156L487.375,76.656L490.932,76.656ZM490.756,88.6853Q493.217,88.6853,494.605,87.3083Q496,85.9314,496,83.4001Q496,80.90405,494.6,79.51537Q493.199,78.1267,490.756,78.1267L488.992,78.1267L488.992,88.6853L490.756,88.6853ZM505.25800000000004,88.8728Q507.41999999999996,88.8728,508.428,86.822L509.723,87.5955Q509.172,88.8904,508.006,89.6169Q506.846,90.3435,505.328,90.3435Q503.664,90.3435,502.305,89.4646Q500.945,88.5857,500.15999999999997,87.0037Q499.375,85.4216,499.375,83.4001Q499.375,81.37865,500.15999999999997,79.79662Q500.945,78.21459,502.305,77.34155Q503.664,76.4685,505.328,76.4685Q506.846,76.4685,508.006,77.20092Q509.172,77.92748,509.723,79.21655L508.428,79.98998Q507.41999999999996,77.9392,505.25800000000004,77.9392Q503.998,77.9392,503.025,78.62475Q502.05899999999997,79.3103,501.525,80.55248Q500.992,81.78881,500.992,83.4001Q500.992,85.0056,501.525,86.2595Q502.05899999999997,87.5076,503.025,88.1931Q503.998,88.8728,505.25800000000004,88.8728ZM513.367,90.156L511.75,90.156L511.75,76.656L513.367,76.656L513.367,90.156ZM519.807,76.656Q521.705,76.656,523.229,77.44701Q524.752,78.23803,525.619,79.76147Q526.492,81.27905,526.492,83.3884Q526.492,85.5095,525.631,87.033Q524.77,88.5505,523.246,89.3533Q521.723,90.156,519.807,90.156L516.25,90.156L516.25,76.656L519.807,76.656ZM519.631,88.6853Q522.092,88.6853,523.48,87.3083Q524.875,85.9314,524.875,83.4001Q524.875,80.90405,523.475,79.51537Q522.0740000000001,78.1267,519.631,78.1267L517.867,78.1267L517.867,88.6853L519.631,88.6853ZM536.5,82.2517L528.25,82.2517L528.25,80.781L536.5,80.781L536.5,82.2517ZM536.5,86.031L528.25,86.031L528.25,84.5603L536.5,84.5603L536.5,86.031ZM543.883,88.8728Q546.045,88.8728,547.053,86.822L548.348,87.5955Q547.797,88.8904,546.631,89.6169Q545.471,90.3435,543.953,90.3435Q542.289,90.3435,540.9300000000001,89.4646Q539.5699999999999,88.5857,538.785,87.0037Q538,85.4216,538,83.4001Q538,81.37865,538.785,79.79662Q539.5699999999999,78.21459,540.9300000000001,77.34155Q542.289,76.4685,543.953,76.4685Q545.471,76.4685,546.631,77.20092Q547.797,77.92748,548.348,79.21655L547.053,79.98998Q546.045,77.9392,543.883,77.9392Q542.623,77.9392,541.65,78.62475Q540.684,79.3103,540.15,80.55248Q539.617,81.78881,539.617,83.4001Q539.617,85.0056,540.15,86.2595Q540.684,87.5076,541.65,88.1931Q542.623,88.8728,543.883,88.8728ZM550.75,80.63451L550.75,78.94115L554.518,76.656L555.742,76.656L555.742,90.156L554.125,90.156L554.125,78.62475L550.75,80.63451ZM561.5550000000001,87.654Q562.545,88.2458,563.465,89.0662Q564.385,89.8865,565.1,90.824L564.0740000000001,91.7556Q562.674,89.7986,560.852,88.4451L561.5550000000001,87.654ZM586.75,86.406Q586.75,87.5662,586.229,88.4626Q585.707,89.3533,584.693,89.8513Q583.686,90.3435,582.303,90.3435Q580.369,90.3435,578.998,89.4353Q577.627,88.5212,577.193,87.0095L578.453,86.2302Q578.951,87.5076,579.924,88.1931Q580.896,88.8728,582.344,88.8728Q583.662,88.8728,584.395,88.2869Q585.133,87.6951,585.133,86.6462Q585.133,85.7966,584.6759999999999,85.2693Q584.219,84.7419,583.5509999999999,84.449Q582.889,84.156,581.723,83.8103Q580.428,83.4177,579.637,83.072Q578.846,82.7205,578.295,82.0173Q577.75,81.3142,577.75,80.17162Q577.75,79.01733,578.33,78.17944Q578.91,77.33569,579.924,76.90209Q580.943,76.4685,582.2090000000001,76.4685Q583.979,76.4685,585.068,77.25951Q586.164,78.04467,586.545,79.2517L585.303,80.02514Q584.881,79.04662,584.131,78.49584Q583.381,77.9392,582.145,77.9392Q580.885,77.9392,580.123,78.5017Q579.367,79.05834,579.367,80.0017Q579.367,80.69897,579.777,81.14428Q580.188,81.58373,580.803,81.84155Q581.424,82.0994,582.508,82.4158Q583.873,82.8201,584.711,83.2068Q585.549,83.5876,586.146,84.3669Q586.75,85.1404,586.75,86.406ZM593.758,88.8728Q595.92,88.8728,596.928,86.822L598.223,87.5955Q597.672,88.8904,596.506,89.6169Q595.346,90.3435,593.828,90.3435Q592.164,90.3435,590.8050000000001,89.4646Q589.4449999999999,88.5857,588.66,87.0037Q587.875,85.4216,587.875,83.4001Q587.875,81.37865,588.66,79.79662Q589.4449999999999,78.21459,590.8050000000001,77.34155Q592.164,76.4685,593.828,76.4685Q595.346,76.4685,596.506,77.20092Q597.672,77.92748,598.223,79.21655L596.928,79.98998Q595.92,77.9392,593.758,77.9392Q592.498,77.9392,591.525,78.62475Q590.559,79.3103,590.025,80.55248Q589.492,81.78881,589.492,83.4001Q589.492,85.0056,590.025,86.2595Q590.559,87.5076,591.525,88.1931Q592.498,88.8728,593.758,88.8728ZM601.867,90.156L600.25,90.156L600.25,76.656L601.867,76.656L601.867,90.156ZM608.307,76.656Q610.205,76.656,611.729,77.44701Q613.252,78.23803,614.119,79.76147Q614.992,81.27905,614.992,83.3884Q614.992,85.5095,614.131,87.033Q613.27,88.5505,611.746,89.3533Q610.223,90.156,608.307,90.156L604.75,90.156L604.75,76.656L608.307,76.656ZM608.131,88.6853Q610.592,88.6853,611.98,87.3083Q613.375,85.9314,613.375,83.4001Q613.375,80.90405,611.975,79.51537Q610.5740000000001,78.1267,608.131,78.1267L606.367,78.1267L606.367,88.6853L608.131,88.6853ZM625,82.2517L616.75,82.2517L616.75,80.781L625,80.781L625,82.2517ZM625,86.031L616.75,86.031L616.75,84.5603L625,84.5603L625,86.031ZM635.5,86.406Q635.5,87.5662,634.979,88.4626Q634.457,89.3533,633.443,89.8513Q632.436,90.3435,631.053,90.3435Q629.119,90.3435,627.748,89.4353Q626.377,88.5212,625.943,87.0095L627.203,86.2302Q627.701,87.5076,628.674,88.1931Q629.646,88.8728,631.094,88.8728Q632.412,88.8728,633.145,88.2869Q633.883,87.6951,633.883,86.6462Q633.883,85.7966,633.4259999999999,85.2693Q632.969,84.7419,632.3009999999999,84.449Q631.639,84.156,630.473,83.8103Q629.178,83.4177,628.387,83.072Q627.596,82.7205,627.045,82.0173Q626.5,81.3142,626.5,80.17162Q626.5,79.01733,627.08,78.17944Q627.66,77.33569,628.674,76.90209Q629.693,76.4685,630.9590000000001,76.4685Q632.729,76.4685,633.818,77.25951Q634.914,78.04467,635.2950000000001,79.2517L634.053,80.02514Q633.631,79.04662,632.881,78.49584Q632.131,77.9392,630.895,77.9392Q629.635,77.9392,628.873,78.5017Q628.117,79.05834,628.117,80.0017Q628.117,80.69897,628.527,81.14428Q628.938,81.58373,629.553,81.84155Q630.174,82.0994,631.258,82.4158Q632.623,82.8201,633.461,83.2068Q634.299,83.5876,634.896,84.3669Q635.5,85.1404,635.5,86.406ZM642.836,82.8787Q644.0550000000001,83.2654,644.652,84.1384Q645.25,85.0115,645.25,86.2947Q645.25,87.5544,644.6700000000001,88.4802Q644.096,89.4001,643.129,89.8747Q642.168,90.3435,641.025,90.3435Q639.578,90.3435,638.354,89.5876Q637.129,88.8259,636.707,87.3728L638.002,86.6052Q638.3589999999999,87.7244,639.221,88.2986Q640.082,88.8728,641.078,88.8728Q642.174,88.8728,642.9,88.1931Q643.633,87.5076,643.633,86.2888Q643.633,83.781,640.2049999999999,83.781L639.625,83.781L639.625,82.3103L640.264,82.3103Q641.605,82.3103,642.303,81.6599Q643,81.00951,643,79.98998Q643,79.02905,642.408,78.48412Q641.816,77.9392,640.873,77.9392Q639.9,77.9392,639.221,78.51928Q638.547,79.09936,638.184,80.1892L636.889,79.44506Q637.316,77.97436,638.389,77.22436Q639.467,76.4685,640.914,76.4685Q642.5899999999999,76.4685,643.604,77.42944Q644.617,78.39037,644.617,79.95483Q644.617,80.95092,644.178,81.7185Q643.744,82.4802,642.836,82.8787Z" fill="#DDDDDD" fill-opacity="1"/></g><g style="mix-blend-mode:passthrough"><path d="M451.375,152.63451L451.375,150.94115L455.14258,148.656L456.36719,148.656L456.36719,162.156L454.75,162.156L454.75,150.62475L451.375,152.63451ZM460.75,157.281L460.75,155.8103L467.125,155.8103L467.125,157.281L460.75,157.281ZM479.6875,162.156L477.7539,162.156L473.9805,156.531L473.8164,156.531L471.3672,156.531L471.3672,162.156L469.75,162.156L469.75,148.656L473.7754,148.656Q475.1172,148.656,476.1602,149.14819Q477.209,149.64037,477.7891,150.54272Q478.375,151.4392,478.375,152.60522Q478.375,153.91772,477.6543,154.8787Q476.9336,155.8337,475.6738,156.2497L479.6875,162.156ZM471.3672,150.1267L471.3672,155.0603L473.623,155.0603Q475.1523,155.0603,475.9551,154.3923Q476.7578,153.7185,476.7578,152.61108Q476.7578,151.50951,475.9551,150.81811Q475.1523,150.1267,473.623,150.1267L471.3672,150.1267ZM480.25,148.656L490,148.656L490,150.1267L485.9922,150.1267L485.9922,162.156L484.375,162.156L484.375,150.1267L480.25,150.1267L480.25,148.656ZM490.75,148.656L500.5,148.656L500.5,150.1267L496.4922,150.1267L496.4922,162.156L494.875,162.156L494.875,150.1267L490.75,150.1267L490.75,148.656ZM514.5156,158.8982Q515.7578,160.7146,517.9902,162.44310000000002L517.0938,163.6501Q515.002,161.9568,513.7246,160.1404Q512.5527,161.7927,510.4668,163.574L509.5645,162.3904Q511.7441,160.6267,512.9159999999999,158.822Q511.7793,156.6716,511.1875,153.6892Q511.0586,153.94115,510.9414,154.1345Q510.8242,154.322,510.7539,154.4451L509.7637,153.36108Q510.625,151.9724,511.293,150.32006Q511.9609,148.66772,512.3008,147.05053L513.6543,147.27905Q513.4023,148.48022,512.8809,149.9978L517.7031,149.9978L517.7031,151.4392L516.4434,151.4392Q516.2090000000001,153.89428,515.7578,155.6755Q515.3066,157.4568,514.5156,158.8982ZM501.4961,155.0837Q502.4336,154.5154,503.2891,153.73608Q504.1445,152.95678,504.7949,152.06615L501.9473,152.06615L501.9473,150.88256L505.5156,150.88256L505.5156,147.156L506.793,147.156L506.793,150.88256L509.9453,150.88256L509.9453,152.06615L506.793,152.06615L506.793,152.31811L509.8164,154.3689L509.1484,155.365Q508.1992,154.574,506.793,153.63061L506.793,155.4705L505.5156,155.4705L505.5156,152.85717Q504.8828,153.78881,504.02729999999997,154.6443Q503.1719,155.4997,502.1992,156.156L501.4961,155.0837ZM503.7871,150.5603Q503.2598,149.67553,502.1816,148.16381L503.084,147.55444L504.7598,149.92748L503.7871,150.5603ZM510.1797,148.19897Q509.3652,149.38842,508.41020000000003,150.64819L507.4785,149.98022Q508.4863,148.65014,509.207,147.57201L510.1797,148.19897ZM512.1074,151.88451Q512.377,153.61889,512.7402,154.9607Q513.1094,156.3025,513.6719,157.4568Q514.2284999999999,156.2497,514.5801,154.7849Q514.9375,153.32006,515.1309,151.4392L512.3008,151.4392L512.1074,151.88451ZM508.9902,162.7302Q508.1641,162.2087,506.7578,161.488Q505.0996,162.6247,501.9824,163.615L501.3906,162.3904Q504.0039,161.6345,505.4277,160.8611Q504.0918,160.2458,503.459,159.9763L502.7383,159.654Q503.3301,158.699,503.6758,158.031L501.625,158.031L501.625,156.865L504.2734,156.865Q504.6484,155.9275,504.7598,155.6052L506.08979999999997,155.9685Q505.873,156.5779,505.75,156.865L509.5469,156.865L509.5469,157.9783Q508.8438,159.5779,507.8359,160.5915Q508.668,160.9841,509.6758,161.5759L508.9902,162.7302ZM504.5781,159.1677Q504.9004,159.3083,505.8379,159.6892L506.6465,160.029Q507.5488,159.2732,508.0879,158.031L505.1934,158.031Q504.7949,158.7869,504.5781,159.1677ZM525.2148,155.4763L523.4922,156.2029L523.4922,161.3826Q523.4922,162.1619,523.2988,162.5603Q523.1113,162.9587,522.6602,163.1169Q522.2148,163.281,521.3711,163.281Q521.0078,163.281,520.252,163.2048L520.0176,161.8747Q520.6094,161.9802,521.2188,161.9802Q521.7402,161.9802,521.9277,161.7634Q522.1211,161.5408,522.1211,160.9314L522.1211,156.7244L519.9473,157.533L519.6426,156.1853Q520.7207,155.8337,522.1211,155.3122L522.1211,151.76733L520,151.76733L520,150.46655L522.1211,150.46655L522.1211,147.27905L523.4922,147.27905L523.4922,150.46655L525.1094,150.46655L525.1094,151.76733L523.4922,151.76733L523.4922,154.7556Q524.5645,154.2517,524.9629,154.0408L525.2148,155.4763ZM536.1191,155.781L532.2284999999999,155.781L532.2284999999999,157.5681L535,157.5681L535,163.281L533.6523,163.281L533.6523,162.59550000000002L529.2227,162.59550000000002L529.2227,163.2986L527.875,163.2986L527.875,157.5681L530.875,157.5681L530.875,155.781L527.1367,155.781Q527.0488,158.2712,526.6621,159.9294Q526.2812,161.5876,525.4258,163.281L524.1191,162.6482Q524.8867,161.2537,525.2793,160.0232Q525.6777,158.7869,525.8359,157.2341Q526,155.6814,526,153.24975L526,148.16381L535.3105,148.16381L535.3105,152.52319L532.2284999999999,152.52319L532.2284999999999,154.5564L536.1191,154.5564L536.1191,155.781ZM533.9219,151.281L533.9219,149.406L527.3652,149.406L527.3652,151.281L533.9219,151.281ZM527.3652,154.5564L530.875,154.5564L530.875,152.52319L527.3652,152.52319L527.3652,153.39037L527.3652,154.5564ZM529.2227,161.406L533.6523,161.406L533.6523,158.7927L529.2227,158.7927L529.2227,161.406ZM553.662,158.9099Q553.627,159.4724,553.557,160.1228Q553.486,160.7673,553.41,161.2537Q553.287,162.06810000000002,553.035,162.4548Q552.783,162.8415,552.256,163.00560000000002Q551.729,163.1697,550.662,163.24Q548.8340000000001,163.3689,546.4844,163.3689Q544.2754,163.3689,542.5352,163.24Q541.5273,163.1638,540.9707,162.9646Q540.4141,162.7654,540.1445,162.2673Q539.875,161.7693,539.875,160.8318L539.875,153.16186Q539.3359,153.78881,538.8496,154.2751L537.7305,153.1267Q539.0488,151.88451,540.0918,150.3142Q541.1348,148.73803,541.7090000000001,147.12084L543.25,147.60717Q542.9746,148.29272,542.6055,149.031L552.186,149.031Q552.203,149.58178,552.203,150.73608Q552.203,152.48803,552.133,154.281Q552.062,156.074,551.951,157.3279Q551.863,158.2888,551.582,158.8103Q551.307,159.3318,550.773,159.5486Q550.246,159.7595,549.367,159.7595Q549.08,159.7595,548.0723,159.6833Q547.9082,159.6833,547.4805,159.6482L547.2988,158.2595Q548.5586,158.3708,549.109,158.3884Q549.6659999999999,158.4236,549.936,158.2947Q550.211,158.1599,550.322,157.8435Q550.439,157.5271,550.516,156.8533Q550.768,154.1052,550.768,151.56225Q550.768,150.77123,550.75,150.40209L541.8906,150.40209Q541.2227,151.47436,540.4902,152.406L547.75,152.406L547.75,157.8962L541.2637,157.8962L541.2637,160.4333Q541.2637,161.0251,541.4043,161.3064Q541.5508,161.5818,541.8672,161.6872Q542.1895,161.7927,542.8926,161.8513Q544.5449,161.9802,546.6777,161.9802Q548.8340000000001,161.9802,550.469,161.84550000000002Q551.131,161.7869,551.424,161.6697Q551.723,161.5525,551.857,161.2771Q551.992,160.9958,552.062,160.3865Q552.115,159.988,552.156,159.4197Q552.203,158.8455,552.203,158.4939L553.662,158.9099ZM546.3613,156.531L546.3613,153.81225L541.2637,153.81225L541.2637,156.531L546.3613,156.531ZM558.508,154.656Q558.092,154.656,557.793,154.3513Q557.5,154.0466,557.5,153.61303Q557.5,153.17944,557.793,152.87475Q558.092,152.57006,558.508,152.57006Q558.936,152.57006,559.234,152.87475Q559.533,153.17944,559.533,153.61303Q559.533,154.0466,559.234,154.3513Q558.936,154.656,558.508,154.656ZM558.508,162.3728Q558.092,162.3728,557.793,162.06810000000002Q557.5,161.7576,557.5,161.3298Q557.5,160.8962,557.793,160.5915Q558.092,160.281,558.508,160.281Q558.936,160.281,559.234,160.5915Q559.533,160.8962,559.533,161.3298Q559.533,161.7576,559.234,162.06810000000002Q558.936,162.3728,558.508,162.3728ZM577.932,148.656Q579.83,148.656,581.354,149.44701Q582.877,150.23803,583.744,151.76147Q584.617,153.27905,584.617,155.3884Q584.617,157.5095,583.756,159.033Q582.895,160.5505,581.371,161.3533Q579.848,162.156,577.932,162.156L574.375,162.156L574.375,148.656L577.932,148.656ZM577.756,160.6853Q580.217,160.6853,581.605,159.3083Q583,157.9314,583,155.4001Q583,152.90405,581.6,151.51537Q580.1990000000001,150.1267,577.756,150.1267L575.992,150.1267L575.992,160.6853L577.756,160.6853ZM592.258,160.8728Q594.42,160.8728,595.428,158.822L596.723,159.5955Q596.172,160.8904,595.006,161.6169Q593.846,162.3435,592.328,162.3435Q590.664,162.3435,589.3050000000001,161.4646Q587.9449999999999,160.5857,587.16,159.0037Q586.375,157.4216,586.375,155.4001Q586.375,153.37865,587.16,151.79662Q587.9449999999999,150.21459,589.3050000000001,149.34155Q590.664,148.4685,592.328,148.4685Q593.846,148.4685,595.006,149.20092Q596.172,149.92748,596.723,151.21655L595.428,151.98998Q594.42,149.9392,592.258,149.9392Q590.998,149.9392,590.025,150.62475Q589.059,151.3103,588.525,152.55248Q587.992,153.78881,587.992,155.4001Q587.992,157.0056,588.525,158.2595Q589.059,159.5076,590.025,160.19310000000002Q590.998,160.8728,592.258,160.8728ZM600.367,162.156L598.75,162.156L598.75,148.656L600.367,148.656L600.367,162.156ZM606.807,148.656Q608.705,148.656,610.229,149.44701Q611.752,150.23803,612.619,151.76147Q613.492,153.27905,613.492,155.3884Q613.492,157.5095,612.631,159.033Q611.77,160.5505,610.246,161.3533Q608.723,162.156,606.807,162.156L603.25,162.156L603.25,148.656L606.807,148.656ZM606.631,160.6853Q609.092,160.6853,610.48,159.3083Q611.875,157.9314,611.875,155.4001Q611.875,152.90405,610.475,151.51537Q609.0740000000001,150.1267,606.631,150.1267L604.867,150.1267L604.867,160.6853L606.631,160.6853ZM623.5,154.2517L615.25,154.2517L615.25,152.781L623.5,152.781L623.5,154.2517ZM623.5,158.031L615.25,158.031L615.25,156.5603L623.5,156.5603L623.5,158.031ZM630.883,160.8728Q633.045,160.8728,634.053,158.822L635.348,159.5955Q634.797,160.8904,633.631,161.6169Q632.471,162.3435,630.953,162.3435Q629.289,162.3435,627.9300000000001,161.4646Q626.5699999999999,160.5857,625.785,159.0037Q625,157.4216,625,155.4001Q625,153.37865,625.785,151.79662Q626.5699999999999,150.21459,627.9300000000001,149.34155Q629.289,148.4685,630.953,148.4685Q632.471,148.4685,633.631,149.20092Q634.797,149.92748,635.348,151.21655L634.053,151.98998Q633.045,149.9392,630.883,149.9392Q629.623,149.9392,628.65,150.62475Q627.684,151.3103,627.15,152.55248Q626.617,153.78881,626.617,155.4001Q626.617,157.0056,627.15,158.2595Q627.684,159.5076,628.65,160.19310000000002Q629.623,160.8728,630.883,160.8728ZM637.75,152.63451L637.75,150.94115L641.518,148.656L642.742,148.656L642.742,162.156L641.125,162.156L641.125,150.62475L637.75,152.63451Z" fill="#DDDDDD" fill-opacity="1"/></g><g style="mix-blend-mode:passthrough"><path d="M308.18164,114.3435Q307.79492,114.3435,307.51953,114.0095Q307.25,113.6697,307.25,113.2244Q307.25,112.7497,307.51953,112.4216Q307.79492,112.0935,308.18164,112.0935Q308.58008,112.0935,308.84961,112.4216Q309.125,112.7497,309.125,113.2244Q309.125,113.6872,308.84961,114.0154Q308.58008,114.3435,308.18164,114.3435ZM314.18164,114.3435Q313.79492,114.3435,313.51953,114.0095Q313.25,113.6697,313.25,113.2244Q313.25,112.7497,313.51953,112.4216Q313.79492,112.0935,314.18164,112.0935Q314.58008,112.0935,314.84961,112.4216Q315.125,112.7497,315.125,113.2244Q315.125,113.6872,314.84961,114.0154Q314.58008,114.3435,314.18164,114.3435ZM320.1816,114.3435Q319.7949,114.3435,319.5195,114.0095Q319.25,113.6697,319.25,113.2244Q319.25,112.7497,319.5195,112.4216Q319.7949,112.0935,320.1816,112.0935Q320.5801,112.0935,320.8496,112.4216Q321.125,112.7497,321.125,113.2244Q321.125,113.6872,320.8496,114.0154Q320.5801,114.3435,320.1816,114.3435ZM325.8066,114.3435Q325.4199,114.3435,325.1445,114.0095Q324.875,113.6697,324.875,113.2244Q324.875,112.7497,325.1445,112.4216Q325.4199,112.0935,325.8066,112.0935Q326.2051,112.0935,326.4746,112.4216Q326.75,112.7497,326.75,113.2244Q326.75,113.6872,326.4746,114.0154Q326.2051,114.3435,325.8066,114.3435ZM331.8066,114.3435Q331.4199,114.3435,331.1445,114.0095Q330.875,113.6697,330.875,113.2244Q330.875,112.7497,331.1445,112.4216Q331.4199,112.0935,331.8066,112.0935Q332.2051,112.0935,332.4746,112.4216Q332.75,112.7497,332.75,113.2244Q332.75,113.6872,332.4746,114.0154Q332.2051,114.3435,331.8066,114.3435ZM337.8066,114.3435Q337.4199,114.3435,337.1445,114.0095Q336.875,113.6697,336.875,113.2244Q336.875,112.7497,337.1445,112.4216Q337.4199,112.0935,337.8066,112.0935Q338.2051,112.0935,338.4746,112.4216Q338.75,112.7497,338.75,113.2244Q338.75,113.6872,338.4746,114.0154Q338.2051,114.3435,337.8066,114.3435Z" fill="#DDDDDD" fill-opacity="1"/></g><g style="mix-blend-mode:passthrough"><path d="M389,83.75L381,83.75L381,82.25L389,82.25M377,83.75L369,83.75L369,82.25L377,82.25M389.5303,83.53033L384.7574,88.30330000000001Q384.7051,88.35553,384.6437,88.39657Q384.5823,88.43761,384.514,88.46588Q384.4458,88.49415,384.3733,88.50856Q384.3009,88.52297,384.227,88.52297Q384.1532,88.52297,384.0807,88.50856Q384.0083,88.49415,383.94,88.46588Q383.8718,88.43761,383.8103,88.39657Q383.7489,88.35553,383.6967,88.30330000000001Q383.6445,88.25107,383.6034,88.18965Q383.5624,88.12823,383.5341,88.05998Q383.5058,87.99174,383.4914,87.91929Q383.477,87.84684,383.477,87.77297Q383.477,87.6991,383.4914,87.62665Q383.5058,87.5542,383.5341,87.48596Q383.5624,87.41771,383.6034,87.35629Q383.6445,87.29487,383.6967,87.24264L388.4697,82.46967Q388.5219,82.417437,388.5833,82.376398Q388.6447,82.335359,388.713,82.30709Q388.7812,82.278822,388.8537,82.264411Q388.9261,82.25,389,82.25Q389.0739,82.25,389.1463,82.264411Q389.2188,82.278822,389.287,82.307091Q389.3553,82.335359,389.4167,82.376398Q389.4781,82.417437,389.5303,82.46967Q389.5826,82.521903,389.6236,82.583323Q389.6646,82.644742,389.6929,82.712988Q389.7212,82.781233,389.7356,82.853682Q389.75,82.9261316,389.75,83.000000174578Q389.75,83.0738687,389.7356,83.146318Q389.7212,83.218767,389.6929,83.287013Q389.6646,83.355258,389.6236,83.416678Q389.5826,83.478097,389.5303,83.53033ZM388.4697,83.53033L383.6967,78.75736Q383.6445,78.70513,383.6034,78.64371Q383.5624,78.58229,383.5341,78.51404Q383.5058,78.4458,383.4914,78.37335Q383.477,78.3009,383.477,78.22703Q383.477,78.15316,383.4914,78.08071Q383.5058,78.00826,383.5341,77.94002Q383.5624,77.87177,383.6034,77.81035Q383.6445,77.74893,383.6967,77.69669999999999Q383.7489,77.64447,383.8103,77.60343Q383.8718,77.56239,383.94,77.53412Q384.0083,77.50585,384.0807,77.49144Q384.1532,77.47703,384.227,77.47703Q384.3009,77.47703,384.3733,77.49144Q384.4458,77.50585,384.514,77.53412Q384.5823,77.56239,384.6437,77.60343Q384.7051,77.64447,384.7574,77.69669999999999L389.5303,82.46967Q389.5826,82.521903,389.6236,82.583322Q389.6646,82.644742,389.6929,82.712987Q389.7212,82.781233,389.7356,82.853682Q389.75,82.9261313,389.75,82.999999825422Q389.75,83.0738684,389.7356,83.146318Q389.7212,83.218767,389.6929,83.287012Q389.6646,83.355258,389.6236,83.416677Q389.5826,83.478097,389.5303,83.53033Q389.4781,83.582563,389.4167,83.623602Q389.3553,83.664641,389.287,83.692909Q389.2188,83.721178,389.1463,83.735589Q389.0739,83.75,389,83.75Q388.9261,83.75,388.8537,83.735589Q388.7812,83.721178,388.713,83.69291Q388.6447,83.664641,388.5833,83.623602Q388.5219,83.582563,388.4697,83.53033Z" transform="matrix(-1,0,0,-1,738,166)" fill="#DDDDDD" fill-opacity="1"/></g><g style="mix-blend-mode:passthrough"><path d="M461,155.75L453,155.75L453,154.25L461,154.25M449,155.75L441,155.75L441,154.25L449,154.25M461.5303,155.53033L456.7574,160.3033Q456.7051,160.35553,456.6437,160.39657Q456.5823,160.43761,456.514,160.46588Q456.4458,160.49415,456.3733,160.50856Q456.3009,160.52297,456.227,160.52297Q456.1532,160.52297,456.0807,160.50856Q456.0083,160.49415,455.94,160.46588Q455.8718,160.43761,455.8103,160.39657Q455.7489,160.35553,455.6967,160.3033Q455.6445,160.25107,455.6034,160.18965Q455.5624,160.12823,455.5341,160.05998Q455.5058,159.99174,455.4914,159.91929Q455.477,159.84684,455.477,159.77297Q455.477,159.6991,455.4914,159.62665Q455.5058,159.5542,455.5341,159.48596Q455.5624,159.41771,455.6034,159.35629Q455.6445,159.29487,455.6967,159.24264L460.4697,154.46967Q460.5219,154.417437,460.5833,154.376398Q460.6447,154.335359,460.713,154.30709Q460.7812,154.278822,460.8537,154.264411Q460.9261,154.25,461,154.25Q461.0739,154.25,461.1463,154.264411Q461.2188,154.278822,461.287,154.307091Q461.3553,154.335359,461.4167,154.376398Q461.4781,154.417437,461.5303,154.46967Q461.5826,154.521903,461.6236,154.583323Q461.6646,154.644742,461.6929,154.712988Q461.7212,154.781233,461.7356,154.853682Q461.75,154.9261316,461.75,155.000000174578Q461.75,155.0738687,461.7356,155.146318Q461.7212,155.218767,461.6929,155.287013Q461.6646,155.355258,461.6236,155.416678Q461.5826,155.478097,461.5303,155.53033ZM460.4697,155.53033L455.6967,150.75736Q455.6445,150.70513,455.6034,150.64371Q455.5624,150.58229,455.5341,150.51404Q455.5058,150.4458,455.4914,150.37335Q455.477,150.3009,455.477,150.22703Q455.477,150.15316,455.4914,150.08071Q455.5058,150.00826,455.5341,149.94002Q455.5624,149.87177,455.6034,149.81035Q455.6445,149.74893,455.6967,149.6967Q455.7489,149.64447,455.8103,149.60343Q455.8718,149.56239,455.94,149.53412Q456.0083,149.50585,456.0807,149.49144Q456.1532,149.47703,456.227,149.47703Q456.3009,149.47703,456.3733,149.49144Q456.4458,149.50585,456.514,149.53412Q456.5823,149.56239,456.6437,149.60343Q456.7051,149.64447,456.7574,149.6967L461.5303,154.46967Q461.5826,154.521903,461.6236,154.583322Q461.6646,154.644742,461.6929,154.712987Q461.7212,154.781233,461.7356,154.853682Q461.75,154.9261313,461.75,154.999999825422Q461.75,155.0738684,461.7356,155.146318Q461.7212,155.218767,461.6929,155.287012Q461.6646,155.355258,461.6236,155.416677Q461.5826,155.478097,461.5303,155.53033Q461.4781,155.582563,461.4167,155.623602Q461.3553,155.664641,461.287,155.692909Q461.2188,155.721178,461.1463,155.735589Q461.0739,155.75,461,155.75Q460.9261,155.75,460.8537,155.735589Q460.7812,155.721178,460.713,155.69291Q460.6447,155.664641,460.5833,155.623602Q460.5219,155.582563,460.4697,155.53033Z" transform="matrix(-1,0,0,-1,882,310)" fill="#DDDDDD" fill-opacity="1"/></g><g style="mix-blend-mode:passthrough"><path d="M297,59.75L289,59.75L289,58.25L297,58.25M285,59.75L277,59.75L277,58.25L285,58.25M297.5303,59.53033L292.7574,64.30330000000001Q292.7051,64.35553,292.6437,64.39657Q292.5823,64.43761,292.514,64.46588Q292.4458,64.49415,292.3733,64.50856Q292.3009,64.52297,292.227,64.52297Q292.1532,64.52297,292.0807,64.50856Q292.0083,64.49415,291.94,64.46588Q291.8718,64.43761,291.8103,64.39657Q291.7489,64.35553,291.6967,64.30330000000001Q291.6445,64.25107,291.6034,64.18965Q291.5624,64.12823,291.5341,64.05998Q291.5058,63.99174,291.4914,63.919290000000004Q291.477,63.84684,291.477,63.77297Q291.477,63.6991,291.4914,63.62665Q291.5058,63.5542,291.5341,63.48596Q291.5624,63.41771,291.6034,63.35629Q291.6445,63.29487,291.6967,63.24264L296.4697,58.46967Q296.5219,58.417437,296.5833,58.376398Q296.6447,58.335359,296.713,58.30709Q296.7812,58.278822,296.8537,58.264411Q296.9261,58.25,297,58.25Q297.0739,58.25,297.1463,58.264411Q297.2188,58.278822,297.287,58.307091Q297.3553,58.335359,297.4167,58.376398Q297.4781,58.417437,297.5303,58.46967Q297.5826,58.521903,297.6236,58.583323Q297.6646,58.644742,297.6929,58.712988Q297.7212,58.781233,297.7356,58.853682Q297.75,58.9261316,297.75,59.000000174578Q297.75,59.0738687,297.7356,59.146318Q297.7212,59.218767,297.6929,59.287013Q297.6646,59.355258,297.6236,59.416678Q297.5826,59.478097,297.5303,59.53033ZM296.4697,59.53033L291.6967,54.75736Q291.6445,54.70513,291.6034,54.64371Q291.5624,54.58229,291.5341,54.51404Q291.5058,54.4458,291.4914,54.37335Q291.477,54.3009,291.477,54.22703Q291.477,54.15316,291.4914,54.080709999999996Q291.5058,54.00826,291.5341,53.94002Q291.5624,53.87177,291.6034,53.81035Q291.6445,53.74893,291.6967,53.6967Q291.7489,53.64447,291.8103,53.60343Q291.8718,53.56239,291.94,53.53412Q292.0083,53.50585,292.0807,53.49144Q292.1532,53.47703,292.227,53.47703Q292.3009,53.47703,292.3733,53.49144Q292.4458,53.50585,292.514,53.53412Q292.5823,53.56239,292.6437,53.60343Q292.7051,53.64447,292.7574,53.6967L297.5303,58.46967Q297.5826,58.521903,297.6236,58.583322Q297.6646,58.644742,297.6929,58.712987Q297.7212,58.781233,297.7356,58.853682Q297.75,58.9261313,297.75,58.999999825422Q297.75,59.0738684,297.7356,59.146318Q297.7212,59.218767,297.6929,59.287012Q297.6646,59.355258,297.6236,59.416677Q297.5826,59.478097,297.5303,59.53033Q297.4781,59.582563,297.4167,59.623602Q297.3553,59.664641,297.287,59.692909Q297.2188,59.721178,297.1463,59.735589Q297.0739,59.75,297,59.75Q296.9261,59.75,296.8537,59.735589Q296.7812,59.721178,296.713,59.69291Q296.6447,59.664641,296.5833,59.623602Q296.5219,59.582563,296.4697,59.53033Z" fill="#DDDDDD" fill-opacity="1"/></g><g style="mix-blend-mode:passthrough"><path d="M223,131.75L215,131.75L215,130.25L223,130.25M211,131.75L203,131.75L203,130.25L211,130.25M223.5303,131.53033L218.7574,136.3033Q218.7051,136.35553,218.6437,136.39657Q218.5823,136.43761,218.514,136.46588Q218.4458,136.49415,218.3733,136.50856Q218.3009,136.52297,218.227,136.52297Q218.1532,136.52297,218.0807,136.50856Q218.0083,136.49415,217.94,136.46588Q217.8718,136.43761,217.8103,136.39657Q217.7489,136.35553,217.6967,136.3033Q217.6445,136.25107,217.6034,136.18965Q217.5624,136.12823,217.5341,136.05998Q217.5058,135.99174,217.4914,135.91929Q217.477,135.84684,217.477,135.77297Q217.477,135.6991,217.4914,135.62665Q217.5058,135.5542,217.5341,135.48596Q217.5624,135.41771,217.6034,135.35629Q217.6445,135.29487,217.6967,135.24264L222.4697,130.46967Q222.5219,130.417437,222.5833,130.376398Q222.6447,130.335359,222.713,130.30709Q222.7812,130.278822,222.8537,130.264411Q222.9261,130.25,223,130.25Q223.0739,130.25,223.1463,130.264411Q223.2188,130.278822,223.287,130.307091Q223.3553,130.335359,223.4167,130.376398Q223.4781,130.417437,223.5303,130.46967Q223.5826,130.521903,223.6236,130.583323Q223.6646,130.644742,223.6929,130.712988Q223.7212,130.781233,223.7356,130.853682Q223.75,130.9261316,223.75,131.000000174578Q223.75,131.0738687,223.7356,131.146318Q223.7212,131.218767,223.6929,131.287013Q223.6646,131.355258,223.6236,131.416678Q223.5826,131.478097,223.5303,131.53033ZM222.4697,131.53033L217.6967,126.75736Q217.6445,126.70513,217.6034,126.64371Q217.5624,126.58229,217.5341,126.51404Q217.5058,126.4458,217.4914,126.37335Q217.477,126.3009,217.477,126.22703Q217.477,126.15316,217.4914,126.08071Q217.5058,126.00826,217.5341,125.94002Q217.5624,125.87177,217.6034,125.81035Q217.6445,125.74893,217.6967,125.69669999999999Q217.7489,125.64447,217.8103,125.60343Q217.8718,125.56239,217.94,125.53412Q218.0083,125.50585,218.0807,125.49144Q218.1532,125.47703,218.227,125.47703Q218.3009,125.47703,218.3733,125.49144Q218.4458,125.50585,218.514,125.53412Q218.5823,125.56239,218.6437,125.60343Q218.7051,125.64447,218.7574,125.69669999999999L223.5303,130.46967Q223.5826,130.521903,223.6236,130.583322Q223.6646,130.644742,223.6929,130.712987Q223.7212,130.781233,223.7356,130.853682Q223.75,130.9261313,223.75,130.999999825422Q223.75,131.0738684,223.7356,131.146318Q223.7212,131.218767,223.6929,131.287012Q223.6646,131.355258,223.6236,131.416677Q223.5826,131.478097,223.5303,131.53033Q223.4781,131.582563,223.4167,131.623602Q223.3553,131.664641,223.287,131.692909Q223.2188,131.721178,223.1463,131.735589Q223.0739,131.75,223,131.75Q222.9261,131.75,222.8537,131.735589Q222.7812,131.721178,222.713,131.69291Q222.6447,131.664641,222.5833,131.623602Q222.5219,131.582563,222.4697,131.53033Z" fill="#DDDDDD" fill-opacity="1"/></g></g></g></svg>